<mxfile host="Electron" agent="Mozilla/5.0 (X11; Linux x86_64) AppleWebKit/537.36 (KHTML, like Gecko) draw.io/28.0.6 Chrome/138.0.7204.100 Electron/37.2.3 Safari/537.36" version="28.0.6">
  <diagram name="Page-1" id="yJQSGoxVatu3uyxbni6X">
    <mxGraphModel dx="1026" dy="679" grid="1" gridSize="10" guides="1" tooltips="1" connect="1" arrows="1" fold="1" page="1" pageScale="1" pageWidth="850" pageHeight="1100" math="0" shadow="0">
      <root>
        <mxCell id="0" />
        <mxCell id="1" parent="0" />
        <mxCell id="zP974PlBZuE0hn4As67i-1" value="&lt;b&gt;&lt;font style=&quot;font-size: 14px;&quot;&gt;MQTT broker&lt;/font&gt;&lt;/b&gt;" style="ellipse;shape=cloud;whiteSpace=wrap;html=1;fillColor=#dae8fc;strokeColor=#6c8ebf;" vertex="1" parent="1">
          <mxGeometry x="40" y="16" width="160" height="120" as="geometry" />
        </mxCell>
        <mxCell id="zP974PlBZuE0hn4As67i-50" style="edgeStyle=orthogonalEdgeStyle;rounded=0;orthogonalLoop=1;jettySize=auto;html=1;entryX=0.81;entryY=0.965;entryDx=0;entryDy=0;entryPerimeter=0;" edge="1" parent="1" source="zP974PlBZuE0hn4As67i-2" target="zP974PlBZuE0hn4As67i-41">
          <mxGeometry relative="1" as="geometry">
            <mxPoint x="270" y="230" as="targetPoint" />
          </mxGeometry>
        </mxCell>
        <mxCell id="zP974PlBZuE0hn4As67i-2" value="" style="rounded=1;whiteSpace=wrap;html=1;align=center;fillColor=#f5f5f5;fontColor=#333333;strokeColor=#666666;" vertex="1" parent="1">
          <mxGeometry y="270" width="220" height="110" as="geometry" />
        </mxCell>
        <mxCell id="zP974PlBZuE0hn4As67i-14" value="" style="rounded=1;whiteSpace=wrap;html=1;fillColor=#d5e8d4;strokeColor=#82b366;" vertex="1" parent="1">
          <mxGeometry x="350" y="20" width="490" height="340" as="geometry" />
        </mxCell>
        <mxCell id="zP974PlBZuE0hn4As67i-16" value="" style="verticalLabelPosition=bottom;html=1;verticalAlign=top;align=center;strokeColor=none;fillColor=#00BEF2;shape=mxgraph.azure.mobile_services;pointerEvents=1;" vertex="1" parent="1">
          <mxGeometry x="550" y="290" width="32.5" height="50" as="geometry" />
        </mxCell>
        <mxCell id="zP974PlBZuE0hn4As67i-17" value="" style="verticalLabelPosition=bottom;html=1;verticalAlign=top;align=center;strokeColor=none;fillColor=#00BEF2;shape=mxgraph.azure.mobile_services;pointerEvents=1;" vertex="1" parent="1">
          <mxGeometry x="440" y="290" width="32.5" height="50" as="geometry" />
        </mxCell>
        <mxCell id="zP974PlBZuE0hn4As67i-19" value="" style="verticalLabelPosition=bottom;html=1;verticalAlign=top;align=center;strokeColor=none;fillColor=#00BEF2;shape=mxgraph.azure.mobile_services;pointerEvents=1;" vertex="1" parent="1">
          <mxGeometry x="640" y="290" width="32.5" height="50" as="geometry" />
        </mxCell>
        <mxCell id="zP974PlBZuE0hn4As67i-21" style="edgeStyle=orthogonalEdgeStyle;rounded=0;orthogonalLoop=1;jettySize=auto;html=1;entryX=0.194;entryY=0.8;entryDx=0;entryDy=0;entryPerimeter=0;exitX=0.323;exitY=0.051;exitDx=0;exitDy=0;exitPerimeter=0;" edge="1" parent="1" source="zP974PlBZuE0hn4As67i-2" target="zP974PlBZuE0hn4As67i-1">
          <mxGeometry relative="1" as="geometry" />
        </mxCell>
        <mxCell id="zP974PlBZuE0hn4As67i-25" value="" style="rounded=1;whiteSpace=wrap;html=1;fillColor=#e1d5e7;strokeColor=#9673a6;" vertex="1" parent="1">
          <mxGeometry x="422.5" y="30" width="250" height="150" as="geometry" />
        </mxCell>
        <mxCell id="zP974PlBZuE0hn4As67i-32" style="edgeStyle=orthogonalEdgeStyle;rounded=0;orthogonalLoop=1;jettySize=auto;html=1;" edge="1" parent="1" source="zP974PlBZuE0hn4As67i-26" target="zP974PlBZuE0hn4As67i-27">
          <mxGeometry relative="1" as="geometry" />
        </mxCell>
        <mxCell id="zP974PlBZuE0hn4As67i-26" value="" style="shape=image;aspect=fixed;image=data:image/jpeg,/9j/4AAQSkZJRgABAQAAAQABAAD/2wCEAAkGBxANDw0PDw0QDw8OEA0NDw8NDRAODQ8NFhEaFhgRFRUYKDQgGBolGxMWITEhJikrLi4uFyEzODM4Nyg5LisBCgoKDg0OGhAQGSslHR0uMisrLSszLjAtLS83LS4rKy0vKys2Ny0tKy8tLS4rLS4rKystLS0tLS0tMC0tLy0tLf/AABEIAOsA1gMBEQACEQEDEQH/xAAcAAEAAgMBAQEAAAAAAAAAAAAAAQIEBQYHAwj/xABMEAACAQIBBQgMCgkEAwAAAAAAAQIDEQQFBhIhMRNBUVRhcYGRBxQiMlJyoaKxwdHSM1NiY3OCk5SysxYXJDRCkuHi8BWDwvEjJTX/xAAaAQEBAAMBAQAAAAAAAAAAAAAAAQIEBQMG/8QAOhEBAAECAgQLBgYDAAMAAAAAAAECAwQRITFRUgUSExQyQWFxgaGxYpHB0eHwFSMzNEKiIlNjJHLx/9oADAMBAAIRAxEAPwD3EAAAAAAADR5azpw2Dbg5OpVW2nSs3F/KeyPNt5D3t4euvT1PC5iKKNHW5TG5+4id9ypU6S+VerPr1LyG3Tg6I1zm1KsZXOqMmmxGcuNqd9i6i+jcaX4Ej1ixbj+Lym/cn+TAq5Qrz77EVpeNWqS9LPSKKY6oefHq2yxpzb2tvnbZUzlVTa2NrmdgPpDH1o97Xqx8WrOPoZjxaZ6oZcerbLLoZyY2n3uMrfXnuv47mE2bc/xhnF65GqqW4yf2QsXTaVaNPER37rcqj6Y6vNPKrCUTq0PWnF1xr0u5yBnNhserU5ONVK8qNS0aiXCt6S5V0mlcs1W9epu271NzVrbo8nqAAAAAAAAAAAAAAAAAHM58ZclhKUaVKWjVr6XdLbCmtslwN3sungNrDWorqznVDVxV2aKco1y8ybOm5jNwWRsTiI6VHD1Jx8JLRi+ZvU+g86rtFOiZelNquqM4hh4vDVKMnCrTlTmtejOLi7cKvtXKZU1RVGcSxqpmmcph8GzJiq2RVWwKtgVYVVgTTqyhKM4ScJwalGUW1KMlvp7xJjPRJE5aYeu5kZy/6hScalliKNlUtqVSL2VEujWt586OXfs8nOjVLqWL3KRp1w6U8HuAAAAAAAAAAAAAAAAPL+yBW0sdNfF06UPJp/8AM6mEjK33uXi5zudzXZs4COKxdClPXBtzmuGEYuWj02S6T0vV8SiZh52aOPXES9ghFRSSSSSSSSsklvJHHdhpc8MmQxOErXS06MJ1qUv4oyir2vwNKz/oe2HrmmuO1436IronsePtnWclVsCrYFWFVYFWyCrYG5zNyg8Nj8LJPVUmsPNcMKj0dfIpOL+qeV+njW5jxetmri3Inwe3HJdYAAAAAAAAAAAAAAAAeT58P/2GK/2fyYHWw36UffW5OJ/Vn76muyJlF4TE0a9tJU5PSitsoNOMkuWzfTYzuUcemaWFuviVRU9gwGPpYmCqUakakXvxetPga2p8jORVRNM5TDr01xVGcS57PjOGlQoVcPCalXrRlScYu+5wkrSlLgdm7LbrNjD2ZqqiqdUNfE3oppmmNcvLGzpOaq2BVsKqwIbAq2QVbCvvkt/tGG+nofmIxr6M9y0dKO9+gTjOyAAAAAAAAAAAAAAAAPJc+P8A6OK/2fyYHWw36UffW5OJ/Vn76mhbPd4K33+joIqgFWwKthUMCrYFWyCrYVVsD75Lf7Rhvp6H5iMa+jPcyo6Ud79BnGdgAAAAAAAAAAAAAAAAchl3Mp4zE1cR22qe6aHcdr6dtGCjt0lfvb7N827WK4lMU5au1qXcLx65q42vsYH6uHx5fdf7z0577Pn9HnzKd7y+qv6tnx9fdf7xz32fP6HMp3vL6o/Vq+Pr7p/eOe+z5/Q5lO95fVH6tHx9fdH74577Pn9DmU73l9UfqzfH190fvk577Pn9F5lO95fVwmNobjVrUr6W5VKlLStbS0ZON7b2w3KZziJ2tOqMpmNjHbKirYFWwqrYGRkt/tGG+nofmIxr6M9zKjpR3v0IcZ2AAAAAAAAAAArUmopylJRjFNuUmlFJb7e8IjPUTOTkcrZ90qbccPTdZrVukm4Ur8m/Lyc5uW8HVOmqcmncxlMaKYzc7iM9cdPZUhT5KdKL/Hc2IwtuOprzirksd535Q42/saHumXNrW76sec3d70VeeGUONv7HD+6ObWt31Oc3d70Q88cocbf2GH90c2tbvqc5u73oq88socbf2GH90c2tbvqc4u73oh55ZR42/sMP7o5ta3fU5xd3vRV555R44/sMP7pObWt31XnF3e9EPPTKPHH9hh/dHN7W76nOLu96KvPTKXHH9hh/dHN7W76nOLu96NFXrSqSnObvKcpTk7JXnJ3bstS1s9ojKMoeUznOcvk2EVbCqNgVbAyMl/vGG+nofmIxr6M9zKjpR3vf8ZUcY3Ts7pbx8zj7tdq1xqJynN3LVMVVZSwu2p+F5InG5/iN/wAo+TZ5KjYdtT8LyRHP8Rv+UfI5KjYtHGzW2z51Y9aOE71PSyn77GM2KZ1MyhiFPZqe+mdfDYui/GjROx4V25pfY2nmAAAESaSbbslrbepJAeXZ2Zxyxs3TptrDQfcpat1a/jlycC9ezq2LEW4znW5V+/Nyco1OdZsNdDYFWwKNgVbIqrYFWwKsKhgVbIKtgVbCqtgVbAq2QZOSv3jDfT0PzESvoz3MqelHe99x/edKPleE/wBDxh3rHSa4+ebaLgQRUxm4tNOzRaLlVFUVUzpgmmJjKW3oVdOKlw7eRn1eHvxetxXHX6ufXTxZyfQ92IAA5fsgZSdHDKlF2niW4Ph3Ja59d4rmkzawlHGrznqauLr4tGUdbzRnTcxVsCrYFWwKtkVVsCrYFWFVYFWyCrYFWwqrYFWwKtgQQZWSv3jDfT0PzESvoz3MqelHe99yh3nSj5XhT9Dxh3rHSa258620XIqGyKi5BmZLqa5R4VpLn/z0HX4IvZV1W569P399TXxFOiJbI77UAAHmfZDxWnjFTvqo04RtwTl3T8jidPCU5W89rmYurO5lscs2bTVVbAq2BVsiqtgVbAq2FVYENkFGwKthVWwKtgVbAggAbXNTBvEY/BU18dTqPxKb3SXkizC7VxaJl6WqeNXEPb8pS7mK4XfoS/qfJ8LV5W6ads/fq7uHjTMtfc4DbVuYqi5FRcg+mFnozg+VLoer1mxg7nEv0VdvroY3Kc6JhvD7BzQAB43nHX3XGYuXz1SK5oPQXkijs2Yyt0x2ONenO5VPa1jZ6PNVsCrZFVbAq2BVsKqwIbAq2QVbCqtgVbAq2BUgAAPVOxjm5LDwljK0dGpWjoUYyXdQoOzcmt5yaXQlw2NDFXc54sdTfw1qYjjT1umxlbTk7bFqXtPjMfiOWuzlqjRDs2qOLSx7mi9UNkzVW5iqLkzEXJmroacrpPhSZ9xbr49EVbYzcqqMpyWM0APDcTU0p1JeFOcut3O5EZRk4dU5zMvi2VFWyKq2BRsCrYVDAq2Bl4TJGJrpOlha1SL1qUaU9B/W2eUwquU065Z026qtUSynmrj+JVeqPtMOXt7WXIXN1V5qZQ4lV6o+0cvb2ryFzdQ808ocSq+b7Ry9vachc2KvNPKHEavm+0cvb2nIXN1H6JZQ4jV832k5e3tOQubqP0RyhxGr5vtHL29pyNzdZGFzHyjVaXarprwqtSnCK51e/UiTiLcdaxh7k9Tts2ex5Sw0o1cVNYirG0owSth4S4bPXN89lyb5q3cVNUZU6IbVrCxTpq0y6nG4vbGL536kfM4/hCJibdqe+fhHzdS1Z/lU19ziNpFyCCKi5M1QRUXMcxvcE706fipdWo+ywM54ajuhzL0ZVy+5tvMA8IqKza4G11Hchw5UbAq2BVsCrYVVgZmR8lVsbVVGjG8tspPVCnHwpPeRhXciiM5Z0W5rnKHqWQsz8Lgkpyiq1ZWbq1krRfyIvVH08pzL2KmYmZnKHRtYamntlu542K2XfMtRyK+E7NM5RnP32t2LFUqdvrwX1o8vxajdllyE7Tt9eC+tD8Wo3ZOQnadvrwX1ofi1G7JyE7Tt9eC+tD8Wo3ZOQnadvrwX1on4tRuyc3naj/UF4L60Pxejdk5vO1WWUeCHWzCrhjdo98rGH2yxq2KlPa7LgWpHOv429e0VTo2Rqe1FqmnU+FzTeqLkVW5BBioRVbkEXIre5O+ChzP0n2HBv7Wju+LmX/1JZJvPIA8RyzS3PE4qHg168Vzabt5DtW5zoiexxbkZVzHawWzJiq2BVsCrCppU5VJRhCLlOcowjFbZTbskulkmctMkRnoh7Tm5kank3DKCs5u0q1RLXUqcnItiRxcViYiJuVaodixZ4sRTGtatWc3d7N5byPlMRia79WdWrqjY6NFEUxofM12YAAARcgi5FQ2RUXIKtmOaoIqLkzVBBBFQ2YqhsiqtkHRYONqdNfJj6D7bBU8XD247I9HKuznXPe+xtPMA8kz9w25Y+s96qqdZczjovzoyOrhqs7cdjlYmnK5Pa5xs93gq2BVsKhgdT2NsCq2O05K6w9OdVcG6PuY+SUn0GtiqsqMtrZwtOdeex6ZlCprUeDW+c+R4Vu51Rbjq0u3Yp0ZsM5DYAAACCKi5BW5iqLkVFyCCKgioMVRcmYrciouRUXIqacdKUYr+JpdbMrdE3K4oj+U5JVPFiZ2OmSsfexGUZQ4ySgBwPZSwWrDYhLY5UJvn7qPon1m9g6tdPi0cZTqq8HnzZvNFVsKqwKtkHfdiRd3jn8nDemp7DTxmqnxbuD11eHxdpjPhJdHoPi+EJ/8AIq8PSHbtdCHwNJ6AEXIIuRUXIqLkENkzVW5iqLkzEEVBFRciouQQ2Yqq2RUEVnZHpaVTS3oK/S9S9Z1uBrHHv8edVEec6I+LWxVeVGW1vD6xzQABgZcybHGYetQlq3SPcy8GotcZdDSM7dfEqiphco49M0vEsVQnRnOnUi4zpycJxe9Jf5tOxExMZw5ExMTlL4MqIbAq2Qd92I+/x/i4X01DTxmqnx+Ddweurw+LtMZ8JLo9CPiuEP3FXh6Q7droQ+JpvRFyKi5BDZFVbMVRcggiouTNUEVFzHMRciqtkVFyCLkzVBFQQdDk3D7nTSffS7qXI+A+z4MwvN7ERV0p0z8vCPNyr9zj16NUMo6DxAAADl88M0o49brSap4mKtd6oVYrZGdtj4Jf4tixfm3onU179iLmmNby3KWTq2EloV6M6TvZaa7mXiy2S6GdKmumqM6Zc6qiqicqoYbZWKrYHf8AYi7/AB/i4X01DSxmqnx+Ddweurw+Ltcb8JLo9CPi+EP3FXh6Q7droQxzSeqGzFUXIIuRUXIqtyZiDHNQiq3JmIuRUNkzVFzFUXJmIIolfUtb4FrYiJmco1k6G0ydk5pqdRWtrjHfvws+h4N4KqiqLt6NWqPjPyaV/ERlxaW2PomiAAAAABWcFJNSSkntTV0+gDAnkHByd3gsM3wvDUm/QZ8rXvSw5Kif4wj9H8FxDC/daPsLyte9PvTkre7HuZGDydQw+k6OHpUXOyluNKFPSte19Fa7XfWY1V1Va5ZU0U06oyYmN+El0ehHy3CP7mrw9IdCz0IY7ZovVFyCrZjmqCKhskyrbUnR0Y33K9le+je9j6a1OB5OnjcTPKM+i0auVznLPzWvQ+a8wzzwH/P+rH87t8y9D5rzBnwf/wA/6r+d2+ZfD/M+YM+D/wDn/U/O7fNF8P8AM+YTPg//AJ/1Pzva8xdr/M+YWPw+Zyjk/wCp+d7Xm+vatP4uH8kTY5nh/wDXT7oefK170+87Vp/Fw/kiOZ4f/XT7oXla96fedq0/i4fyRHM8P/rp90HK170+99IU4x72KXMkj2otUUdCmI7mE1TOuVjNAAAAAAAAAAAAajHfCS+r+FHy3CP7mrw9Ib1noQx7mi9kXIIIqCKgxVFyZityKi5FRciouYi1HvoeNH0npZ/Vp749Uq6MunPvnGAAAAAAAAAAAAAAAAGnx/wk/q/hR8rwl+5r8PSG/Z6EMa5oPZFyZiCKgiouRUXIIbMVZGCwjrN67RW1+pG9gcDViqp05Uxrn4R96HldvRbjtZ0skwtqlJPhdmuo7FXAdmaf8apz8PTJrRi6s9MQ1WIounJxltXU1wnzuIsV2Lk269cefa3aK4rpzhWj30PGj6TCx+rT3x6rX0ZdQffuMAAAAAAAAAAAAAAAANRlKNqj5Un6vUfL8K08XETO2In4fBv4ec6GJc5ub3QRUXMcxFyKq2RUXIIuTNW7yO1uWrbpSvz/APVj6zgaaZw0Za85z++7JzsVnyjOOq1mny5bShw6LvzX1es+Z4emOUojryn6fFv4PPiywcLHSqU1wyj1XOThaJrv0Uxtj1bNycqJnsdMfeOOAAAAAAAAAAAAAAAAMXH4fdI3XfR2cq4DncJYSb9vOnpU6u3se1i5xJ06paZnyk6HRVuQRciobIqLmKouQQRX3weLlRd1rT2xex+w3MHjbmFqzp0xOuPvVLyu2ouRpZ8ssK2qm78rVjsVcPU8X/Gic+2dDWjBznplq61Vzk5Sd2+rmOBevV3q5rrnTLcppimMobPI+Ea/8klvWgv+R3eBsFMfn1x/6/P5f/Gnirv8I8W1PoWkAAAAAAAAAAAAAAAAAGJi8DGprXcy4d585zsZwbbxH+UaKtu3ve9q/NGjqaqvhZ09sdXCta/ofOYjBX7HSp0bY0x99+Tdou0V6pY9zTzeqLkVBFQQAAH1o4edTvYt8u91nvZw129P5dMz6e/UwruU0dKW0wmS1G0qlpPwV3q5+E+gwfA1NE8e9pnZ1fX072ndxUzop0NkdxpgAAAAAAAAAAAAAAAAAAAAPjVwlOffQXOtT60at3BYe706I9J98aXpTdrp1SxZ5JpvY5LpTXlNCvgSxV0ZmPvt+b2jF1xriHyeRuCr1wv6zXq4B2XPL6s+eeyhZG+d8z+pI4A23PL6rzz2fN9YZIgtspPqSPejgKzHSqmfd8mE4yrqiGRTwNKOyCfjd16TdtcG4a3qojx0+rxqv3Ktcsk3nkAAAAAAAAAAAAAAAAAAAAAAAAAAAAAAAAAAAAAAAAAAAAAAAAAAAAACNICNMCNMBugDdAGmBOmBOkAuBIAAAAAAAAAAAAAAAAAAo2BVsCjYFXICNICNIBpANICykBKYF0wLJgXTAkAAAAAAAAAAAAAAABVxAq4AVcAKuAFdABoANABoASoAWUALKAF1ECwAAAAAAAAAAAAAAAAAAAAIsAsBFgFgJsAsBIAAAAAAAAAAAAAP/9k=;" vertex="1" parent="1">
          <mxGeometry x="573.13" y="40" width="54.63" height="60" as="geometry" />
        </mxCell>
        <mxCell id="zP974PlBZuE0hn4As67i-27" value="" style="shape=image;aspect=fixed;image=data:image/png,iVBORw0KGgoAAAANSUhEUgAAAooAAAGACAYAAAAqB0N3AAAABGdBTUEAALGPC/xhBQAAACBjSFJNAAB6JgAAgIQAAPoAAACA6AAAdTAAAOpgAAA6mAAAF3CculE8AAAABmJLR0QA/wD/AP+gvaeTAAAAB3RJTUUH6QMLFjkT/68OnQAAfItJREFUeNrtnXd4W9X5x7/vvfKQlNghbBLLCYSyCxTKXmUUymoLJVD2KmmBJpZsSQ6UcvujEEuyJceM1kBb9jCj7LbsskrZexVIYocUCCSxE0uyrXvf3x92INAMj3uurqT38zx5wLZ07rnvec8537PeAwiCIAiCIAiCIAiCIAiCIAiCIAiCIAiCIAiCIAiCIAiCIAiCIAiCIAiCIAiCIAiCIAiCIAiCIAiCIAiCIAiCIAiCIAiCIAiCIAiCIAiCIAiCIAiCIAiCIAiCIAiCIAiCIAiCIAiCIAiCIAiCIAiCIAiCIAiCIAiCIAiCIAiCIAiCIAiCIAiCIAiCIAiCIAiCIAiCIAiCIAiCIAiCIAiCIAiCIAiCIAiCIAiCIAiCIAiCIAiCIAiCIAiCIAiCIAxBYgJBKA6WpqZMKLOolsgMaEQbMvGGAG/ITBsQY31o8INRxYCPgAoA663y9fXWkOwyADz0/yaAnqGflzGwlBjdDF5GpHUTsAzEC8BaJ8HqrOgev5CMt/ulZARBEEQoCoLgANy+mS+dLttaI96Wge3A2AagqQSuZaDabdkF8F8Q3gfjDQK9YbH1hg/8NoUWZqQ0BUEQRCgKgjBqUbhLWTrz+U4EbXcw7wbQ7gBPA6AV+KuZBLwH4BmAnmY990/fzE8WSokLgiCIUBQEYU3C0IAnUx3YnUAHMnAQiHcHo7JEXn8+gx8HcL/PZz5MMxalxSMEQRBEKApCSZNOTp7EoKM0oiMZ2B/AOLEKMgAeZdB9pjlwT1XDoi/EJIIgCCIUBaEkWD63ZnsPaz9h5h8D2EXq4VrpB/GDbOF6n3+jh2jGywNiEkEQBBGKglBU9KZqNyXGiSDrFIB2FIuMqrlaDMJNGvMVlcHOj9f2yRXJyTvopG9YWbfgCaKvTm0LgiAIIhQFwR1wYmN/1lP5E4BPYeBgALpYxRZMAHeDrBZf3cJ/r0Wc/14D/wRMl1X2LLiNDFhiOkEQBBGKgpBXMsnJ+1uknUHAsZA9h6p5hjQY3lmdj622LFI1pzOonRkfksb/513WdYcIRkEQBBGKguAofOWG49J9lSdrROcxsL1YxGH7A48A1OgPLnjlf4V7zb5MdDeADQh4y2Jc4A913i9WEwRBEKEoCErJzp28pWVp5xJwhgsDXpeeXiS6XWO+8Nt7GLNtNVuYJt1PwDZDn3xAI8xa115HQRAEEYqCIIxMjRjQ0hMCh2uM8xn4ocvqUZoZ8zWNOsHcCcInbKGbiLuZtW4idFsad+sWln5DSFV88+eVlPVRpQ72ft1i6GUWBiZYoAkaMIFBEwiYAMYmALZgYBoBm2PwisC82QDgi7yTuubSdJgrf7k0NWVCOaw7aHC/KABkiPn3lZO7Yqt+ThAEQRChKAgjF4gMysytPYaYL2Zgh7zmBegh4E0Qvc7MrxNZr+dy1kduiDnIBrTsuKk1rFu7gLAPYO0Jpl0AlDmclX/poLMqggve/Spv7buUZTKfXwemE1dpBZ9gnU/2/7prkXi5IAiCCEVBGDHpZO1PQTAA/m6equoHBH4KwFOk83MVv+76uJDCvnBysrePtL0tosPBfCSALR1q4bIAor66zrav8tIBPf1JzdUEOnOVDy622Dx1XGjh38XbBUEQRCgKwvAEYuvk3cFaC4C9ndRVBLzN4H+C6Skrpz01LjL/02Kya7Z16lbMuZ8BdLwTs7MMXO/r1n5JxvwsMDg7nE7VXENEZ33T7nyRN9h1qXi+IAiCCEVBWCOZy2unco7nAJjuUD35LwH3WeC/m2XW01Xnf/Jlqdi6ry2wbS6H44lwKoApCh/1Atg6xhda+Anw1d3adwE4+lui8jpf9/gZZLzdLzVBEAQRioIgfC0SEhv7056KCwkIQfGBDALesojuI8u81xtc+GKp3yDCBrTseoEfsIUzABwDwKtCkLNFR/jrF7wKDC6JZ0h7BP8zY8xPDjAfWx1auERqhSAIIhQFQUA6GZgOQguAyYoeYQL8NBj3aR7cVzmz6yOx+urpTk6eWEba2QCfB1DA5uSXQaMjfLMWPAcAy64KrFfRh6cZ2O4bUhF4Fx4+WA65CIIgQlEQSpjlycB2OqENwIGKHvEvJlxvesw7S2lJ2Q7YgCdTFTiGCcZXMRDtoZc0/HjljS7ptkmTYerPAaj51uc+JM1zkHfWx51SGoIgiFAUhJISIVMq09X8GwJHYH/oloUM3KiTfn1l3bz3xdpjLKsO6NlFtaczswG7ZnwJWbYwfeUtLcvn1myvW/RvAL5vfXKBpvNBMgMsCIIIRUEoETKtNfsx09UAtrIzWQB3a8w3VPR0PSp3CisQjMnJ3jToAiJqBOCxIckBMB3vCy34KwBkkoHTmHDdaj63SLPMH1TWf/KBlIIgCCIUBaFYhUbbtKqs2Z9g4Bc2+v9rTLiqL+vpmNj4cbdYWT29rTXfB9P1Ni1H97NFP/XXL3gIADKpwDUMnL2azy2AldvXV7+oS0pAEAQRioJQZAzNIl4Pe0Kw5ADcQ8SXe+u6nhLr5kH0G1MqM9VWE4BZdrgHgY70Bhc8PngSmv4F0I6raTHfM7X+/cbP/HSxlIAgCCIUBaEYBEXbtIpMrv8SEOoBaGNMLg3GtaR7WuSAg1sGAIGTGbgGjMoxJtUL4FBfsPPZbHLyNCbtJQaqV/O5l716+YE088Mesb4gCCIUBaGAGTygoN081qv3COi2iK60tL5WmU1yH+nk5N1A2l8BbDamQQXQA+KD/XVdLw6FS7p9DZ971Nfd+SMykBPrC4IgQlEQCpDe1sAviDEXYwvcvIJBc/tBzesF5y8Tq7paLE6Cpt0Pxs5jTGqJZekHjquf93o6FbgDwM/WICuv9AW7zhfLC4IgQlEQCgiObTU+U5G9GswnjCGZPgB/NHNll40Pf/S5WLUwWJqaMqGCrQdB2GuMSX2uWea+Ob28W2PzbQDrr9bXwOf6g11/EMsLgiBCURAKgN5U7fcIfBuALUerM0F8K1HZbNmDWKADhcFrGO8h4OAxJvWRqffv6bEqjmbma9fwmQHS8KOVgbsFQRBEKAqCW0VisuaXRNSK0d/R/BI0mrXyajehgMVi27SKjNnfAeDosbWQ/Ly3LHtIpt/7TwDfW8OHFrPH2kmu+hMEQYSiILhRFCQne9Ok/ZGAU0eZxGcEuqCye8F1EiS7iPyifZeyTObz28H00zGKxb8S620M64m1tKRPeJd1Hiz+IwiCCEVBcBHZtpotLBN3rTbm3TC0BAF/6qtAZMK5nUvFmkUoFtumVaTN/vsI+OEYk5oLYCrWMkNJRBd56xb8XqwuCIIIRUFwAb2tgSOJcQOA9UYsIIB3NeYZ3lDX02LJIheL7Zv5MmnPPwDsM6Z0iC4j5igAfQ0fyQE4wBfsfFasLghCsaCJCYSC6/gZlEnWXECMe0chEnPM+D9f9/idRCSWyGh4xqJ0ts9zJICXx5QO86/B+PdaPuIB4Vpum1YhVhcEoWjaUDGBUFAicfDatmsBnDQKgfkOwKf5Q10viSVLj57mzTbw6J5/A9h8DMksXdfghAgXe+s6/08sLgiCCEVBcL6jvxvAviPViARcU+nLBWnGorRYsnTpS9VukwM/T0CVysfoprZTRcP898TigiCIUBQEJzr4tsC2psl/Aygwwq8uJLZO9oYW/jPf79CbrDmXiA5w6nmaZf6msv6TD8R7vkk6FfgZgA6V7R8Dj/qDnYeItQVBEKEoCKo79sF7fB8EsMEIv3pfrsw8s+r8T750w3tkUoFrGDjbqedZ0HYeF5z/mnjQakR7qvb3BL5QqVBnPrQy1PWwWFsQhEJGDrMIriabChwM0h4doUjsA6POW9f5E7eIxKFx2YCTT/MQZcSDVo+ve8FvATyjVKgT4mxIGysIgghFQVBCJhU4xQIeAjB+2F9izGOL9vSFOucSgd30Pgzud/J5ltkn+zHXJNkNWDroHAze6a3qKTtmJgSOFWsLgiBCURBspjdVezYD1wEoG4EUe9I0y/bw1y941ZUvxXBUKOYYMqO4FiqCC94lZqWnk5nxO5lVFARBhKIg2Ei6tfZ8Al89Av9kBuZ4J3UdPD780edufS/WnF16Hs+mCMV1UNnTFQfwmqr0CdgmM6H2p2JpQRBEKArCcMTSOmZX0qmaEJjbMPyDVr0gOs4f7LyApsN098uzo0IRtZ9lxePWIeQM5AhaUHHBX8gsBwcFQRChKAhr0UigTHLy/mTAWtNnMslAI0AtIxCJi1jD/r66BXcVRGVjR/co9rleOLsEb3D+kwT8Q53zY+d0a+3hYmlBEEQoCsIaRGK2NfBbUytbYwDidCpQx4Q5w02TgDdJ8+zpn9X5csHYQdOcnFGUZecRYJIVAdY8iBkrBI6IlQVBEKEoCN8WRx3Q062BPzPRW+Pq5n22WpHYGpgJIDX8RPFAZXlmL++sjzsLyhiWozOKIhRHwLi6hW+AqEPhI/brnRvYRSwtCIIIRUFYqecMeDKf1N5IxOVrWh7ubQ3MAKN1+BoR13l7On9K5y1eUXD2gKN7FCU0zogbQ82AyllFE3ViZUEQRCgKAgA2tivPVAVuA/iAAYt/vbrPZJI1ZxDjKgx3TyJxi6+u80wykCtIo5Dm2IwiyYziiKmsm/c+QPcpLJTjey+v2UwsLQiCCEWhtEVi27SKTNXyu0A4lkG/qA4tXPLtz/Sman7CRNcM0wcZhEZfXVeD24Joj6iyOXjqmUUojk7LsZVUmHyZlsMZYmVBEEQoCqUrEtt3KcuY/R0gHMlEf/EHFzz47c9kWmv2I6JbAejDSZKZz/fVdcYK3jYkexTdjjfU9TSAF9QJeDpTQuUIgiBCUShNkdgBPZNefBOAowHu7Mvq/xOfbkXr5O8y071gVA5TJJ7rD3VdVRwWci7gNhHJHsXR2g7UpjD5zbNtgQPFyoIgiFAUSkskGtDSnwT+DGA6AFiEcyY2fty96mcyzVNrNdb+BmDCsEQi4Vf+UNcfi8ZGDs4oMiyZURwlld10F4Clyh5g4nixsiAIIhSFkiIzobaZgFMHf6Jbx9V1fSOAMV+54TjWrfsADGczPzPz+f66zvbiUtMSR7EQIGN+FsBN6gYMOFKWnwVBEKEolAxD1+4FAYCBHvZYDd/oGA1omX7vTQB/d5hdaUPxLDevUtk052YUiWXpeSxYbF2jMPlN06kaiakoCIIIRaEERGJr4DiAEl9rPI76f921aNXPZKprYgB+PCyBQ3SRL9il5OTpiuTkw/jKDcflzVimg0vPzHm753ld93kXAuNCC98EoOzWH00judJPEAQRikJxk2mt2Q/ADV/5EfHzvp6uq7/xmWTgNIAahikxmr11C36vRNAmJ++mkfZApt/7USZVc3o+lv6YdQeXnikvS8/p1tpjM9WBhb3JmmsLfnmV6HZlvmBhP2lBBEEQoSgUr0i8vHYqs3bnKqeXcxbrvyLj65stVqSm7MSEYS0hM3C9t65LyX24bMADTfsjBsPxbMSgv2RaAy/0ttZ831GhSGbOuWc5ezNLb6p203QqcAeY7wSwKRGdlU4FjIJ2cnPgtkHXVCFCsScb25VLSyIIgghFoehYmpoygU1+COANV1F6qXHB+a+t/LHniknra7D+CsA3jCTv9E3qPEtVMO1sdSAMxs7f+vWuxPRcOlWT4PbNfE7YjUl3TCgSOXOYhQ1ovcmacwF+D8DPvpWHiwa3JhQmvvpFXQCpiqnoy1SvkH2KgiCIUBSKCzbgKYd1Oxhbr/LrRV6z73dffaYDuj6g3wpgyjCSfMbbrZ1C02EqEYltNVswcNEa/uwBqCGT9ryZbQ0cotx2munk1YPKhWJfW2DbTHXgKSK6koCq1elVMP5Y0NfWEe5SmPY+0qIIgiBCUSgqMtU1rQT88BsCCHQxhT/rXflz+pPAJQSsW3gR3htg68dD4UiUYOWoFYB3HR/b3GI8nE4FOnqaN9tAVV7KB5ybUWSFp565fZeydGsgapp4BcDe6/j4ROToukLdr2iZ2sMKC2lXaVEEQRChKBQNvanAOQCd902th7d9kxb85evP1P6IgMZhiMRPibUfre4eaPvyW3sECEeO4CvHeXTP2+lUzc+V6AItl3OwYiuZUczMDeyTTi9+HYwmABXD+Q4Bh6RbA78oRJ/3h+a9AeBzRcnL0rMgCCIUheIgnZy8GwH/c7WZBYquXDZOt02aTOAbBrXB2jUcE470BufPV5VfNqZUErh1FF/dCKBbMsnAg5m5mwdszZNV5tipZ7ZZKHLbtKpMqvYqtvBPArYZRRKJdHLypELzeyIwiB5XlPzmy64KrCetiyAIIhSFgmZ52yYbgrQ78e0ZJMIT/uCCBweFGTww9VsBrGvplkE4wz+r82WVec5WcxjAtFELI8LhbOXeTbcGotwB3RaxVd5vOlVmFpu2LT33ttQenjH73mTwr0bbZhBQBdJaC7ICsLJ4ilTRRztLCyMIgghFoWBhAx7dLL8NQM3/aBFCeOUPmQmBS4B1b85noMlX13mHyjxn5m4eYHCjDUn5wGjKfFL77Irk5B3GLN6scsdmFHUbZhRXtE7dOJ0K3EYaPwiQHbOrP+tN1R5ReDoRbytLm7CttDKCIIhQFAqWIQF44Gr+dOvKWcFMasoBYKwzBiKB/+br7vyN8o7dGkhheGF5hpvi7hppr6RTgSY2plSOWijm+pybUdTGdpgl3Ro4TmPzLQDH25kvgnUVJzb2F1IdIGvgLXUFZW0lrYwgCCIUhYIk2xo4ZA0CsI+g/QYAljRtXs0wr1+nLzHmZaGfuGpAbmV5Bh2jIGkPgGhmgvVqZm5gVGFNLJ/HMaHI1uiu8MtcXju1NxV4GIwOrHsbwWhkVyDjqbiokOqBN7RoIaAmgDkTbS0tjSAIIhSFgmN5YouNrFWv51u1qweuX3kQpbI8d8UwliVNEE5ZLzh/mVJx1L5LmcmYq1aBYWu28M9MqvYqbptWNaLKls7pTpWfxzOyGUXugJ5O1gQ5x28OK7TR2Aj1NU8pGIE0eKAFnUrSBn9HWhtBEEQoCgUFM8jj6b8OjE1W8+ccATEASCcD00E4ed3aipp8wc5nVec70/v5+aM8kTviesPgX2XM/vfSrbXHDvtLVrnHqTI0TW3YQnH53JrtM5/UPguiJAAnloXLcrp1eYHViU41KdMmBX8ntiAIIhSF0iLTWhNk0I/WoPpuqwx2fpxOTp4Ewh+GkdxLPt8Gv1Od58GT2fRbh021KZjvTCcD9w8n9ItWOeCYUOwHrfMwy8rA2bpFLwO8u5OGI+Dg3mTNjwumoWQsUJR0+fKWzdaXVkcQBBGKQkGwfG7N9gBdtoY/W7oHc5hBTNqfAUxcR3J9uqmdQjNeVn7a15MrvxTAhLwYjXAkSHurNxU4Z22zQ9Rf7tjS8wTds1ahmJ5bu9cqgbPL82I2QptT92yPFQv4rzI7lOmbSMsjCIIIRcH1cPsuZbpF12ONN27wPRUzO9/JtAbO//Y1fmsQApdVNMx/T3W+V6Sm7MSEM/NsvgkEtGdSgUeybTVbrNYe5TmnZhQtmvlh32pLsG1aVbq19kpY/LRDy/Rr85BANl1WXwh1gwhfqEq7zCIRioIgiFAU3E+6d/FvAHxvjUJSo8v6UrXbYGiP4lpFJ/Bu5bLxTcrFLYM0WHMB6K4wIuEgy6K3elMBg5OTv3HHdG7AM86hXKx2NrG3NXBkxux/G8znuqXuM7jR7htwFDnaYnWqnqql9REEQYSi4Gp6kzW7EuGCNQsgft63dPybJvgmAN51dasa8wwy3u5Xrojm1kwHsJ+7RAUqCbg4Q9pbvcnAUV/bcGDTfAjF5YktNkq31t5KjPsBTHaZ6/nYyjW7vqEkUjajSGAvBEEQRCgKboXbplUAdD0GYwWu/jMWrs9U9ySxlhnHrzs+XOMNdT2tPN/JyV4w4i427eZEuC+dCtyXTQU2J9IcErT81YnnTGvgVN0z8A6YT3CxnY7LpGoPdHMdschariztdQ+8BEEQ8oZHTCCkc32/IaK1XiWmEe3EwIxhJPdlP1uznch3RtNmghEoABMfZQGHkWMDM8pkLq+dauX4j8zr3kvqkuFKK3dgZ5oO0425syykNUVBbEiEoiAILkZmFEucFcnJOxBRdJ3d+PBEIhh8UXVo4RLV+e5OTp4IRmMBmboMzu2j3GwocPYPC8U4DOyQXRg42a3589hwd/aaVSjrEARBEKEouK5z7oCukX7NkIhZA4SyfS8Yboqv+yZ1Xe2I6tLoAuQrHI77GQ9nAmfb64+ES799AMg1edPLle23ZaBPXFYQBBGKguvILAycv+5Ay4zc2x3DSo+g1zmxdMgMAtNeUoJFx6SMpp/lxowR+iuUNcKkZaXoBUEQoSi4inTLZjUg/H5YwmzJh8P5WIc3OP9JRzptAnu7tQMBtALu3NMmjHzcwuBLvAPZv7gxczkTleocmvul+AVBcCtymKVkhwhlMYDtiuvXrwGzncw+GfOzAIIrUlOu12C1A9hNCrVAYTxAZTTT9+vOeW7NImlUCVb1+pQRJxAEwbVyQUxQeqRTgb0BO8Ol8DWVwc6P8/Eu44LzX/NO6twLjDoCuqV0C4oXodHevlDnUd5fL5jn5oxqCk8mE6zF4gqCIIhQFFwBd0AH4XIAdgX76GVol+bznWg6TF+oc+5AmbkFGG2Q5Wi3s4iBGd7uzj18sxY8VwgZNi1Wdie1xpoIRUEQRCgK7iD9Se0ZYOxsm/AE2vzBBf91w7tVnf/Jl75Q5ywG7QbgWSlt15EBEPP2e7f2BzuvJgNWoWRch7axqrT7ynKfi2sIguBWZI9iCcFt0yoyZt9Fdk0mEtDdX4GE297TH1zwCjP2zcwN/AzMzQAFpPTz7XyD+xDdvsS8FlRdv5gb/8UnS8VBBEFwKzKjWEKkzYGz7RRNTPjDhHM7XdnJEYF9dZ13eHP92zLwO0isunzxMjHvVwj7ENfh65spSnphIc2sCoIgQlEoUtiYUklgO28y6WOdL3f7e1P4s15/sNPQ2NoewB3iCY6xch/ibk7c++0ASmYUGfhQXEUQBDcjS88lQmaCdQ4Yk23r4Jhv8v+6a1GhvH9laOGHAKb3ttQeThpSAH9HvEKNqzFzi8/sb6LwZ71F9F6bKBqpfyQuIwiCm5EZxRKADXjACNmZpMdDyUK0hb9+wUPe7nE7gCjCQI94h63cQdC29Ye6LioykQiAtlJSN4lEKAqCIEJRyC/ZqtrpAGpt6zKBhypmdr5TsF2+8Xa/r25BwiwzN5dwOrbwGrF1gC/YOd0bnD+/2F6u54pJ6wO8oRKhaPF74j6CIIhQFPIKa9xgZ3oW6A/FYJdvhdN5RjxlxHwJRp13Uueu3tDCfxbrS5aZ+jbKGmDS3hQ3EgRBhKKQN7KtgUPsjJsIcKdv0oK/F5ON/MEFr/iCnfsy42gAC8Rr1skAGG3ZPs8WvlDnXJpe3DOyFkOVUFxeWTdf/E0QBBGKQv5g5qCd6RGjvViFgT/Ueb/XlxsMp0PIivesxp+AR03Gzr5Q56yJjR+XxJWJxLS1oqTfIlJ1g7QgCIIIRWEdZJOTpzHoUBuT7Dc1z5+KWhTMWJT2BzsNaOaWAG4UL/rKMh8w4Sh/sPOQ8aHOt0vr1XlnJckCb4hfCYIgQlHIG5amn2tvGfMD4+rmfVYKtvPN/GShL9h5KkH7AUCl3KEvA6HRq5d911/X+UCpvTx3QAfj+0rqJ+glaaUEQRChKOSng2vfzAfm02xNk3FDqdnRG5z/pLd7wS4gzCqxcDomEf6YM3Nb+uo6YzTzw5K82aa3a+r2AMYpqaOW9qK0VIIgiFAU8kI64zkJwEQbk/zS11P1t1K0JRnI+eo623hA2wolsRzNT1qWvou3rvNXVQ2LvijlekSaubuipDP+5fPehiAIgsuRm1mKtYNj/MLeBOl2Mt7uL2WbjovM/xTAqStaa27WmP4MKLv/N198TkxBb6jzFqlBX4nm3QFSkCxeJQM5sa8gCG5HZhSLkOXJwHaAzfuqTJKDHSsFY13XPwi4oqgGFkC3yTjQG1ogIvEbdtH2UZSwxO0UBEGEopAfdOLTbU5ykTc0/99iWSBzee3UTDLwIAOXFdN7MVCtE57PtNb+hpOTvVLSQCY1ZYqqO8HZon+KhQVBEKEoON/hG/AAdJKdaRLhvlKP98btu5Slk4FZnOM3mHB4kb7mOGa+JEPaf3pTgXPYKO32wSLrUEVJm/0aPSetlSAIIhQFx8lM2PzHADa1tcMEHixlm2ZbA4dkMovfAKEVik7AuoxJBLRnqmufS8+t3atUy53AioQivbRecP4yaa0EQSgE5DBLscG5Jru1p8+yHitJgdhWs4Vl0hyLcVyJOtPusPBsOhl4QCPMqgx2flwyb27Ak2U6UMk0OvFfpaESBKFQkBnFYurcYhuMB7CFzcm+TKGFmZKyY2Jjf28qYFgWvQWUqkhcVdjgSAt4N50MzF3StHl1SQwSqmr2ZEDJu2pk3S2tlSAIIhQFx1lR7o3C9lge/HzJCEQGpVsDx2U85e8QcDEYleJVX1EOwszKitxH6WRgFndAL2pfIDpWkep+o3LWwv+IOwmCIEJRcBwddKr9/Rq9UAq2650b2CXTGngajA6AAuJNa2R9EFrTnwTe7G2pLcpDPcwggH+qRCaCbxMXEgShkJA9isXSuTV/Z4MMsjW2jyQYLxe1QEzVbqqBDbZwtgycRiJ4sA00frA3FXjU0jg4flbXW8Xybpm22j0BVjFYsNjK3STeIwhCISEdY7EIHi17kYJk+yomdS4oSmFtbFeeTgUiBH6fgXOkLoxaMB6sW/RKOhmY252cPLEoXsri6Up8DnjcV7+oS7xGEAQRioLzBUl0gu0dG+Mjmg6z6ER1a+DITPXytwHEAIwX7xkzZSDMLCPtP+lkYBa371JWsAMIBgE4RlFje4O4iiAIIhQFx0lfM2kywBvZnS4RPiwmO2XnTt4ykwo8QIz7AUwTz7GdiSC0ZtKL3063BgrytHi2tfYHAGzfwsFAT2WuT047C4JQcMgexSKAV2iNpCRlKgqhyImN/WlPRdiy0AigQjxGOVuC0ZFuDTxhsRYaF5z/WsH4CnC2kppEdBOFP+sV1xAEodCQGcWiUEK0n6Jec1FBm4VBmdbAqZmyig8JuFhEouOq6wcarJfTqcANK+JTNnF7dnuumLQ+SM1pZ4vpGnEIQRBEKArO98UGNCJ8R0XapPFnhWqX3mTNrpnWwLPMuB6MTcRT8trGnKKVWR/2pgIGJyd73ZpRz4B+iqLYmc8W0qyqIAiCCMUiIlNduztB0cIzUHBCsTdVu2kmFWgnon8D2FM8xDX4Cbg4Q9oHmdbAqUOHRtw27DpdTT2iP0jxC4IgQlHIE9YxFrOSU6Y5U/+8UKzAxnbl6dZAVMLduJ7JzLg+0xp4Nt0yZQ+3ZCo9t3YvgHZUkPTnlXrZnVLsgiCIUBTyAoGOIVJTjrrG3YVgg0yyZt901fJXwWiChLspFPaEZj2XTgU6MpfXTs3/eMuqV1I/CVfSzA/7pLgFQRChKDgOx7Yaz6DJqtLP5fS0m99/2VWB9TKpQDsT/ZMI24pHFOA4BziOc/xeOhmYy23TqvIy0Li8dipAP1bwdlkTersUsyAIIhSFvNBXntmdYfWrSn+c5cm49d2zyZoflvfRymVmEm8oaMpBmJkx+x/My4ArZ9UD0G3XiYzrx9XN+0yKVxAEEYpCXrCYdtSg5JTmIJn3XSkUmUFMlAR4Q/GCouITpx84eO0gna6iemqm1ipFKgiCCEUhbxDxzgxSFTTdIgM5d743mJkuEg8otoGPdZ3Tzywn+hUAv4Kk765omP+elKogCCIUhfx1rMB2peobvtCCv4LxnHhBkcCY55+88BEnH7mkafNqBgVVVE2LrEukUAVBEKEo5BUCNlKZPhvu9g8CNxaYGLoJjHkOPW0FgL4C8uXf0XSYTj6zotKMAFhfQdJ3jKtb+Ia0UIIgiFAU8s0Epalvuovu5pf3hrqeBlAAMeroA9JwsC/UeQoTsg499CJNs3YA4zH362e8Wzm58yYnn9mbqt2UmGcpSNqy2LpUmiZBEEQoCvntXBkEguLr0P5b5nY7ELQwALeezu5j4HfebtrRO6vzscH8otyRik14u3LWwv/4Qp0HE+EUAJ+7twzxW6dnE4nwG6jYm0h827jQwjelhRIEQYSikF9+t10ZwJbKR6TTZdVuN4M3OH8+g5tdqH6e0Ejf0R/sNMiYv8osIjsivk3wsq9sVNd5U38FtibGNQDYZZZ6wVvXeZeTD8xcXjsVzGcrSLpf0/BbaZwEQRChKOSfDT8vB2tKhaJH9dK2TfiY5wBY4JLsLGFghndW50GVdfPe/18BSY7MKLLp+UZ8zQnndi71hjrPYQ3fB/CyS2zFIGsmkbPilXO4FGpmdv9QObPrI2mcBEEQoSjknaXLx+tEamcUzQIRihRamAF4dt5FD3Bjzsxt5Q92Xr1G8cPOLD2vCf+szpe93Z17gFGHwQMv+TTYDb66hf928pm9LbU7A3y8gnfpMfV+2ZsoCIIIRcEdrOfTsszsUfkMBiYWij18wa5bATyVp8f/hzQc4gt2nlrVsOiLdXzWmX2fGq/xthoykPOFOueCra0BvjtPNlsOD1/gqDBlEGl8uYp2TyNKjJ/56WJpmQRBEKEouAKa+aH60Cds1RSSTdiiOsDRQxEZBn7n1ct3WHlYZRg4MqNIFq/zWkNfaOEnvmDXscw4GkCXsw6MS/2/7lrk5COzrTWnAdhbQdKLKgeyKWmVBEEQoSi4TC3SgNLkNaotJHP46xe8Sow/O6Nz8A9N5x38wU5jhKLdoRnF4d9/7Q913u/Vy7cHcLlDQvtDr1be6qRvLLsqsB6DYop8oZHCn/VKgyQIgghFwV2w6ph8NKXQTJLz9F8IYKlChfgpmH/uDXYeNtKDC9wB3bE6pzGN6LVmftjjC3bOZOY9ALyiNmt8niMz4qtQ3k+/h4oA9cTPV9Y5GwNSEARBhKIwTOVBaoUi85aFZpLxMz9dzMy/UZC0CfCVfaxt4wt13TaqFBZOduwgC4EqRvM9f6jrJe+kzt1AmMVAj4Ks3V4Z6nrYSZ/oTdV+D8wzlAzVTD3o9KltQRAEEYrC8MQAcVrxI3bgtmkVhWYX3+SudgCv2ZjkKyBrb1+w6/z1gvOXjTaRpf3lzglFC5Wj/u50mL66zjYe0LYCcCNsir3IQA/Yqnd0LGVAI/AVAGy/ZYiBG33185+XlkgQBBGKgiuxgC8UP6I8zf3bF5yAng4TGp1ng8BZBkadd1LnbnaEcfF4smUO+saYb+0ZF5n/qS/YeSpBO5CBd8dcLsBvfKGFnzjpC5kJtecC2FOBSOyBJ+8hmQRBEEQoCmvreFl9cF+Tv1+ItvHNWvAcD86GjVIH4EYzV7aVL9Q5167r5fQK3bkZRRr9jOK38QbnP+nzbbjjUOzF0R7aeNk7qfMqJ31gRXLyDgAn1NQ9/MbpU9uCIAgiFIURdlb0AZiV7o8iwiGFah8e0KIEdI9QALxFzPv7gp2njg9/ZOv9yFqfp8w532Bb7wGnGS8P+EKdczWddySiv4/w6zlm/qWT9zmzMaVSI/0msH2CeRVeclr0CoIgiFAURt4Zgt8nkOJ9inRIIe5TBAaXTpn5d8P8eJqB31V2j9/FG+p6WoklywYcm1G0mFQIJFTO7PrIW7fgR4OxF7lzeH6KS/2hrpecLPtsldUG8HcVJG0yaIaTolcQBEGEojA6MUD8NhMsxY8Z32v1HVCoNvL2dF0O8Ovr+Nid0M2t/MFOg4y3+5VJbtKcm1EkJTNpX+EPdd7v7fdtD1ASQG4tH33R1935eyfLvDdVezYTfqFoeJbyBxe8AkEQBBGKgtvxL6t+D0SVqp9D0I4vVBuRgdyQaDBX82LvWcSH+YKdx/lmfrJQdV4GBvQyB1/dq9y20feX+4IL6i2ydgHjudV8JK2RfgoZaxWStpJunbz70Cln+yUi4x1vt36RtDyCIIhQFApEBL3dD4sXKH8Q87HcvpmvYAV1XdeLAFYVD8sABL3eDb87rq7rH46Vl55z7jALo9KpZ42rW/iGN9i5DxGdDeDLoV/nmPnEyrp57zuVjxWtUzcGa3cCULFVoo9ZP5GM+VkIgiCIUBQKBSY8rjrgLwFVmV796EK2k7c88xsA7wOYmzNzW/qCna004+UBJ/Pg5NKzZfNhlnW/G9hbt+BPOTO3NZgamHlPf6jrXsfqgTGlUmPzLgCTFT3it+Pq570OQRCEEsMjJihsCPwkM50GNbMoXz9H004DcFvB2um8xSvYwLZkKN/TueY8WFTODl3iQQ4sPa+OqoZFXwBocXSwxKBMK/8ZwN6KnvCkt7urWVobQRBKEZlRLHAs8jxOCm6d+N/OmA/NttVsUdCiOo8iEQCITQev8MuPUMwH6VTN/wH8c0WWXAzmk/PtO4IgCCIUhVExrm7eZxaw3AntYVramWLx0WM6uPTMgK8UbJpO1pxARBcqGx+RdbbTt8kIgiCIUBTsVXCEtx15DvNZbGxXLhYfrf3gpO2KfkYxmwocDKLrAZCiAkv667ruE88VBEGEolDYhcijvqpupGycrV5+vFh8tLBzcRS5uGcUe5M1u1rA3YAy8f2Sd1nVBeKzgiCIUBQKnoruzmuZndlDxeB6ZkUzOEUOac7NKDJx0QrFbOvUrYi0hwCMV/SIJeSh6SqDrwuCIIhQFJwTIAYs0vCqQ0/bsS9Vc4hYfRRY7GDAba0ol57TycmTLDb/AfCGih5hWsQnen+9YJ44rCAIggjF4hGLQJtjeocwWyw+Crtp5OCp5+KbUey5YtL6RNo/ANQqsxvzb50Mwi4IgiBCUXCEylmdNzLYdEiGHNCbqv2RWH2k4o3k1PNo36d9M5+nX7+Pge0UPua+ymDXHPFUQRAEEYrFJ0IITKS96JzjcIwN8Z+RqR1LTj2PxmzGduXZtOduEPZSWIM+yPZ5TlV9y5EgCIIIRSFvWLAMxzpvYIfshMDJYvURqXkH9ygWx4wid0DPVC+/iYFDFT5mhcl8zMTGj7vFSQVBEEQoFi3+WV0PA/jYsU6c8Xtum1Yllh+mTmSSGcWR+RelP6m5GsBxasc8OGN8qPNt8VBBEAQRisUtRAjMjJscfGRN2hpoFcsPDwuWkzOKFdyh/mpHlWRaa+IEUn0bUMIX7LxTvFMQBEGEYkmgw7oRcG6fFTGfkU7VHiOWH46Qd3TpGVi8YcHOKvamAucA1KD4MY97uzsvFM8UBEEQoVgyVIYWfgjgWWcVEF/Zc8Wk9cX668DZpWesSFcV5D7F3pbawwm4Sm1ZYF7OzB1PBnLimIIgCCIUSwoC/cVZAYRNygb0m9mAR6y/VkM5OqPo8ZgFJxTZgEYatwNKl82XmzofXdWw6AvxSUEQBBGKJUclm7cC+NJZrYhDM1WBFrH+2gQ8yp2t3FxwS89kwAIp3WdrMfHJ42d1vSUeKQiCIEKxNAVJaGEGwJ/yoIRm9qZqfiUlsAaF4vCMYk4rzNtZvN7cJQB3KnLSqL+u6z7xRkEQhOF27UJRkklNmcKwPgQcP/k6QKDDvMEFj0spfJPlycB2ZYRNnXpeus/zYqHGBswka09k4pvtTJOB6/zBzjPEEwVBEEQoCgDSqZq7AHL8RDIDPWA+yB/qeklKQRiVDzEo0xr4J4B9bUryWa9efhDN/LBPrCsIgjB8ZOm5mDtbQlOeRh9VRPRIb0vtzlIKwqh8iMAa6b8AIWtDcgvMXNkxIhIFQRBEKAqr4K/rehFAvpaAJ5CGf/SlareRkhBGQ2XdvPcJmDPGZFZYZB09PvzR52JRQRAEEYrCtwuYOZa/p/OGJvjhzOW1U6UkhFGJxWWdlwF4bZRft5j55HF1C98QSwqCIIhQFFbX0Ya6HgbjuTxmYTLn+NFM89RaKQ1hpJCBHMj6JQBzxMMU4BJ/qOtesaIgCIIIRWFtna2OaJ6zsDnruaeycydvKaUhjBRf3cJ/g3HliBs3xmZiPUEQBBGKwjrwzup8hoAH8yxXAxZrTy2fW7O9lIgwYh/252YD+Hgk32HC6bLtQRAEQYSiMKyCpjCA/J76ZGyiW/TYitbJ35USEUY0zJixKM2g80f4tTIM8GyxniAIgghFYR1UBBe8S0S/d0FWNtJY+2e6dfLuUirCSPAHF/wNwIiCcMusoiAIgghFYZhUejeIAfy6C7IyAaw92puq+YmUijASTL0/COCLEXylDDluFMsJgiCIUBTWAc14ecCCfjryvQQ9yDgC3Z1prf0Ns9wQJAyP8TM/XUyE+pF8h4HT5dS9IAiCCEVhOOosOP81EDW4Rbsy8yWZ1sDt3L6ZT0pHGA7eus4bGHh4BF8ph8eUWUVBEITRdNRigtIknQzcCcKxLnLFNxg4wx9c8IqUTmGxvG2TDXWr7EBYtBcIU8DcSaCXGNajvtDCT1Q8M5sKbG4BbwIY7gCjnzTPlt5ZH3dKiQmCIIhQFNbB0tSUCRVsvQKCmzb65wBu9frMi2nGorSUknvh9s182XTZTy3wqQQcBEBf3ccAvEyg+0xLu29c/Txb98emW2vDYI4Pu7Ej/NFb1/krKT1BEAQRisIw6G2p3Zk0fgbDn5Vxio81wi8r6zofkVJyF+lUYG8GnwnQzwioGpG4BN7VwDcD+s3e4Pz5YxarBjyZCYEXwNh5mF/pg5Xb0le/qEtKUhAEQYSiMKyOv/YYgO90oy8w8CiIL/DXdb0oJZXHcohtNT5dnvk5gc8FaEebkn0ZjBtNs+zW8eGPPh9tIitapu6oaeZLADzDa/HoKl/dgvOkVAVBEEQoCsMVi62BOWC4dbM/A7jPIuu34+oWviGl5ZDRGZRtC+wNC6cxcDyA8Yoe1Q/gbwBu8nZrD5AxPzty/61pBtNwT0LLrKIgCIIIRWFEosCAlqkK3AvCkS7OpgXgDousy0QwqiPbVrOFadIpBJwCYHOHG6NuC3yXBv3Gyu75T5EBa1j+m9jYn9Er3hz2fluZVRQEQRChKIxQLCY29mc8FU8A+L7bs8rAIzqhuWJW56NEYCm9MYrD1qlbMZvHMHAMgF1c0S4w5hHhekC7fjj7GXtbag8njYd7n3kfdHOab+YnC6X0BUEQRCgKw2R5YouNdM/AswCmFYj7vkHELZXLxt9Gxtv9UoLDZ0Vqyk7E1k81wrEMbOfirFoAniTgukpf7q61nYZPpwL3Ajh6mEr0Sl+w63zxBEEQBBGKwggYik/3HICNCyjbywjoMMm6Upal1zIQSAa20wjHEXACgK0KLf8M9BBwrwbcUFHX+di3Z5OzqcDmFuFtMCqHkZzMKgqCIIhQFEbD0EnSRwFsUIDZf4YY11ZWZO6i8xavKOVy7E5OnlhG2oEEHMLAEQAmFdHrvU+M65hzN696MCWdDMRBCA9PefIVvlDXr6XGC4IgiFAUSkssAkAGoH8QcGemT39gYuPH3cVeZtw2rSI7MLCXpfEhBByMwf2GxX5NpwXgGSbckrOsOypJ39gEvzPM1i8Ly5qm6vYYQRAEEYpCcYvF1snf1Vh7rIDF4kr6wHiEiR/SLeuxyvpPPigKYcig3tTk7TWiQwg4mEH7w33B052kH8BCjOy09lxfsLNOarsgCIIIRWEULJ9bs71u0d9RXMuWXQw8phEeI43/VTmz66OCEIbtm/myGX1XWLQXE/YEaE+ANxQvHRNpi/TNx9XN+0xMIQiCIEJRGAWZ5qm17DH/DsbWRfqKywC8AsbLAL9iafyOf2DgIwp/1psfQbhLWbb/i8mmaX1HY9oRwHcJ+C4D22C4N5AIIyHuC3ZGxQyCIAgiFIVR0nPFpPU9A54HAd69hGrHp2B8yMCHABYQ0ReAtZhY/yzH1mLS9C/8feVpir6/fJ3ij0HdfwhMqDBpgpmjal2z1gdjU7Z4Q4A2ZcLGBKoFeAoGZ29FEDrHilyZOaXq/E++FFMIgiCIUBRGyVBQ7lsBHCXW+J+alAUjA6AXg3vlAKACgI8AjYFqMZKLfZv59/5Q10ViCUEQBBGKwpg6VFC6NXAxAReLNYSi8Wugpx9a7XrB+cvEGoIgCF+jiQmEEY0sCOwPdhpEOA1An1hEWAM5AHcw6HwA9wJIu3zEXFUJlpiKgiAI/9s+CsLoSKdq9wT4dgA1Yg1hiKVgXEu65wrvrI87V/6SjSmV6fF8oKbzUcw4wqU+86W33zt1OHtOBUEQRCgKwjAYuv3jzwB+LNYo6abkA2Zrrq8ie8NwbsTpbandmQYDgx/IwL5wS/xHQqOvrjMm5SkIgiBCUbAJZlCmNXA+gCaUdsDnEix6PAZQq697wd/IgDWqRIztyrMTevawmA4k4EAAuwMoz9M7fe715abSjEVpKV5BEAQRioKNZFOBzRm4ioFDxRpFTYaAm3Mazx0/q+st29VnYmN/r162rwbtQBB+AGAnOBsuKOgLdrZKMQuCIIhQFBTQmwwcRYQ/oLhucxGAD0G4NpfL/amqYdEXTj2UExv7s+UVOzNjb1jYB4R9AExQ2Cp+6rWszSm0MCNFLgiCCEVBUMCyqwLrlffhdwB+CaBMLFKwDIBxn0b4Y0Vd52NE4HxniA140lU1OxHRPmDsAw17g7GJrc8An+sPdv1Bil8QBBGKgqCQbMuk71ia/nsAx4k1CgdmvEMabrCgX1cI9yD3Xl6zGZm0csZxbwDfG2P79rG3u3MrMpATbxAEQYSiICgm01L7A9aty8C0h1jDtc3BYoBvsaBdNy44/7VCfpOe5s020D2ePWDx7iDaA8BuBFSNsHWc7qvrvEP8QhAEEYqC4BDZZM0PLaKLAOwj1sg/DPQQcC9bdJtv3AaP0IyXB4ryPQ1oK6oC23g02gPMewDYg4FtAOhr+dpLvmDn98VLBEEQoSgIDpNpqf2BpfFsAg4WP3Te/AAeAOg2bzc9RMb8bEmK5NhW47OVmd1g8R4M2h2E7397ryMx7+cNdT0tLiMIgghFQcgDfc1TtjZ183yATgUwXiyijKUAHgJwj7c88/fhBMUuRXovr9kMOW1njbAzw9oGFr3gC3XOFcsIgiBCURDyCLdNq8pYA6eC+VQAstxni1ExD+AHNaJ7K3wb/rNYl5UFQRAEEYpCCdHXPGXrnG6dQMBJAKaJRYbNl2D8CxqeYcKj/lmdL4tJBEEQBBGKQlHCDErPrdkVFo4mwlEA7ShW+Ubt/RSMZ0B4mk162rd8weujvUZPEARBEEQoCgVNpnlqraXljiDCQQDtB2CDEnp9k4B3LOYXNMIzxPxMZWjhh+IVgiAIgghFQfgWzKAVbTXb6awdAOZ9MLivcfMieT0LwEcAvQS2XiSdXqzs73uVwp/1SskLgiAIIhQFYRR0JydPrNC0XdjCLkz4HoAtCNiCgWqXZrmXGQs0jTqZ8Q6x9ZYFvOnzm+/QjEVpKVFBEARBhKIgKKanebMNPJq2OWu0CUAba0ybMFsbgWhjBtYjYAIGxWQVCNVgVI7iMX0AegEsI6CXiXth0RdM+ILAXwDaZwTrC4vpSyaty+RcZ3Vo4RIpHUEQBEGEYgFz2WVtG5aVmaM5RFHBbPm+YWwiYqYJq/zKsizt4cbGWZ1iaffABrTujQLVAFCetXwaaRXf/oylm/39Hr0XAKo/71wudwILgiCsm6am5Ha6TpvalZ7Hg7eDweB/xbLq8IgJ1uWEuSgz6u3Q4cwAwN/4nabl7gHwU7G0i0ZPBiygc+nQj0vFIoIgCPag64gy8yl2pdffj9MBXC+WVYcmJlgz7e3tZQBOUfsUOvyyy9o2FGsLgiAIxQ6z7SuZomNEKOaPZcvSRwHYSPFjysvKBk4RawuCIAglIBVtFYqaJjpGhGIeIeIznBlh0S+YWfaLCoIgCEXfs9rcg4qOEaGYH+Lx+CYADnPocVs3N7fuIVYXBEEQihuWpWcRikXiyqyfAQcP+1gWnyVWFwRBEIq7b7V3RtGySFbjRCjmByI61dnn4YS2trYqsbwgCIJQxH2rzCgWGBIeZzXE48l9AWzt8GP9fX0DxwO4RkpA+DaJRMLPrN9j47h+cSRSf6JYVhAEJ2Fmu6WiCEURinkZ85z57XiHzlQgOkuEorA6TNP0aJp+sI2+JgFqBUFwvnclIjv7V02TwyyqEQN/C8O4chwR/yxPj9+9qallRykFQX1jjXKxgiAIzrc9cphFhGKB4/P1n8CMcXkrEI3OkFIQHKBMTCAIgtNIwG0RisUw2sm3UDvZMIxKKQlBMTKjKAhCHvpYe4UisyY6RoSic8RirVsxY888Z2N9v7/qJ1IagmJkRlEQBMeRGUURioVtDM06CwC5oCJJTEVBNbphGFL/BUEocN0hh1lEKDqEYRgey8LJLsnOQfF4fAspFUElEydOlFlFQRAcRuIoilAsUPz+qiOIsKlbahLgOV1KRVDJkiW6CEVBEBxGTj2LUCxU12U602VZOqOjo0OXkhFUUVXVJwdaBEFwGhGKIhQLj0svbd0Y4B+5LFuTFiz45DApHUEVmYwmM4qCIDiK3YdZmGWPoghFBygr49PgwlOgzCyHWgRleDwiFAVBcBa7w+MouDtaEKG4Wkl2ukszdlQqldpUykdQgWWZsvQsCIKzva39M4oiFEUoqqWpqWUvANu4NHuegQGcIm4qqKCsTISiIAjOYveMIiABt0UoKnda1x1i+fZo6SwZMQkqyOVk6VkQBKf7XHv7M00THaMaTym/fCKR8DNjus3JfgJgko2jr+/EYi17A3hG3FWwt4ElEYqCIDgKc+nFUYzFkmcQUctarHIJEf7LTFet/I1pYtfZs4MfJxItM5i1OV//PrvF7Nmzl4pQdMxhteMAjLcxyaxl4VBNw6uw8XCMrmtnilAU7B/Zi1AUBMH5lgdgO3vyQphRrAB4vbX83WtZqCD6+jO6TrsD+JiZ9ln1uxUVFY6vMGql7a6azaeK6f7GxtDbAN1tr6DF9FgsNh6CYKtfWbJHURAEp1semw+zuF/H6Lr2DoCrh/59OqQXlq78nabRq6t8vG/ovXYb+vn7K3+XL0p2RrGlpeU7psl72ys8+cahDvgaIjrexqT9mlY2HcCfpJER7PNXmVEUBMH5psfm9FwvFBsa6p4C8BQAxOPJbQBsAvCiSCQ0Y+VnYrHkaUP/+yaAnYj4+01NTdUAtgTwIoDd85X/kp1RNE06w2aHXVxV5f87AGQyy58A0Glzls+EINg6EmeZURQEQYSiu+gF8C6AXTStbO/B9+MX8pmhkhSKhmF4ADrV3k4Xt86YMWNgKH0LwE02p79Xc3PzttLGCLa11gSZURQEocCFYjHezMIvAqgkojMG+3/tRRGKDuPzjT8M4M1sTvbGb/6oXwd7d+yCWTtd2hjBPn+SGUVBEApdKBafjmGmFwf/ix8DgK6bIhTz4Kdn2luo+CAaDb206u8ikVn/AfBvm59zant7u8wCCfbUAtmjKAiC8wNUm3VH8QXcJqKVS81lzPjvihXehSIUHaS5uXkDAEfY7PrXreH3N9ic/Y2XLUsfAUGwp8GWGUVBEJwWQTKjuA6qq31vAsgM2gvP5zs/JXfqmZlOBWBnB2kxe25e3R9Ms/82Xa9IAaiwr5LxWQDuKfXGpq2trSqTGdgW0LYEeBOANiPiDQCqAHj8YLlgBRGWAVjOzCs0DT3MWABo88rK8HEwGFxW4g12WZH6RkU6nfsOEW1BZE1gpnFEGEdEEwDAsqwsgIymYRlAy4m0/+g6/6fU/UEFiURiI6KyrS3LnAJomxBhIjOqhjrAHgAZZl4G8FJmLCsro5dDodAnpWyzjo4Ofd68eRsDngARJgE0GUA1EfkAHs/8Vb+dIaIsMy9jxmeaRl2WRV2ZzLIFhmFk3SwUmW2No1h0N5fNmDFjIB5Pvg5gD2Z+Md/5KUWheJrNSf6zsXHWak84z549e2k8nvw7MLjPwCYOi8Vim0Wj0UWlUF6GYWiVleN3IKKdNA3bWRa2J8K22WyudnBgurLB+fZ/B8O6rtI44eu2iTEwAMTjqaUAzwPoDQBPA9rTQ1sGSgLLKvzDLG1tbRV9febeloUDiXhngLbKZnNTNA36oC/QV36wsnNaOaGx0h+YLVgWEI8nFwN4h5mf1HX98RUrlj1vGEa/yL2RtK9MiURqP4B+DvBhzKhltjC4LY2xqj74plYYLKdcjs4HcGWptG1+/4Ttmc2dANoG4K0B2m7+/IVTico8q7Et1vQ7osH/J2L4fFWIx5PzAbwO4HUivKLreDoUCi1xi4/YnKJWYHXkYiJsYFl6zzfbY/qnrlvTibTFQ/VjFhHXejx4HlicBcZPB4CenuUrHBf3pTW6bd2d2Xre3kLHmdFo6C9r+ns83nI8QLfZ/CqzI5FQUxHPQmzP7Dkc4P0B7A2g2sHH/4eZ7ifie9LpnmeHTrDnnaampmpNK19ms++26bp1g2XppmmiB4AFZLuJyGpsbOx2q38kk8lJuRz9HOBDAOwLwKvoUcsAuo8IHb293Y+IaFyXYM+dzIwQgG3H4JMN0WiopcjbtsMA3g/45o0bqseFzHgdoCeI+B/V1f4nVkbpcN4GyWeZsZeNLdmfI5H6s6QWqqOkZhSZLbtjEWaY+9d6C0s6Pe5+v793BTPG2djBn8HMMSLi4igXpubm1j2YrZ8DdDQzam0+MD4StiTiEICQz1fVlUgkbyOy/tzQ0PDe2GcQ2n0+X++9bqmrRJhpWdpMgKHrK39bMTTASWJQOFI3wBaAboB4UDzx0H+JAXwSiQTPcGb2pfpAZpyTy/FPAHZiNnQCwKcy41Sfr2pZPJ7sINKuDIfr3nBDvZkzZ856ul7RYVObsiQaDR0/inLx+P1Vp2Wzud8CCNjgk/+zTeeyy65Y3+Ppv9Nm718ciQSnO1NOyWm6jhMAPp6Ztl/d6ocDaETYGeCdAYS6u3uXJBLJ+5n5zilTav42ffp0s1D7DyLS3ZCP5ubW/SzLumgEX8kClBnZu/KKXK6vXu56VjcL4c3lYHfD8Nd1zbwYxox0PN5yL0An2djBfyeRSO0D4OlCLpNUKjVhYADnJBKpGQA2d+EEdw0zwsxaQzyefIyIWsPh4IOjTWzixD5PNouDC6iItFVmPNb/346NMXQNlTLa29vLli3r/QURZjPz5DzaYgKAc5itc+Lx5JOWpTU1Ntb9I5+FY1necl23DrapTfl0pN+JxVp+QERXMmMbGweNld/+na73VgBlB9g8PFW+DzKRSB1gWdxAhMMBkMvat4nMOA2g0+bPX9gZjyfbicxrw+Hw5+onBuw9fMJMeTdsLNayh2VZDwAY4VW7IxosdJsmH+60SCwpoZjL8XHA4GZ2G7lxeI2wdiszn2Tvo+nMQhWKiUTCz6xfkMvxTMC+mVaVg1YABzPzwYlE8jlmNEYioachKCUebzmuu7v3UiJs6bKsHaBp1gHxePIVABdGIqG/l1K5tLW1VfX15a5gxsmwWf2sbkax8Nq35FHM+C0z70qFsbkrAOBSZv2CRCKVAHLN4XC4V3F7aqdUzOsexXg8tRPAD45cJI6IZUTaYY2Ndf/OxzuWUHgcsnt57NN0uufR4Xywqsr3MIAvba4cx7W1tVUVZiOqvw3gAjuX451iaG/NU/F4quOyy9o2FDlnP6lUatN4vOWvAHUArhOJq/I9AH+Lx5P3JxKJqaVQNrFYaptsNvc8M06BkikyKlih2NzcvEs8nnyCGfcB2LUAX8HPzIZl6f+JxVLHFI5QzJ+OaWpK7gDwowAmKjTXUk3TfhgO50ckloxQHGrE97dXMNBthmHkhvPZwU3DdKfdlTqbNacXShm0tLR8Jx5PPj7UiNYWvlfxcR5P7u1YLPUTkXZ21SmmeLzlVwMD/D5AhWTXI5n1txKJlhnF3Y4mjyLilwH7lppX0ylWFp54jo2PxZLXWpb2IoADCr2cibApEd8ViyVvVzMYtvfUs91L2SPp0zQNDwNYX+FjPrMs3r+hoU5uZlGNZXnOsn8Uw7eq/fyw0iyIk17xeOoc06RXAPygyFxrQyL+azzecoVhGJUQRk1zc/MGiUTqPoCugtolHFX4mOmPiUTL3+Px+CbFVj6xWOokZtwFdSfMV1JRWH7b+n2ispeJoKCPybtgnO7x5F5tamrZy/aUC1zHzJmTnGaa2hMAVNb1Ty0LBzU2ht7Mty8UvVA0DEMj4lNtdvSPIpHgiBR+OBx8CsACm19vj+bm5m1dbPvyRCL5Z4DbAfiL18voPJ+v6glZih7tQCK5v2VprwE4stDfhZkOBTwvxWLJ3YqlfBKJ5FlEfCOgPu7m6g6zuNdvW463LOtZuHt7xFiZpGn0RDyeOtutQlHTnNUxLS0tNbqORwDeTOFjOk0T+zY2ht52gxMUvVAcN676UAA19jZm1i0jDU0z+Hm+w+73syztTDfava2trcLnq7qfGWegNNhD13PPXHpp68Yi/UYiQlpmAngMwKRi6lyJ8GQsljqp0F8kFksdw4x2ODRbRlQYQjGRSJ4A0E1OiGcXUA7w1YlES8imHrRgZxSTyeSkoZnEKQofM9806QezZ4c+dIsDFL1QZOYz7U+Tbh+luRUsP+OU9vZ2VzVWhmFofX25WwD8sJREDxG+U1bGD8ZisfEQ1kpHR4ceiyXnMtNcAHoRvqKXiG9KJFIXFeoLxOPJfYn4FifLh9n9h1ni8eQPmXEzSisOMTFTy+AFEmMtY9i8R9GZU8+JRGKjXA4PA7yFOv/HB8yefWfPDn7spsIvaqF42WVXrM+Mo2xO9rXRTgdHIsFXALxrc3426unpddWSnc9XdTEzjkFJwrsQlf9JpOCaaW9vL5s/f+EdRJhZAgPV/0skknH7ry1Ty+DMON0Gh/cMuj08ztD+0+tRUhFDVi0funas252I7J6d1pSXRXNz8wbM2mMYw61Dw+A9YOAH0ejMhW4r96J29rKyvlPsb+hoTLOCzNxh93sywzXLz7FYy0EAflPaUoiPi8dT54gk/F86Ojr07u70zQB+WjLewAgnEsmCuXLTMAytrMy6RfEerDWJiEr3liMTs3471B5gcLsvj7Ms7Y5EIuEfQxnbfbBU6SCsqamp2rK0vwG0vcLHvJbLefaLRqOL3FjuRT4qotPtriemiTEJPcuimxS86I9aWlpq8m3tVCo1gYiuK9XR9jcbQ25pbm6uhfANAbJgwcK/AHxcCXpEpFAGD37/+JkADsyPEHHv0nM8njqViPaTmoxtmfXmMYjNggmP09bWVqVp5Q9DbVzMV3K58oMvuGDmYrcWeNF26M3Nrd9nxo72dv707OzZwfljSWNwgyq9bPPr6rkcTs63zQcGrP8DMBnCypH3H8USqwqQ6t8PBWouVa+4MpFIHejmHM6Zk9ocoEvyaCNXzijGYrHxRGiSWvwV58RiyVGKJ9v3FCrRMYbR7stmc/cBUBjBgF/0eHDIBRec/6WbC7tohaJl8RkK0rTlMAqz/TEViejsfO6DisfnbgnQr/JY5ObQvcMfr/LvCwCZPObpsEQi+WPpUwZPiTJzo9PPJcIKAP8GcBczriHCVQBuweBJ62UOZ8fDzLekUqlN3VhGhmFommb9JZ83Jrl1jyJR+QzkZ8n5cwBPMOM2AFcDHB/8L92BwStc8yUwNCJcaRiGNqpStjMjmv2HWQajdvTeBZsv6vgWTzPnDgqFQkvc3n4X5amtoeDHJ9icbE7TTJtuVxm4FSiL2yzUN29pmbsvgKfypNPOc8ifegC8AOAlIrwOaPOAgXlru8w+kUhsRFRWa1nmroC2P8AHQ200/VUGBYi1t7c/NHg7T2kSj6e+x8x/gjMhVjIAHgboIdPkxxsbgx+tKZTV4E0wrVsT8Y8B/BzAdx3I38YDA3xzR0fHIdOnTzfdVE4+X9UsAHldWmV23x5FwzDKAa5z6HFvEuHvRPSEpvG/hyMiLr20dePyct7VsnAgER/skB8DwG4+X/WZAK4dqVK012fsPcxiGEZ5Npu7E8BhCm33ZDpdcZRhhFYUQhtelELR660+FuD1bG7AHolE1ixGRkI0Gl0Ujyefhu3XClpn5kMoDjakOF3hI6zBETRfl073PG4YRv9IvjwkIj8H8CKAPxiGUen1Vh9HhFkA76LYPFt1d6fPAHD1kiVL0n5/9SGj9L/NhwKX28U7RDRr7D7HA2v3jXYfc++tRPAplhhvMVN7eTndFAwGl6387ezZobXMaxBjMArBuwCaEonUnpbFM4lwHNSGhPnBvHldEQBzXNRsVgH4vQvy4Tqh6PVWHwewsjifRFhhWXStptFfwuG6N0b6/QsvrPsMwIND/5BIJLa3LM9ZRHwWlN9yxL8xDOO64V5nq0Io2rmU3dHRoc+f/8lNACuLJMKMv5WV4VjDOC+DAqEohSIRKzgFTLfanMdbmclmoYjpqVSqbtWO0pGWvXLcbgCqFVWqV5n5jMbG0Os2CtssgBsNw7jZ7686gxkxKJ1h5KhhGH8eakwfHU0KTU3JHWwOArE8HA4+qto3/P7eBDO+o7C2v8xs/V8kErp/pEHw/3dAEfwXgH+1tLRcbJowADoBimZBiejiRCJxfzgcfsslzabPJflw3dKzplmnKNrVYwLcMjBQEbdzj9qQTwUTicQcZo8B8C+hbja/1u+vmo7B7Rz5wpZBXUdHhz5v3sJbhgaKqvhrJtNzQjQ6ssmOvNeBYhOJc+akpsD+i9mzzH332erZOt0BwG5n8Q4MYLrjtVQnRfs46Dqv17NnY2P96ypSNwzDCodDfzJN2hWAyvs0Nx9qTEc/ovNYdi9TKg+i3NTUeigzVO1bXQzwaeFw3fej0fr7xioSV6W+vv6DSKT+RAzO+KsKfFvBrP+lo6OjGIONp4n4H8zcyMw/BmhnInNj0+ybaJp9EyOREE2ZMtmz8mfT7Jvo8WCyadIWROaObnqReDy+CTMdrCDp5ZZlHRCJ1EdVHWQIh8OfRyLBc4nwUwDLVdnIstAw0obd3smEsc8orozIQKSy/6Tbq6v9x490RcwNFN2Moq7zGfYLYLq/sbGx284UQ6HQklgs+QgRjrA3r3wmgKudtDmztgPA9lqccH1DQ92ZdgqANTF7dnB+LBbbm6jsEQC7q2lMecYYR92WvWWmVigahlGu69YVdofCGOJJTbOOa2ho+CISqVf2DpFI6OnLLrtiN4+nvwNqwsXsOn9+1zkA/lAkze+/iHBFRYXnrpkzZ/at7YND+zOXrvKrpW58ISLPgWrqCp/Q2NjwjBPvEA6H7o3Hk0cAeBgKlvaJsHNzc+t+DQ11Tw2z7dHsPM5CNLbUmJkSidSVaiMy8K3pdM+pkUgwV4gVu6hmFIdOYJ1mf0XgW9XkmFSku3si0fpdZy3PU2xOcGFvb8X5TojElUSj0eWaZh3JjA/UdDi07+DJ8NEKzTLT3vyoFYo+X9V5zJimwJI3pNM9hzY0NHzhhF9ccMH5X6bTPSs7WRWe8X+pVGpCIbe7RPQMM+8ZiYT2CodDt6xLJBYSzLSPglTviUTqH3LyPSKR0NMAnacqfdO0jh1B2+Oqu54TiWQcwC8VetG16fTyk0e4j1OEoioqKyccAsDuIMc9vb09f1NifC13D4Beu9O1LD7NYdPbbHO+xTDOc/w02JD4OAWAitOoxGwePfqv91k250eZUJwzZ856ANl+xzEzOtLp7jOcXroxDCPr8eAnzKzioNgGuRxmoTBZAtCJ4XBw32i0/nkUJbyVgqagPR9vEokE/wzgr2oGC8O/KtdNQjEeT84BqEGh2f+YTi+fYRiGVci1oKiEoqbZHzsR4DuHDj/YTjgc7gXoAfsrLZ/W1tbm5KbwKptnKPLW6USjoRcAXKGoMR31XifTLCuYPYq6XvkLu6MOAHjS6/Wcmq8GNxQKZXSdj4WCPYvM/MuhyAGFxBPMnh0jkeCtKG7sjp1opdM9T+brZUyTQgBUzPhOHe5KFjO5QijG48lLAKiM7doSDgfPLXSRWFRCMZlMTgT4Jwoa8dtU5lvRsvb62ezAkQ6av9Jem2h5vRQ9lyu/BEC3gqRHffq3vLwwDrMYhuEB2O4lrk8HBrQT8r2k2dDQ8IVl4WjYH8R9k8EQLIUCX1td7T80Gp25EMXPhjant0TVxMNwGLxZjO9WJEOHuY/X9iPkI04vFkvWA/iNun6dYpFIqMHJ7VMiFIfVudNJsD+0wmdTpwYeV5nvigrP34duFLHbVc90wu5DM5c2+1EuryOwCy44/0siTihIeuIYGp6CWHr2eqt/AiBgY5IWgNOGYsXlncbG0NtE9t8wQ8QzC6GdJSIjEqn/RSkHkB8jfheU4X0q0rUsGu5BwLzOKMbjyVlEaFZo31g4HGwsJqctoqVn+2MnMuN21bcnzJw5s49ZyQjvsJaWlhrVVl+yZInt9rEsmpZ/f7JaAXya75Hv1wOhnN12VhTxgE+3Ob3rIpHQw3ARDQ2hy4nwnM3J7pZItO4OF0OEK8Lh4O9KSdUxw+4DCN6hEG55fKfck7A7TMWgf7heKCYSybMApBSa96JiE4kKOwtnicdT3wN4JwVVyqH9N3wrQGfZXXlMk04BcJnKnBuGkYvHkzk7fYmZTgNwez59KhwO98ZiqQM1DXbeyDDqToeILLa3abd9RjGRSGzEjENtTHI5YF7oPsFE3NTUHNU07Wl7O3A+F4P3UrtRML1aXe0PocQgQg8AW+/m1nX8DFA3o7UuIpHIp4lE6kAV/T8z0zCWW/MiFOPxltOZcTXUBB9nIg6Fw/WtxVgPPMVRmfkMtn8nwMeRSOjf0Wi98vxnMsuf8PmqPgFg9zVRZzPzHNX7JIiQZcY4G9P7USyW+lk0Grwzn34VjQZXXu+WdwYGvKbHY+thXwVLz9oJNrcpzZFI5FO4kMbGhmfi8eTfYet9sPxTw2j/lWHMSLvsdXPMOK1El5u7ANh88pnDTU1N19gdm3dkA+Hgk4rSHVYT77RQjMdbjgPoWqhZRWVmzIxE6q8o1kpQ8EvPhmFUMuNEBUnf5tRG1KFTUSpE0dTm5tb9Veef2f6DH0S4uqkpuR0EAIDXO+D6wyzMdIKNyaVzufIrXV4sdi9hjff7e49220sy46rGxtCbpVjvmLFAQbIb6XrZ7e3t7WUl2pw5etdzLJY6BqBb1AyOYTLjrGg0dEUxF1jBC0W/v+onGMMhgTULFdPRsA9EmpLnMeMMB7L/HwU5X0/T6OF4PLWTyERA13VXH2aJx+ObwNZbbeh6VVeb2UU4HHwENs84M/PxLuvTl5aV4XelWu+I6FU17TId2t3d+9ill7ZuXIJmtfvmNG3N7VLyMCK+BWpWT01mOiMaDf1FCsz9Iz4VQuiNoYvVHex06v6tSHAd58DNDx8oKt3NiPjpWKxltmFcOQ4lTF9fn8tnFMuOtrM9YeY/F4CIYGa+0eZUf2gY7T4XtbCXh0KhJaVa7zTNVBnTdd+yMusFtx9iUlFznNAxsVjzIRgMMK4ipnA/wMdHo8EbS6IeFHLmY7G2yQAOUpB0XoLIMlOHgmS9uZyleJaC/q3OJhhHRJf5fH0fx2Kp34/lGrxCxu4ZRbuv8GNmO5dM34tGQy8VQrlYlnY77D1B6vP5VhzgktdL53KeK1DCrFix4nU14cu+IsBsPRuPJ5OlMhhmtjeOIvP/6pimpuZ9iLS/QsHd1gD6men4SKT+rpIZMBX4aO8s2L/vgInMfJ24vVmRAFUaUzGX0++HmmvvVmVDIr4QMN9PJFJPx2LJX6ZSqU1LpaL29PSY9vqEffXGMAwPEfazMXv3FEq5zJ4d/BjA+zYnu79LXu+aCy6YubiUheLQ/bz3qx4HAgh6vX0fxGKplubm1u8bhqEVq03tvsJP076pYxKJ1J6apj0ENTEr0wCOikaD95RSPShYZ2RmYsYpCpz4X+FweF4+3mnolO0bCpLebbjXK42Goc7kSafaGWbehwh/GBjghfF48vl4PNmYSCS2L+aKuu2227p26dnvr/4+gPE21u2HC6x4bL4DmnZzwTsNaJqVggAivtOZ52BTIg5ZlvWCz1f133i85aZEouXkIhwQK5tRbGlp2ZkZD9rZHq1CLzMf7ba4rk5QsOFx4vHkgUS0hQIJenueX+1WALaLOmbrdADK4qBpGrVYFh/ksK00DB6g2J1ZnxOPJz8D+HEiegwwH8+X4FfBcccdZyUStvbbun2+xfvb66sDrxSYkHjF5tW0XYYZj07lULyjoaFhAQTU1k5+aP78hR8D2NzBx24E0EnMOGlggBGLJf9LRM8AeNSy+NnGxtDbUjLf6AcQj6d2Mk08puCe+ZU8H43WP1ayBi7MUZ6SQyyWZeXyGrvPsvRboCBqPoBTh67bU0JDQ/BvAL+YZ7fYGKCfM+NaZv3jWCy5KB5PdcTjqXMKPdTOkGiw0y90G/cK7W1jvnryGV9ulM2o3UvP45PJ5OT8+pt2neiPQYZu57oiv+WBTQE+DuB2TcNbX7dtyVnNzc27FNhStd151WKx1q0A/rtCkQgAB8XjLaeXYh0oyBnFpqamaoB+qiDpJ6PR6KJ8vltj46zORCL5L2bsZXPS62ezA0cCULYBV9O0iy2LH3LRYGKoccVxmgbE48kuIjzJTE8CA/+MRCIfFZjrm3bW2TvuuEODPXtLd7Sx1MwCKxN4PHh/wOZQ1LkcpmEw2HM++KK3t/txCF+RTvvbfb7eEIDJbsjPqm2bZWnw+aq+iMdbngHoKWY8ncn0vDa0v7IUmEBkPTk4UaDc8qlkMvlIKBT6pJT8vyBnFDWt7EQAPvsrH9/mhvezLCiKqWj7NYHfYGhW8R4Xu07N4L5W/hPg+TAeT3bF48kb4/HU2XPmJKcVgOvbevL5nXfeGfPy81DopckoYYLB4H8BLLO3jcN38vU+zHh06BIAYQjDmJEmQtTFWdwAoJ8ASBLhRZ+vakk8nvxHPJ78TTye3Ndlwb3t1h1VADZxSpTmcri61Py/QPcoKjnFOzAwUHG3G97OND23ezy5lN3lQ4RDW1paaurr65XNVHg8dH4uh30GGy7XMxnAyQCfrOtAIpH80LLoAU3Dg7293U8ZhtHvsvzaOttWVVWlj73S8A6wdXM6j4vHk48UYKNka0fMTIH8DcT5XyINVzsQvjUeT51IhCMKILvjAfxw6B96enpXxOPJJwB6RNPMRxoaGt7LZwde4K5weDzecnokUn+dCEWXkkgktmfGrgpG0Q+75SaICy6YuTgeTz6+spLb2QdYFk4FcKmqvIdCoU/i8ZbTALofBTZjzYxpRFzHjDqfr6onkUg+bFl4wDQ9D7kkTIitszw9PRVjFopE+I7N96yXATi41EXJ4NJivuoBvS6ycHVlQnzZZVec5vH0vwqgpsDatnEAjgL4KMvSEI8nuwB6SNNw74oV3U8YhpF11LvBhe4NrS0tLY+pnHRxEwW39GxZHiXLp5rmjmXnVaq2suVnuwOefptIpP4hKDxh7RBVzPgZEa7zeHKfxuPJf8XjyQvmzEltnsc82TqjWFm53IaTz1TSy87q2jnHltJWQ+59KYE1DeLP/5JIOxLAFwX+KjUAz7Asfsjvr1qcSCTviMVSp7S1tVU50LdREbhCtWnSH0vF7wtqRtEwjHIiPknRCOFX8XjyNBe9rl9RulPj8eQBAJ5QKxZDcxOJ1ARmNopkQLUHgD10nX8fjyefI+IbTXPgNmdP6JJp50i8vLx8zEKRGSUT9NzR+QqijfL06IF0Ov25lMCaCYfr3mhqajlY0+hRFMYWm3XV4XEAfkbEP8tmc+l4PHk3EV3f29v9uKK9qlQkrnB4LJY8LRoNXS9C0UV4vdVHA7yhosqyF0oETaMzVAvFwQY1+LtEomUpM6VQBPeKr9LI7c1Me+t6eXM83nI9s355NFrnwCwM29poZ7MeG2YUeZJIByVlna/7nhfJQZZ109hY/3pLS8v3TJPuAfC9Ino1H4CTmflkn6/q3Xi8pSmdXn6TzT5RLEIRRJjb0tLyeLEvQWuFVSh8BgQ7RPHPhk6rOjD6rm9j5oMBfFqEdhwH0HlE1rvxeKqjpaVF9UlVW8NdeL2mZ+w24CqpUco67HzwpZh+eNTX13el0xX7A3RHkb7iNgBd7/NVvxCLJe08F0BFZKOSWIIuGKGYTCYnAThUmid7NEJ/P5/g1MOi0fonPB7sCuCBIrUnAXycadLb8Xiy1TDaVXXytu4A7+/XbTjMQuVSndTU0Tw9d7mYfvgYxnkrIpHgdICnA1hSpFMLuxDh3/F4st0wrhw39jajqIQiMLQELULRBeRyOA02XjtW6hDxmU4+LxQKfRKJhI4C+AQAnUVqVg+AWT5f+g2bR+ArsfUwi67321GfKqU2qRp8iFAsFCKR+jt0nXdixm0o/CO9a9IK5/h8fS/EYqltxiQ7ueiE4sol6Jpi9e+CEIqD955Clp3tde3vNzW17Oj0UyOR+tsrKz3fIeJ6FOFy9JDHbkGEJ2OxlqPdLBQHBnQ7hGKZ1KUi8lzGCrHC6Kivr++KRkM/Z8YeGFw9MYvwNbfRNH4hkUiOZUVKK0K7FPUSdEEUWCKR2o8Z0yDYPArSTs/Hc2fOnNkXDtcnKys9U4hwNjNeLULz+ono7kQiOd2tQrG83LLjMFtGalJRITOKYyQaDb0QiYSOYh4IMPMFAN4tssHEOGbcEosl60fb9RRp0RftEnRBCEWZTVRlVz6lra2tIl/PHxSMoT9Fo6Hv6TpvBeAiAC/A5sDSeURnxo3xePIwm0rMVrswsx31X2agiqpNkPK0TzBGF0Wj9XMikdC2mmZtA2D2UPvGReEqhOZYrMUosHwvA/gthfWndeg8hQhFJxnaPHusNDtKWD+TMY9yQ0bq6+s/iERCv49EQrtrmrUxEU4CcBNAiwrcxuUA7kwkEtvbIO1sFYq5nGbH0rMIi+JCZhQV0NDQ8F4kEmqKREK7M3sCRHwOgLtg8x3heVCLF8fjqbNH+rU8DYL+ksuVT2PO7QVgoaLHTBgYQHux+a/r4yj6/dmfM9M4CIrgMwHc6bJG9QsAtwz9w5w5qc113doHoL0BHAJgaoEZ2c+s393U1PT9MQbotvkwix1CkbuLdyWpBFsD2aOonGh05kIA1wC4pqOjQ//4467dNY0OHWrbdkXB7fvlK+Px1LuRSPDZYX7B6QmqPgDRcDg0d+UvEonUL5lZSRQOIhxRbIG4XS8UmUmWndWOsg5tapobaGyc5dqTyLNnBz8G8DGAG1YKR03j/YnoAID3B1BbAKbeUtPKrwBwyhjSsHVGUdNMO8LjLLL5rufniegiqZfUn6dH90qr6BzTp083ATw39O9iw2j3VVYu/x4R7U1EBwPYB+6PLFAO8M2xWGyHaDQ6nBlpctifj4lEQg+v+stwOPhgPN5yD0A/UdSvzo3F2h4bGhSIUFRJLNa6FWDtIc2JUjRNM08F8PtCyfAqwvEvQ8Jxiqbx/pqGHzDjABcLx5NisZY/R6P1o70Vx9YZRWbdhoDb1GXzlqvycDj4qFTLfDUG6BMr5A/DmJEG8MzQv1gymfTmctiNiPZjxr5EvOfQlXtuo1bTyi4D8GsXCcVllsVHNDbWP7e6P5aVaecODPABACYoeHY1kPsjgCOLol1w96jaPBuyruUEZxqGUbAhC2bPDs6PRkPXh8Oh0yOR0BQic3NmnEmEGwF0ucqliZJj+L6tQtE0TTvuerbbvrVSHfMHMw+IFdxDKBTKRCKhf4bDwUsikeAPe3t71tM0bTcAIYDvAbDYPb6Dc/MRcm0NfGFZfMCaRCIABIPB/zJD2erFyiXoYvBD184oGobhAehkaSocYarXO35/OHD/sxOEw+F5AObhqxnH5DRdpwMA6wBA+wHAm+UxezslEqkDwuHgk6P4rq1Lz0SaDUKRPyJ7h3LrG8aV4wzjPNkrl5+RTL9Ywb0YhpED8OLQvxQzUzzeujUR9gV4XwAHA9gkT9nTiOhSrHsWTfWkxGLLwkGNjfVvruuDmUzPVX5/1c+ZsZcisVgUS9CuFYpeb/WRAG8iTYNjHcSZxSIUv83s2aEPAXwI4FoAaGlp2dmycDgzHQXg+3B4Zp2ZzwcwCqHIpp0T7JpGYxaK2WzP+z5fVc7OtsTr7a9BkcWeKxRkRrHg2m0eqivvAriamSmRaN0RwA8BPhTA3gAqnMsPjmhubt6loaHh5bV9TGEWPrcsHNzYGHpzOB82DMNqakr+UtPwMtQcIiqKJWjNvRVAYic6zLGpVGpCKbxofX39q+Fw/aWRSGiPgQFtM4BmYjC+mVMcNrr4lfbGUbRj6dkwjH4AH9naKGkswfXzJhQhQrHAhWMkEnwtEgnGI5HQQUTm+kT4iZOTAJaVtwOonxGZBw1XJK6ksTH05hi3BK1TPBf6ErQrheKll7ZuDPCPpNo7ire/n08otZe+8MK6zyKR4OWRSGh3XefvMeNvDjzWn8kM7DOKBsfWPYqaptl1d/o7NouV7aQ65k1oyNJzEREOh3vD4dC9kUjoQICPAjDfAS86nplp9XWbVc0mfmZZOCgcDo8qmLau8+8A+khdvcLcWKxtcqH6kSuXnj0e61SomQb+EvjGdXFZgDJrcOhlRKs7zsl9RFp69SMpqxur2UemaVjGrH07LQuwulffUFPvajrPjKaZWUDfyLL4QSiYvifCWQCK9r7KdVFfX/8qgMObm1v3sywrBkDZiXtN0/YC8NgIS8iy84SxaZJdQvEVAD+1USjuCCEvyNJz8RKJ1D/Q1tb2VDY7cBVAJyl81AaJRGJzrGal4Xe/+x35fFV2P2+5rvN+kUj9B6NNIBQKZWKx5l8RaQ8rskk1Ue4PAI4qRN9xpVBUuOzcFomE/q/QK3w8nnwRwG4Kkt61qallx8bG+tdLuUFtaKh7yjCMvf3+8XXM1KRm0MJbjKITt3lG0bRLKNq9bL+/dOv5Qdd1EYpFzMyZM3sAnByLJV8lQhyKVhWZy3ZcnVDcdtttaf582891LK6vH71IXEk02vBIPN5ys0IRfWShBuJ23dJzPJ7aG8A2ahpBvq1I6vstyhxCkwDnwOAm53C4PsnMP4OSu1lpi1F8yeY4ivYMFD0evGSnjYiwaXNz89bihc4jM4qlQTQaaiHic9X1I1Zgdb9/5513XB3uTtO4DgpDDhXqErTrhCIzqxIq/7Zj1OEGiMxbAeQUJX/y6A5aFGuDWn8fM+5Q4OcbjOJrNt/MYs/ScygUWsKM/9iZN9PUjhLvy0vbInsUS4RwuL4dQEpNP45JhaI5VqWhoeELZkQVPmLlKeiCwlVLz4lEws+M6YqawJuLp4KHP4/HU08AfIiC5NfPZgeOBtYujuLx1PcAjtn43McikVCTG+3NzHOJyG6/9I28E2fTzr3glmXbHkUQ4XEA37ExvWMBJAqlTsbjyWbAlr2V3ZFI6Gf583VPyc8oxmKpbYi4zV4BjlfD4VDEbe+aTlf81ufrP97u2LLMtN7qfj9x4kTKZnOuLv9IJHhdIpE6BcAP1AzGcEQ83nJqJFJ/gwjFUXVc+nQijFeQdG5ggDqKqTFj5luJcIia1OnMdQlFy+I+TcPBNj50n1QqdX0wGPyv22ydzS5/3uerWgxgQxuT9Y5C2Fl2BrcmsnQbPfJRgH5po312a25u3rqhoeE9t9fFpqbWQwGr3qbk8nrThmXJ0rNpln3u8fQfbK9dsR0A1wlFwzhvRTyevBVAvZ3pEq0+duOSJUtUHGaxWcgRx+NzZwDmG1B2zza1xWJtjxdKIG7NXQWk7BDLoxdeWPdZMTVmXq/nLgAZRcn/sKlpbmDt4qligc3PrBwY4JlutLVhGBZAj9vs7Z5R1A/T3vpm34yiafY/Dtgag4+YtV+7vR62t7eXaZpl5/JdJp/vQzRQ8kvPF1xw/pcAPre5b9t0MOybK6cdHlfgSasVilVVVQVxJW8kMus/RHSZwkesPAVdELhGKMbjc7cEsI+KtIm4aJadVzJz5sweIjyoyi903TptXSNRAEtsfu65Lg76/bTN6Y1CENgbcNvOpefZs2cvBcjWGJTMOCORSEx1cz3s6VlxHuw9fPdRPt9H0zR3rws6xzt2J1hWZu7ixhfVdahYxcmsvr74qVAcoLe3O6bCD1bhyEQieaIIxZHNSZwJNVf7pHt7K+8pxpbMsuhWZWNM5jMMw1iXf3Ta/NiqXM46z5VjbsYn+ReKbPOMop1LzwBg2b3nxsvsaXVr/UskEhsx08U217un8toKm6acegZAhLfsT1Vz5TVu/f20XEHvtNo0/f6eghGKhmH0M/NZsPkQ4bf6lbZ4PO76q4o1lxSIB6BTFRXFvUOzX0WH16s/CGCZouSn+v3VB6zjMx/ZX3FolmFcOc59HYdl80wLp0fT+tpc/W3do1xZWfYAbN9jx0fH4y2nu3PwoM0BMMHOND0e3JvXDkFmFFcOwp9X4DHHNzU1VbvtXcvKLAV50lY7idDb66NC8oNotP55ANcqfMT6QFm7CMVh4PONP8zuU1dfd/Ba0S07r2TmzJl9AN+triO0zlz731nBqBsb+nx9IRdWFbvj+i0YeXnA1TOKM2fO7GPmq+yvw3S52+IqJhKpgwHbY46+NnQ7UN7I5XIyowhA03LPKUh2oqaVN7hwwDPZ/jSt91Y/ubGCCs0XLKs/AtAihSVwdCKRnO7q+uCGTBApC/K8pLe3+5FibtCY1QXfBujYOXPmrLcW93lN0YPrL7usbUP32JgJsE6zN036YOT1xN6lZzv3KK7ENMuuhM0HMpgxzrK0+5LJ5EQ3+EMsFhvPzNfA9q0ydHn+BZLMKAJAOByex6xk7144kWj9rruEEB1gf5vpeW31QtFbcEKxsbGxG7CUTl4w40r3HnZygVC87LIr1mfGEWoEKG4zDKOoT/FlMsufAGzfP7eSSl0vP2EtouBpqNm/UVVWlmtxi40TidYzANreZt98dzRtus0DNNuF4gUXzFwMQMUVVVsODPBfDaPdl09fMAxDIyq7EcAUm1urRel09y359vWysjIRil/ztII0K5itm9ra2lwRIyaRSPiJ+Oc2Jzu/sXHWapee0+k0FaIjRCL1tzMrOzwKABt4PFabW98/70KxrKzvNABKbgIxTS7aZedVOi6LmW5X9wQ6c82i4PwvmaHkXmhmnBKPp87Mt32bmpLbAWx3BWbLGs3l85ppczZ+bBhGpf1l57kUQNb+gR/t5/P13p9PsejzjY8B+LH9NuM5hmFk8+3vPT09svT8tb/doyjpHbLZ3N1uuAGLWf8NAJtnsmiNB7IqKiqoUP2BWT+XCCvU+Rumx2Kpn7nx3bX8G59OU5T0gmg09K9SaNB03VQ5E7FrPJ7aaS0leJ9C77giHm85Nl92jcfjW2ga/gbAb3OT8MqaRtzrwO7Z24N8vqp7k8mk185Eo9GZC5npKkXFcqDX2/uM02FzDMPQ4vFkK0Aq9pgt8Ho917ihLbn44otNCEN9U/8DKgY8K+teNpt7JJ9bbIZCsyi4rs5aY5+QzWYLVig2Ns7qtCwYagcn/IdEIrGRCMVViMWSuwH4rppKTjcREZdCg9bQ0PAylMZ74tPX6ECadafCV/MC1BGPJy8YPBnvpG+2/AAoewpAjf2+ybeP8nsqOvEf5nJ0r91LYbpuzgHQrWjkvTOz5+VYLHWKE75w6aWtG/t8VXcDmKWorWoYPJiWd3Kl0mYOb8ATXQ7Qwwofsa/Hk3sxHk/u7+R7dXR06IlE6iJm3Aj7Q9Kliay/r+mPhTyjCABTp05uBfCKwkdswKyn3PbeeRWKRKRsaVHxLJvrIKLbFCZ/8pqWScLh8FsAXlLso5f6fONfTSRSB6q2YzKZnBSPp64iokcVncRfXl5O14yujKFotocPyWZzz8fjqb1tHLx8AdCFCgcv6xHxDbFY8iFVJ6KTyaQ3Fkv+sqzMegcKlpuHeCwaDd7pkmZE9if+j4hXst92VWoBPB6LJec6cdlAU1PLXvPnL3yBmf9PTf9Pd4bD4d41/TWbLS9ooTh9+nSTGTMAqJx5PzEWSx3jpvfO213PyWTSm8vx8Yoq96sNDQ3voIRgHrgF8PwOaoKWr9/Xl/sxgI7VCxiey0w3KpbC2zPzY4lE6hlmqy2dXv5XwzBs6dg6Ojr0efM6D9Q07ZRcDscBXKmunOhPwWBw2Si/bik08DYAP5NIJF9nxr+Y8SERLwRgMWumpqFntRmyTIpGG1YbWSCd7v6Dz1d1CoDd1Q2Q8CPL0g6Jx1uu0zRuGevd0IZhlPv91ftYFo7K5fhUIqg8aZ1h1twUYF72J36LqVMn3Tt//sL/ANhS5WCYCDMHBvjEWCwZLy+na8bQRvwP7e3tZT09vYcxYyaAg1XaS9PoirX9vbw8S5alFbRPRKOhl2Kx1OVEXKeuXeMrk8nkk6FQaIkb3jlvQnFggH5GxKpGUEV/iOXbRCKRj+Lx5AvqOmU+c01Csbd3+W1+f1UDM3ZUL4h5H4D28fmqvojHkw8D/A/Lwuu6bn24tpHs10LgynGVlX1TiWgrTcM2zLzX/PkL9ybSxrP6Rbc0oLeMvvGApTqPQ2W4IxG+GnMQMdb0XCJ9KbB6MWUYhtXUlDxL0/ACAJUHUDwAnW1ZdFYikXqWmR8H8C9A/yidXtq1ukMihmF4KivX2wwYCBBpWwD0XSLeiQi7MfM4cmDeg4h/E4nUve+eVoRkRnE1M0iJRMv/qR8IAwA2IEJ8YICNeDz51NAtPW8D+vuWlfm8sbFx2dq2BjAzpVKp9fr7MUnXsbll8bZEtHt3d+8+ANZ3IP9/bWioe3FtH+jvLyePp/DdLJPxXejz9f4YgKq90pvkcpQCcJob3jdvQpGIVcVOtADP7ShBiPgWZlIiFJnpkKamuYHVHcIwDCPX1NRyrqbR03BuO8MGAE4E6ERNA5h1xOOpRQBnAVoKMAMru3v2ARg/+J2+odnCNYsfhcSi0ZkLxyCSTTUTxupobAy9nUi0zHCoo6XBgcTKO+NN+HxViMdTS4csuAKDB5MqB4WruYq78kqh7AjM/FQ6vbzVXaXFIhRXPxC+xeermgVgV4ce6QNwGBEdtrJL0/UKJBIpJBLJFcxYAWA5Bg/a+AFUA/AlEikvAAy2hwCRo23FcmbPzHV9qKysj5j1gvcJw5iRbm5OnWdZ/JDC+nhqLJb6azQavCff75uXOeChE4uqNvA+OZbOuLCxboO6fUaarq856HRjY/1zAJry3NFtBmBzgHcZbNR5l6H/3wbA5CGBkC8+9niQGNtAgLKF6JXhcP1NRLgij36x3uA/1GBw9tOXZ5N8BuR+bhiG5aZyYpY9iqsXBYZlWXw2XLA0z4xxADbB4FL4DoPtHdYH4M1vvui84fS7zKwVi180NAT/BuAuxZa9au2XXhSxULQs7Qx1z6aSW3b+ukMOf07EjymcBTnTMIw1lls63XMxEZ6D8G1ylsWnhEKhzBjrzZ9QoAcOent7ggDuF1dAjpl/Ho1GF7ktY0SyR3EtA+HXmSkullit5/whGg0Oa8WgrKyMiqw6nw9gmcI6uamulzeXnFAcvNlAWezEbFkZ7i7lKqv2Sj9M8furD1hL2eaYc8cC6JLG8xtcPDTjOiai0br3Ab6uEA1gGEbO48HxJT6QYIBmRKP1T7i115OqumYymW4Dam5rKWSerKzUg8P9cH9/f1EJxUgk8ikzLlT7FDqzuTn1o5ISij5f1Q8BBBQl/6Cdp8UKcmxH1l0AelWlz8xnravi6Dr/GIN7aGSsTbgzne5pss/+uYsBpAvRFqFQKENk/ZhIzW0+7h/E8exIJPhnFw8yRSiuY7BTVkbHy0D4K960rP6fjCQGaPHNKAKZTM8fVQ+ALYuvcSJ8kmuEIjNUHWIBEW4u9Zo7ePKXHlD4iGPWtWeivr7+VYB+pFKwFgj/7O3tOcXOvWhDS5ZthWqQhoaGL3K5vh8A/GIJ+YHJjF9Fo/Uxlw9qZOl5HQSDwf8SmYdD4XJjgfBuWRkd2tjYOKKg+gMDnqITioZhWKaJX0LtHtZJAwM8pySEYjKZnEikLHBtd29vz9+kKQOIlN5xXalpFeu8RD4SCT7LbP1U5d2YLudJy+r/sYr7e9Np/yUAPi5Uw8yePXupx0OHAXihBPygB+Cjo9HQH93fbsiM4jAH428x49DSFYv81sCA9oNgMPjfkX7T4xmgYrRIY2PoTSJSvZfwnHg8uW/RC0XT5JMBKLoIne9Q0SkXIlVV/r8D+FJdhzK8G3Wi0YZHmGl/Zvy3tEqAb62s9Bw20tH28EewM9JEpPp2AKWEQqEl6XTP/sy4rYgd4RXTxC6RSP1DBeG1LHEUh0s0GnpB06yDAXxaYq9+r2UN7HPhhXWfjebLxTijuBJd50uI8KFKvcaMaw3DcDx6h6NCkZkULjtrJb/svJIZM2YMAKTwWjDeJR5P7TScT0YiwVc0zdwJwGMlYPoegGaEw6GTVN/dGw4HH2XmCwvZWIZhZDOZnpOY+RIU10EKJsIVlZWevWbPDn1YQNmWpecR0NDQ8LJl6bsDeK0EXncAwOxwOPjTsQyAi3VGcWjwmwHoF1gZlFWJzsF3fL6q2UUrFFtaWnYGsJOi5Bf29nY/JU3XNxp9xcLZGvY93eFw+PN0uucwIvotBoPEFiF0h67z9pFI8Oq13Z5gJ5FIKA7w5QUuFq1otP63zNgbwLtF4AjziOiH4XDo16oHC/Z3QjKjOFIaG2d1ptM9ezKjTaVAyDOvEGm7RiKhprG2bQMDOhWzP4TDwSeh/ma4xqam5HZFKRRNU+khllvdFrzWBQ77DID5CruVk0YyBW4YRi4cDl6i67wjgCeLyNSvATggEglOr6+vd/Q0JBFxOByahcFA5wXdSUWjoRfS6Z7vMfMFKMwT8zlmak2n/duHw8FHC3JoyXIzyygHO9loNDSLSNsTxbXvtgegaDrds3s4XPeGHQl6PDkqdn/I5crrACxW+IhyTcOfOjo6HLviRnOoIpUD9HNV6Zsmy7LzakQEoHT/10Sfb/yIDybV19d/EA4HD2TGmQA+L2ATvwPw9HA4+L1IJPTPfJZzJBKaTURHAXiz8Dvc+jkDA9qWAK4GCuYU7kOaZu0YjQaDhjEjXcCthiw9j2lwXvfvcDi4BxGOBvBSAb+KRYQbgdxWkUgwbhiGbQOIXM5T9ELxggvO/5IZUcWP2X3evIW/Kiqh6PONPwqDd/Oq4O3GxvqSjMu2bhFhKhbQ2lmjFTfRaOgvHg+mMOPXABYUkFn/BfD0dLpnh0ik/g6nlpnX3UkFH4xEQt+1LGtfAA8Ust9eeGHdZ5FIaIamWVsCfCXcu13hX0R0SCQSOqKhoeGdQm8vZEbRnoFbOBy6PxwO7gbwEQAeRuHM9vcBfK2u8zbhcOjUSCRi+0EdXR+gUvCDSCR4HRTvyydC09B1yMrxONMA0RmjuJ88C9DQlWfcC6B/MC10E5EFWBZA3QDdKs3TmsRD+K14PPkGgO8qKtmDU6nUpqMJkwCs3PyLK9rb29u7u1f8HKB6dXkdi//iv0R8NzPdEI2GXL201NjY8AyAZ+Lx+BbMnmOIcAyA3QGQMusooqGhYQGA8y+9tPUSj8c8U9PoTGZMc4GgekrTtEsKdYl5LR2PCEUbBSOAhwA8FIultiHiXwA4EcDGLszty8x8OzBws+qrJU3TQ7peGuXf0tJyrmnS6wBUnVL2M3taAWUhB50VippGzQBamZHRNDM7ZMjl/f3aUMOUXTr4OS0XjUblRg9bbW8djRHM5jLr5QD8a/67td4qHeay7u4Vn401j4OntHEDgBsGT1NbJwF0FICt8mS2ZQBeBvhlgB7KZHqeLrQ9sJFI5CMACQCJSy9t3biszNoRwDYAtmXmrYloQwDrAZiwjoZsGQZDgCwmwmeWhUWaxh8B2kdE5kfl5eXzVL/LUCiOOczclEik9gFwODMOJcJO6gTwanlU07RLGhrqXHFwboMNvEuWL1++q13pWZa1zI2+PGHChMXd3el9bBb7jh00ikaD7wIIGYYRGTeu+hBmPtyy8EMifCcf4xwAHzLjZU3jF3M5um/27KBjJ/P9fk9Xf3//roValiOhvr7+g5aWlh2ZefxY3y+X83xjS0tZmWkODAz09PX1ZRwRviKlBLcyZ05qisfDOzBjc4AnM1M1EU0AeD2AqwFNY2aNCNXrSKoXoH5mq5eI+lf+TMQrAPoUsD63LG0xYH5uWfpHs2cHPy4lOyeTSW9fX9//iMWJEyeuGBLxrmRQAJu7MNM2RLw1QFsBqAYwHqAJAI9fy2C4D6ChxpeHfAIAMADQUJB4zgFYDtCXzFZrNFr/vNRKweb2bTdmTCPCtKHZ8okAvAB8AFUAPA5A2eCAbdVtLsz4OuD3isH9pbwUQA6g5USctSws1TT+nFn7L2B9zkyfM/e/ryq+qyAIgiAIgiAIgiAIgiAIgiAIgiAIgiAIgiAIgiAIgiAIgiAIgiAIgiAIgiAIgiAIgiAIgiAIgiAIgiAIgiAIgiAIgiAIgiAIgiAIgiAIgiAIgiAIgiAIgiAIgiAIgiAIgiAIgiAIgiAIgiAIgiAIgiAIgiAIgiAIgiAIgiAIgiAIgiAIgiAIgiAIgiAIgiAIgiAIgiAIgiAIgiAIgiAIgiAIgiAIgiAIgiAIgiAIgiAIgiAIgiAIgiAIgiAIgiAIgiAIgiAIpcr/A9eQlU3ms7hqAAAAJXRFWHRkYXRlOmNyZWF0ZQAyMDI1LTAzLTExVDIyOjU3OjE5KzAwOjAwhgbO2QAAACV0RVh0ZGF0ZTptb2RpZnkAMjAyNS0wMy0xMVQyMjo1NzoxOSswMDowMPdbdmUAAAAASUVORK5CYII=;" vertex="1" parent="1">
          <mxGeometry x="431.51" y="50" width="67.71" height="40" as="geometry" />
        </mxCell>
        <mxCell id="zP974PlBZuE0hn4As67i-29" style="edgeStyle=orthogonalEdgeStyle;rounded=0;orthogonalLoop=1;jettySize=auto;html=1;entryX=1;entryY=0.5;entryDx=0;entryDy=0;" edge="1" parent="1" target="zP974PlBZuE0hn4As67i-25">
          <mxGeometry relative="1" as="geometry">
            <mxPoint x="720" y="105" as="sourcePoint" />
          </mxGeometry>
        </mxCell>
        <mxCell id="zP974PlBZuE0hn4As67i-36" value="" style="endArrow=classic;startArrow=classic;html=1;rounded=0;entryX=0.5;entryY=0;entryDx=0;entryDy=0;entryPerimeter=0;exitX=0.07;exitY=1;exitDx=0;exitDy=0;exitPerimeter=0;" edge="1" parent="1" source="zP974PlBZuE0hn4As67i-25" target="zP974PlBZuE0hn4As67i-17">
          <mxGeometry width="50" height="50" relative="1" as="geometry">
            <mxPoint x="460" y="180" as="sourcePoint" />
            <mxPoint x="470" y="150" as="targetPoint" />
          </mxGeometry>
        </mxCell>
        <mxCell id="zP974PlBZuE0hn4As67i-37" value="" style="endArrow=classic;startArrow=classic;html=1;rounded=0;exitX=0.5;exitY=0;exitDx=0;exitDy=0;exitPerimeter=0;" edge="1" parent="1" source="zP974PlBZuE0hn4As67i-16">
          <mxGeometry width="50" height="50" relative="1" as="geometry">
            <mxPoint x="633.13" y="370" as="sourcePoint" />
            <mxPoint x="536.88" y="180" as="targetPoint" />
          </mxGeometry>
        </mxCell>
        <mxCell id="zP974PlBZuE0hn4As67i-38" value="" style="endArrow=classic;startArrow=classic;html=1;rounded=0;exitX=0.606;exitY=0.116;exitDx=0;exitDy=0;exitPerimeter=0;entryX=0.83;entryY=1;entryDx=0;entryDy=0;entryPerimeter=0;" edge="1" parent="1" source="zP974PlBZuE0hn4As67i-19" target="zP974PlBZuE0hn4As67i-25">
          <mxGeometry width="50" height="50" relative="1" as="geometry">
            <mxPoint x="520" y="270" as="sourcePoint" />
            <mxPoint x="637" y="185" as="targetPoint" />
          </mxGeometry>
        </mxCell>
        <mxCell id="zP974PlBZuE0hn4As67i-41" value="&lt;b&gt;&lt;font style=&quot;font-size: 18px;&quot;&gt;4G-GSM&lt;/font&gt;&lt;/b&gt;" style="points=[];aspect=fixed;html=1;align=center;shadow=0;dashed=0;fillColor=#FF6A00;strokeColor=none;shape=mxgraph.alibaba_cloud.cmp_cloud_mobile_push;" vertex="1" parent="1">
          <mxGeometry x="180" y="112.74" width="134.03" height="97.26" as="geometry" />
        </mxCell>
        <mxCell id="zP974PlBZuE0hn4As67i-43" style="edgeStyle=orthogonalEdgeStyle;rounded=0;orthogonalLoop=1;jettySize=auto;html=1;entryX=0.009;entryY=0.152;entryDx=0;entryDy=0;entryPerimeter=0;" edge="1" parent="1" source="zP974PlBZuE0hn4As67i-1" target="zP974PlBZuE0hn4As67i-14">
          <mxGeometry relative="1" as="geometry" />
        </mxCell>
        <mxCell id="zP974PlBZuE0hn4As67i-45" style="edgeStyle=orthogonalEdgeStyle;rounded=0;orthogonalLoop=1;jettySize=auto;html=1;entryX=0;entryY=0.5;entryDx=0;entryDy=0;entryPerimeter=0;" edge="1" parent="1" source="zP974PlBZuE0hn4As67i-41" target="zP974PlBZuE0hn4As67i-17">
          <mxGeometry relative="1" as="geometry" />
        </mxCell>
        <mxCell id="zP974PlBZuE0hn4As67i-48" value="4" style="shape=image;aspect=fixed;image=data:image/png,iVBORw0KGgoAAAANSUhEUgAAAlgAAALjCAYAAAG5bEv8AAAACXBIWXMAAC4jAAAuIwF4pT92AAAACXRFWHRDb21tZW50AACJKo0GAAAgAElEQVR4nOyd+Z9cRdXGD4EQgoBRICyyjAgSFSEqCCrCAC4gokFkERdGww5CEERBhBFRFkWiLwREJSMYECSSiKwSMixJfuU/6rd6epLpnumlqm5VPaeqHs7nq8mk+95Tz3nOuXd6uVdarZaoQmSdoTXLSng+XcAT6BLGjurEEplwFkmBaAihmokEFC2lSMuDC5VYsFRCvRJNqISCpRDqoOhCJRIshVhphEogWFlCZSuWyOsQsSIKFlMsjFAdHslHLJFvB3OEInfFEiv8wiiW46LAguUlVuxtJxdL5IWoiylMrLiLEfk9xYqxD4pFsfRsP7FYv6ZYWhZUtVgui3Lb7nNlimUjWKwCwMWKsTiKtYsng24v0priieWyQNT2shMLuT1VYtksMOz2/pe3WMMW6LetlxGuSifWIME0bEulWPMXqWlbKsWaW+S3g2wnce7pxcoYeAI50eCJowO9OKhYNgINiBPRC00mVgOReiLKAmY2m2Y72Qs1d/YQfzvRRYol1sJz0vjbGiTUOzkJ1UQwl22lcNXRKYTyEcs8Z5nL9mILFdRVdq/QxNteTkLdZ7M4w6GhhJovWE5iOS8umlgNhXnY8LWIQq1zWdzIUwDHbe3cXiOxQgoSY3FRxDILf1WjSJ6Lu9dym+/3FcslvpxYqItCzytvh7mKpdlV0V1LsSKJlVqoKsVq4lyKVYNYvoI5bP++qsVqum2nxUjrEFViuQoWYrux3OVYiKU7F3RYDMFCbdNxUXa5eWzTe2FDF+exLRP/DLWwWV4dsK37fbbXWKyQEdoJIZnTqLkjKJYmoZCC9eozPyGlQqkUK7VgLmKlFmyhLoOSUihUSsH6azIsKYVCpRBssB6jklIm0jzBVgcWatNwLWySasmPtAkV2mV2Orgk1ZKPahIphGhu62+S3GCB1qQSyEO8Zf7rVbCoXIAnkBPwBHICnkBO9P6lPbJHgE546GJE3rPN33ZNPc93EUqzYK75m/8mg4hlkcw4Wpxh+dn+u40BFojlY0m0OPPy2uSSv4PA73X/e2OxhiXQtvrIag3Yb5+2Gfh41/wHiTEyh1BijZoRlo9f67PdJo53KlhIsRo8du2IIqzpt+2YYpn/phbsJ6BYC37nGvTYYdt2qXhksRauNZRYrgI0aa2QYlmYoE6xbF1k/hvv+ziEWL7VHrLdZY75bxq2r4GihhJrfgKuDmjyWJs1yIhzsa7nvzdoW313ZtsqfZ43Zilsm2W2j3UVyyX/Ec9fNUisacudTQ9KfMDj33NY1CpfsVwEsxVrwWMGPHG860lt+w68/00fR+x87tCXltv/vnP7wx7nQztf6Wq7UblYbzdAYgOrVRoUi2JRLDjwBHoQOX0mpQ4PwPNRJdacMHZUKZarSAsZK1+s5iL1UqxYoYUCCJa3UHO8WIZY8YXaSfRbkpYiVCtFS8YUalVysSILFlOs9EJ1uCsvsXBCtWK6S5NYbwTc1lHlijV6e0s1uEu/UHPb3bdusTRtuzix3LZ/T0li+V3oFegunFjxi0Gx6hRL5I8US8+AD35impdYQFfhxXJZVKztQsWKsTDX7RUt1qjFKRAqplinBF9csWK5Lc7um6VgoeKKZbtA5PayEgu9PVVijVpgyO3FXkcSsQYt0H9bxyCESidWP8FCbStV/knF6l6opu2oFitj4AnkhOeT5E3D0EAvDCqWEeCnowQqXThboRpHtAVI64cBtmGVX3SRYonVe/aQZlvZC9VUMJdtRRfKxMuxhQot1qDtxRYqqKtG/x4dd3vZCBVaLPP4v4/anuHSLMWyWJiTYD7bK0qoWTYG3l5rTqMwYp1teESJWCP33UgstHO0i2W4wlusnIVqsl1nsVIK5bqo2NtuC7XaQay9axdLratcFpRi+xTL3l2HJxGryfYVifWp6GJJ5xwse7GStGHT7TtU/kYPoZY4ieW4oB2KxXIupuu2gywohFAhxHIRzDz20uhi2QoWapuuYhlWWwh1ik8RvBY2G8+EEmpUATwECyl+a25dDRYYMkKLFRJVYoUexjGE6hELKViuYp2kUSiUYAtn8YIf6BQqtWD9D1x9f6hTqFSCDdzv4H/QKVRswYbuc/g/ynkahYol2Mj9WSWlTKR5gp0YQKjv2engkpifUItiCRXAaYe6rd83sZY8lNpFjsJN9hHnyUbbRC8qJ+AJ5AQ8gZyAJ5ATc3/ourXBEFahErVazOj8+93XZ9p6m7M/GHn3tm7QongK1ZO77Xq6HjfVb0d9v1mqWax5+U/1+fe18/O3Wc+C5/g+URO++Y9qxaFi2SY1cGMW7TpgNi5Idt52Vw7bbgCxBuUaR6xRM8Lm8SEeG8qRfcUN6SzbSo7a7rBt+zjEUrApNWJ1t1JDYRdsJ5BYo4uSUKyRLWsjlmsePmINFLAWsSxzXWUtlgy5Ma3M3VTIVyyr+6aCxVpQ2GFiOe3MJYFhAihyVpuB92nt92DnVunz802jHh9YrCmf/LueP2H1uEELt9lR6McPE2TUv/kKNez5A8Wa90Srm5INcMT0sKT67CPITc/mbXtNV27BbtzWNKmRFSsJikWxKBYceAJqaEvRnKfh61ACPAGAgW4JZCIXPgRfd2LgCSQyk4sJ4oPWIwHwBKoxU2UmgycQ2EyPwY3iz8Fw/QICTyCQof6pwBihuAWuZwDgCQQwFdIE8UDr2hB4AjTUCNA6ewJPgKayAK23B/AEaCpL0Lo7Ak8gE1M9bLjQcJHhCZqrJGOlKd4LyvPLxlzwBCyLtiarYsU119fg9bAAngC4UOsyzDl8I0QAnoBFgQ6NVKDTEuR+IY2lldy7Pvf8PYEnACkM1xAdeAJVFKWENTgCT6D4ooisyH4NHsATgBgrZWHi5P8veF1GAE/AojCLsjVXrnkHAJ4AtEAxi5RjzgGBJ2BZpCVRCxWyWLnkGRl4AmoK1rRw2vNLDDwBVcUrPb+EwBNQU7xa8ksEPAEVxQuf37mq80sAPAF48eLmqDe3yMATABbvDtX5oXVtCDwBSAGZW3TgCSQvIvNKAjyBiIX8grriLTSU1Q19cgSeQKKCLofnMJfLCngOCYAnQMpEQQJyjuExw/xYZxhH50d86xp9B3EDLSDpT2gTrY5tJIs4Di0qCWAsuI0WRh5f6JTWn3t/YVWRUytUTr5mOhVunz6BLoxP8TSYy+z7F6HzcjWU2kAbpomh5rGb0rycNLY11C/RxsnVVJ5vFd6nODcrvW1MpTrQxgldtFSHxtj5DTPUKrRpajZVTHOlyG+QqbTHw2jzpChaDHOlyi9HU+2JNk/KooUyl9nGp1LmN99UDyY0yH+tRWnJtMz8EW8ehKmamss8d2vq/OYXMGqgi5+xqaybcESeK1KZK4mp0IXP2ViR8v1txJyXJTEWuugZm2qPXHPfZSyaSl1x1ifK/dAcjbUEXfRcjVVC/tGMhS547oXJOX/Dp4sxFmoNNFZfDo5WFBMP5GwqGqtZ/jsL8ydUYRQba29gxyfRLmbusYsTXSB03iaB1TmaK1bOyYwVy2CR8/2nliIZLs3NVD3GSmGuEAbTmmNkczWeYOb5jyXI8ay+xkpVONsimn//rKZ80Mbqw0MDcrkOkU9v7RYW88TUxdQSmg8x2lnoo0Eiwcucl6lqNld//wwTCV7uvEzVZa490cVOxPcHe2eUSPCyR42toU1Vy/Qa7RtbkdAWCBwxDVWywez94ioS3BL5GKowgzld18tfJLhF8jFUzgbz90cIoeC20W+mnEwWxhOhhWrJBqCZDkcbpaHJjgGZaTK8D1II1pK/RDDRxWgjJDLbfoFNdGWamisQj5QHPAFSJvAESJnAEyBlYvcgkbXts0hLVqIXVRrmvzHDJkv91w7Zzqp+zwmQ38I8rB7UEHRhciOm/qFrNHC/sU1Fc+EM5Wiu6VD5zvxbDCfTXEGN5XRqYWmsqRD1GbCv92yMtcpToJU0VpAieWlms52m+xv1fKdkUixuWNI+Obpsy2a7AXKejG2shuaYsnje9Khc1RnLkwWTNcR2QxrVVwuAsbybVb2xIm172mO7myxzXvC4ec95T6OxfPZr3SjajBVi29Ln5FRbzlqMNWTfC14PM/9N2uZYqrH6FsmHio3VKMdSjTXy0BNzXZ7GWhOqBj4mHfUc121G6ZjU3d/HWP1e7gjyVlMsYzXZtqX+a0Y8Z+hLRAO2OWZjrGWDDDFqI7PPHxv2/CYGnPecvnmGKFLKZnDRY5ZJH2M0bVjfbc7fcN9xHIC+3RJq+wO23fcN1wDbjWaskJrY6N9k/yO3E3OBTSZEKMHE7ZMZI/OObawmefdhma2hHPc74W2sFPgWiegHu3Maq1iwO6exigW7cxqrWOAJqEXkEMMNMxL18pThh4bo97rJGXgCKhD5dh8D+XAUfC1KgCcANNM9gcw0iKq/VAJPAGCofiaIC3rNAOAJFG2oig0GT6AKQ1VoMHgCEQ21O9xAFZsLnkAkU4U1AQ3mDDyBqk1VsLngCVRvqkLNBU+ApuoCrWFA4AnQVPNAaxkIeAI0VR/QmgYAngBNNQC0tg2BJ9DAVNfCix+X6+EaNwCeQANjoQsfH7TGDYAnQFONAK21J/AEPEz1K3ix03I2XHMP4Al4GAtd6PSgNfcAngBNZcXjcO0dgSdAY1mC1t4ReAIOpnoVVNR3DVcbzjP8xLADlMd18Bo4AE/AwVjpimif00dV5qUAeAKqjOWf21Gq8wMATyB7U+WYZwLgCSgo2GRGudJY2RSL+UYBnoBFkX6dZZHimesieE0sgCcALNAnI+d9RZYNEQh4AjBjMfeowBMAFefuRLlvprG0knthcs/fE3gCxRcm9/w9gSdQfGFyz98TeAIjirJ/9oXJPX9P4AmMKMoh2Rcm9/w9gScwoij7ZF+Y3PP3BJ5A8YXJPX9P4AkUX5jc8/cEnkDRhYn1OS10TSyAJwAxVqri5Jx7Q+AJFF2cnHNvCDwBWHFiFyhe3hvgNbEAnoBFgY6LWKT9IuV8eJbNEBB4ApaFilOkWIXKLd8IwBOAFyp0sXLKNSLwBCyL9dfoBRO5rGGOtybI8Sx4LSyBJ+BQuNhFa3lPBJEVanMDAU9AlbFKzi8x8AQcChfnDemQhdOcW2LgCRRVOO35JQSegGPh4nzwT+Ri1eZH6+4BPIHiCifyqOr8EgFPAG6uGvNLADwBz8JtUV04kaWB8rsCrrUn8AQaFK954WrOLzLwBIDFe1N1fmhtGwJPAFa82nOLDDyBAMW736N4KxPm55pbnI/yJAaeQKDivaJ2IoisccjtZbiWgYAnELCAdsXTm9tmuIYBgScQuICjr/6Hy21YXl+EaxcYeAJJi8ickgFPIGEh16vLCZ1PROAJRC7kOlVFnDPVj+C5RAaeQKKCHgDPoTLgCZAygSdAygSeACkT8M5lmeEGw0uG+dH++TK0QMS3tsl2JKf2MY9PZPPdupqJbab7AplpUHwfLSDpTyxDJQ+0kKSX7A1Fg+mkGEN1xTq0qNa6SeuBzpsC+Fxm82kXM4h+TQ31QbiN5gW6OI5F3MlzyvJprGMTU2mMvdAFsijgnv0/5ADN6YQBH774TlJjwe0zINCmsSjgiI+KlZMXTaWkeChjmf1uiZFbEabSbiybwqHMFSs3mkpR4WY5VXFu1lpnbyoTN6LNM6Rw78QsHsJYtvnlbqpkRfAo2hLfwhm2aTXVLCNf66KpdBYu6trM9i+Knd8wU+2GNk6uxmpatNjmSpHfMGOpDrR5hhTteM3GCpXbLK87GQttmsyNFbJwwdeZKr8sjYU2T6qizbJaeX5965GdqUx8FW0gDYXTnl92xkKbJ3XRQpkrdX5aTPW2YbXhjNn/35GTqbQbyzz/zpqMtcRKlJbsrd1YJsmTYxeuiblS5GbY0ddYpnCHp7AT2gSRjJWicNc3yG9xauN3G4umUmqsHPNMZawn0MWPaKrzcjBVanMlMRa6+JGNlY2pUua801RbaSp1RTo7x7znG4umUlqgXPOmsXQWKMmF4iLl/tvYxvo2uugJCnNljtMqsrFaUY2FLnqiwuzI3Fgv01gKidTxN+e+htntyodoLF1FKWENbWN9nsbSVZQS1tA21njuxkLlT2MNN9YnaCwaK4ax9qCx9BjLcFsRxkIWhsYaXJhEptpMYw021VeBxnogc2NFa4xoxkplLmTuZue7RyrOERkb63IaK0DuMbs+Q1PtyjtqcWKbK2LeT6ILZLiuBGON52Yss+1bNOQc0VjxtEuQc3ehokVm08rVWLfkZK6YuSY3Vmhzacs1VbFyMdV8Y70au2DS8AZL5vkvJMhxhbaCzfJhzaYaaKwUk2BnaJxSjXKT1sWJzKVumnbxNtxYXTH0Nx/z7/9LnZHmidCHj/fJ4wDD9tS5LKxdbyGXAcylJrQfajQz1FigqaUmmhirZnP1P9osNNY4usA5morGmqfFgHOb6iKEsWo010AdBv9DPRHKVLPGugdd7IRsp7EGx7dCGqumqTVUg+H/WH6ENlUt5hq5/tEPKDdimWrWWKehix+Rp0IYawxtgNxM1WUuq3sB5obV2u0eJE+hjZCbqbrMBTdCalNZG2vWXC+hDREozk1prJLM5bRmtwdnHyekNlUp5nJer/sT5CK4PTwCZagSzOW1Vm+R4FbJy1Rd5voI2igOPOvvjyYiwS2Tl6nmGQxtmuBTKpixZs31Cto8A+IitHkszPUTtIH68EaQtQUTKb1xBsW7aMN4GAxtpiBTKoqxNBgMbZBcDRZlLdFECm6bgfEq2hARDHZXroaKbqwugy2OYKaBH9coDSPg+oBmeidZ3smFaslKDyNtNeyPLrIGjIArxe49yHcN18LyRAtFygSeACkTeAKkTOAJkDKBJ0DKBJ4AKRN4AqRM4AmQMhn9AJHxmdsM2DGJXlCJmP/WONRg5ZDt9H1Ow9z65+H0YEfQBcmZGPpDjRXKVF2MoYuUE6H1t9z+Ms9cxwftM7apOLmApuqnf8gaDdtW94OmYy2M5qrbWIMSe89hR5toLG9TvddUuyE1nLB4nNPh0Pw3Nmw7o3Y28DeMITtcRmN5GStIQ6aaWqO2MfSBIUVCF047Awo1nbWxZMDrJIFF2oQunmZC6W9prEZHlUHPN4zPN1aQMeyyuAGPW9P1b1ODtuPRXdPDttXFyPMMn0kwX3S0sZrW3Mq8yoy10qJA1jm6bMd3m7M/G2u67ZD6h6xREcbyNMNESFO5GsBnX0qMNR7YWKvUGiukCQJsd22k7aowlm/drWur0Viu2+7zmLV9HjfddLs+OTfRgsZKKOaAbU8G2O6CF3ebGNCjGRDGmghkrMkFj8vNWDbPC7Xd0o3lWnunx9JYjY018t0JGqtgY/nga77MjNXvfNTFWP1/yaGx6jaWbb1cPUJjDWfBYU67sWTAi7U0ViRj+a4lN2P5bEsGvOVlUdPpUcbq+zmqwMaaoLHcjCUeX04x/630Wf+A/a+d/Tfr87AeY4Uuhu22aKyRhXXO23c7w57ns03owjwFmOzzvE0Btrug0xMba7oqY83S91fKeYn1HZeuxpKuj840KFKU7cY01qgaWOxjqsnzh+XplY+tMRrSt6iBjOjy2L6f35f+U1CVsRpi9Xl2l21aGyvmwkIsJJQJQ283sLEGfqEihv7JjBXDXKEWknr7ttsMaazU+vvu32o7AzY+HmBRY76Cy4BDU6iijmDo+WRsY6VqOoix+uxsTDpfuJj/etf07M9WhVpEn8dMdf37JhvDDtnfeJ81tP/u/DW31EjnIy79Xm/cNFsbVWtAixWky4g+sDunsYoFu3Maq1iwO6exigW7cxqrWLA7p7GKBbtzGqtYsDunsYoFngBRjMjHDfe02p8UbVslHv8xfMewCL5mohp4AgSMyK8iD6MQbDd8Ga4VgQNPgCRC5GMKBk940LqSpMATIJEQuQI+TDB8B649iQY8ARKIzmtALTIPdF1IUOAJkAaIPAIfCHlxFbxmpBHwBIgj7e8P4Ru/BPaF15I4A0+AWIJv8HJB15ZYA0+ADEHkUngz18UKeM3JUOAJkD6IvK2geWvmH3APkL7AEyBdiDytoFnJHPfBPUF6gCdAWu1BtV5Bc5LBXAT3CJkBnkD14JuR2BLLA8QaeALVgm4+4st2uHcqBp5AdYicpKDpSFOa+oB4AU+gKkT+Dm80EpI74J6qDHgC1YBvLhILWw+QxsATqAJ0Q5H4jPIACQI8geJBNxJJxyAPkGDAEygWkd3gDUTSM98HJCjwBIoF3TgERwvsvYKBJ1Ak6IaJzx8Nyz21OdTwmoI1xMVHGzISeALFgW6U8KxLoNliBesMT2zdKgSeQFGI3A5vkjB8Gqzj4wo0CMFquCcLA55AUeAbpBlo/agpGQE8gWJAN0bpTYXWyJ9puHYFAU+gCEQ+rKAx3EHr5q7zT+Ca1aCzYuAJFAG6IWprIrR27rwF16wQ4AkUAb4h3EDrRc2JJ/AEskfkangz1No4aC3dWAnXqwDgCWQPvhHsQWsVXvulcE3t2QzXqwDgCWQPvhFseQKuVd36t+BaFQA8gexBN0HtzSJyNFzb2muQEHgCWZPTryRoreLWAa9v7TVIBDyBrBE5BN4EbBYOrIqAJ5A1IgfCm4DNwoFVEfAEskZkEbwJ2CwcWBUBTyB70E1gT5mfAxK5U4G2dqC1KgB4AtmDboLaGwatae36JwaeQPaIbIM3gj13w/WqV/vr4HoVADyB7BE5WUEzuPAhuGZhdL9cgZb2oPUqBHgCRYBuBncOhWvWTO9bFGjoBlqzQoAnUAQij8Abwp1n4br5aY3WzYez4boVAjyBYsA3hR9o3agxcQCeQDG07y6Dbgx/HobrN1jXgxTo04TD4BoWBDyBosA3R3PQGlJPMgR4AsWBbpBwvAvQLp9vDnBYQYAnUBwiP4I3SjjSf3YIv+ZQfBDuxQKBJ1AkIpsUNExTPgzU71kF62/C1+AeLBR4AsWCbxp/0Np19LsMroMfj8O1Kxh4AkWDbx530Jr16rccrocb/4JrVjjwBIoH30T2oLXKW8Mfw3WqAHgCVaD/M1o74BqN1hCt0TCuhutTCfAEqkFkXEFj9WMtXBt7DdFa9WMxXJeKgCdQHfgG6+YsuB7u+r2tQLcOaC0qBJ5AlYg8CW82kT3gOvjrdw9Yu1PhGlQKPIGq4ZlBE+0w1yFDr7ty4AlUT+pPxqPXG14/6lYR8ATILCIb2HTe2sXU7TL4+sgu4AmQecRpus3wdeWn27XwNZEFwBMgAxB5LlDj1fMZoTB6/RK+DjIQeAJkBCJfb9B8R8DzT6/X055a7Q7PnYwEngBxwKUB0blidfqepU6PwXMlTsATIJ5wWI3S54AB+myE50a8gSdAAiCynsNqoDZtXbbB8yBBgCdACCG2wBMghBBb4AkQQogt8AQIIcQWeAJpFimfNvzREDt2GH5lOBC9ZkJKBJ5AmEXIHoZHDRsTDKWm8VO0XoTkCjwB94RlpeF/8LETNt407InWlhDtwBMYnaA8Dh8nmDgGrT0h2oAnsDAh+Rx8VCgMdF1KxphO/0040mty5exnkVV9HxWeQCcJ2YQeCJoDXZ/SMIbbo/83mvC5acBo8cKAb32tgOeG27H8Cz0Icgi0QUrC7jvj+Dy1a4TUCbBDhmW8jTZvCRjDne9xtZmPofMGaeV1ZZ6kOabZycxnkxj2cQ/avLnj23xdVPXxkwB6tZLkGXfjDI84GW3enAnReF28jl5PAr12D6xZK2q+cTbK8Am0eXMmdNOhfuVJrNkZuekWeGOyHd30uQbavLliTPdWzKYrdWiZNf0hhW6htQu0EVmBbvicA23eHDGmuzBVw5U2tMxadqTWLpR+ATbAaBJo8+YIotm62Ae9/oy1a/ORRvn7P1FuRDd75rEBbd7cMKb7hIKGa7MKrYWnfmjdduG9Br8nMRrGd9HmzQ10g/Xhr2hNMtev5bUO9ycwGsb+aPPmBrqxYpwpJNTuSLRGI1jptB77B8oSeKtnHmjz5oZE+IxQTUPL5HYNWhtLLrGfQ1YPkrPRzZ57oM2bIwoaKduhZXL6D1oTR9bbzaKRD5Cj0M2ee6DNmxsy4GoK2kHr1qUfXAtPRn6zYMQ/yvvQzZ55TKPNmyMKGqcJx1G7RtzYZGCVHneJ54vg5nmHGB4Zsu1JdOPniIKGCcHPqV0jlg/uu4H/UFz8LolpOhcj/Ay68XNEQaOEJOlVTM3+/qdgzcEY3F99f1hMXIxuQmKHMd3l6CYJwANoHWe13KZAiyhDq88Psv9e4LNowxB30M3RkDvR+g3Q9FAF2jTh+gVrWviDbGMr2iDED2O67Qqaw4eNaO0s9T1VgVZeLFhL71/kGvjY8Qi0IUgz0E0RopFyAK2ZJw/2rKH3L/kF2gSkGcZ0LytoiuKHVZfe16P1a6J31x9kf/TwcYwsTsfJcNDNUNOw6tL8FrSOjpy0K/e5P8hG+AhyCHTRSXOM6Y5S0AxVDasu7beg9XRg1x2k5hbQyifQxSZhMKb7h4JmsGV3tF4R9Edras2unOf+kE1cji40CQO6CRx4F61VJP2/o0Bb94ElGV06Bl1kEg50EzhwDFor1qC1d6s1N7A+iR5EHFj1oaAJrEDrxBrM8PFWa25gjaMHEQfWTB225UBtzYL2RVTPKdDXkpNarbmBdTJ6EHFgzdQhi6itWdC+iOo5BfpasqLVmhtY2XwGC13gaMZpyT5obVPXQEET2HI02h/RfIfX1pY9O32yM3GA8T3jCHSRoxinJU/AlbWMCpsl2K/BmjDrOlOBtlbM9cmuP+QT6EJHMQ9cVet4M2DD/BfdCK4NUxJoTasZWCYuQBc7qHHQarrF2QEbJqurCKB9EnhY5fQdzn/3G1gXwFvBIdAFDzisfonWEqm7gmZw4S20XwJp/jsFWrpwwIKBNds8ucW+6OI3HFY3whV0jMoHVqdjFHingd5/RevXRO/exbTkNXRDePeKGTgAACAASURBVMRDaBN4Dqsc49gIDbQE3RC1DC20Zp78cuDAyriRsjIQWittGitoCl+S3NikZo0X9s6CH8gD6MZoEK+gjVHioJqNw9lQA1mL9tYATQ9ToE0TvjRyYBXQWDOBNkuXlvuhtQgQb0fXSVq/VdAgjUH7bVbLG9E6xNKy/4JbcgC8RQIGYEh9GL3mHPVDN0hgticeUn9WsOaow2rgwJptuvvQjRIpnoowoI42/Ae+sgiRfNgraJaIfC6QRssMWxWsJxYnDVz7iEbcgW6YxPGq4V7DZYavG74knc+n3Wz4Bzy79BGkwRybcV8FDUNw3DR8Jg35x9mhxagzrk49rLqG1hkKGoekZ+S7rkP/kUOr2ngCNay6htanFDQQScdv7GaRxYM4tKqKK9DDat7gQjcSic/37OeQ5QNnh9Zz8HZixIyon7Xi0CJ9WO42gxwePDu0joK3FSN4oIcSh1Z9ePnA20DwFmOECvQwchhat6GbjITBf+54PpFDq4g4ED2EPAcXvOGINx9sNnMaPJmDK99AD50AQ+scBc1H7HktzKwJsJHZoXUlugkZowM9aCIMrmkFzUiGELTewQ0UvMUYgWIxerhEHlzwxiS9RKlzNAO15AV4izLacQ96mHBw1UXU+kY3kE+LMULEhejhwcFVHbvFnyeRd9A1uLK5UWjmsQg9LDRhjHengkYumqT1hJioJc/D27qsOBc9GHLAGO8edHMXBMRzyXe4MAGGb6BrlyvGdPsraPgcuRJeO3QCc4nIEsPr6CGgPLai61QixnxbFAwDrYyj69M7JxQk0T8x2QAfDzpiGboWNWGMd66CIYHkLnQNhtYHnYB9ojNXAa0hTkRrTeYwxjtYwRCJyffRGjvVA51As+Tlt/Dx0izOR2tI3JHOzV+fVTBsXFF1rTMv7dEJxFmUqq8J/c2wP1oTkgZjvs8YHgcNpB2Gqwz7oHWIpi86Aezi5SOGbxruNDxleNmw3bBt3tBp34xjq2Gj4UHDjwwnCD/zRAJhzLin4f3SeQfzA+2hY9gdnZc24AkQQogt8AQIIcQWeAKEEGILPAFCCLEFngAhhNgCT4AQQmyBJ0AIIbbAEyCEEFv8niSypv1JNwCbDPwyMIFj/hs3vAfogUmHHF22OwbScZVTnhEWnhS0cUkdgIZTI/+b/ya095LjeteG3JjawhHiC9rXlmwKlP+0Zm1nnpN5oebDXxdJEMT1VxU8a4esRV0PSedXaqdhNfO8AAvsx7R0XudqF33lMBFm/33l7OM3Nd032ugkf8x/YwF6YNOsp2f8PWRf3f6fjuH99jDT1kOu82TX8wpc3Htow5O80XKQ9BicWfxqKI6vB/Y8t8nCtJoIbXiSL+L4q2CCfMZD5eM4tKL8augxhMd6nt9gY1OJjeTyUYoJtPFJnjg204S2nEZsZxo9jB31XfDb0vyNubyGlPwFbrTYA3Ial86v0f202/k6xlhqrbpy2/na4KDT8E2z+U8gamq5jjEZ/BrnTo2D5K7UY8FychwYU4HXMd10LeqLBS7cynnPafymQBdrAmmS4t2s8Zg1a9hUw3AeYhp7ILDvxxBrbNcihOfUFyti4ay3EbCBgmkZO6dQuSrReQLhMa2k8GesfWZVrJD5WW4n2VeQHDQYT5VTiNpr0jm1xzTjqN1Uw31NhdI1q2KFzM/T9APfNp637fbp7zS6ocThVzmJ9KuCp85tJiy2PeG4zYEfrsylBwL2UrJ3Q0PWPatihczPUcSxBjm7/O4+dD+pamO5n1URzDrwA5ah9pPSY9pxrI3XekPvI6tiBV24/bYmA+Q9GSJvy22MB8h3PJQHUvlJLH+tTOmxHHAcKFOO2w7+IfSsihUyv9TrbLq/UA0ZMt+A6278jqlYnsmm9FgOiMPB1HXNLtsVi1/XZ7aZU7EqH1hWH6lImW/K7aTal/YeiIHjYAlWdx8tsypW5QPLyQApCLXulBqn9FhOONZ+csS2nN71dcozp2KFzC/1OpvuL+bgacDID2Zq0zilx3JCQn70wM1DU0555lSskPmlXmfT/UUaOE0Z+dqTNo0ttmH9bYZcvR/KYwO24X0lBqscU4vSQMyVDvmN/LxU6nU23Z9tI6WuS4h1a9qXuH0w1/tjGLH8Y+P9IfsYazoDXJ4vPl+dmreziRTCRC6YlRBNB0is/Ic83/Z1AVVfYNamcWivJdLQ5TWhRn0pTa5V5dajXtetU1+s2ZycvjgZ2JRBjqIhcrfcxmTCfCdCbCegT0odWC6DoLFfHfc3Pvuc8RS69Ut2yjHhqEVzzUUsP9OTcn2hck+Y70TK5k/plZDrj90D4vjBy1B5iMfXdhzzHPfOrWGDqSOkuedh9VWUJvux2Nakw/bGYja+rdYha5ZyX2gfexLsZZqYeTbKq6SCaSmIJ1an8gry3Ml4yQNLmdZWhNIx5vob51RKwSIWYyJB/lbNr6UuyCGSel9orWPUxGHtoS/74/VbivXA6krc5SMFKUn27X6NRgPoHeUKnpoHVte2Q15tVoV/UnssSD4NFjIuDe+j5sBan2YJUYgBz3V+MbSLiUjGGgtcj/bb2+MpdE5Z08CaJ7vAo3QGZrLPffn0SpIaIwTQQGqhCSHNgScAWzgHFiHZAU8AtnAOLEKyA54AbOEcWIRkBzwB2MI5sAjJDngCsIVzYBGSHfAEYAvnwCIkO+AJwBbOgUVIdsATgC2cA4uQ7IAnQDJDZHfDMYZLDPcYNszYaDCbDX81/MxwjuFg+BpItsATIEoR2a3V/hqRyJYRAykE9xtOga+ZqAeeAFGCyP6GRxMMJxveNVwB14SoA54AASJygoLhZMO6mYGK1ovAgSdAEiNymOEdBUOoCUvhOhII8ARIIkR+p2DQhOZcuK4kKfAESERE9lMwVFJwN1xrkgR4AiQCnRfQn1EwSFLzF7j2JCrwBEhg8ENDA8/C60CiAE+ABELkcQWDQhvfhteFBAWeAGlI+07P+MGgna/D60SCAE+AeNL5ikyLWPMKvGakMfAEiAf89a8JZ8DrR7yBJ0AcwTd8GaDrSLyAJ0AsEfkMvMlLA11T4gw8AWKByEPw5i6X5fD6EmvgCZARiOxQ0NSlcxW8zsQKeAJkCPhGrgt0vclI4AmQAaCbt1bQdSdDgSdA5iGyCN60tYP2ABkIPAEyD3SzkhaHll7gCZAu0E1KekF4gAwFngCZBd2cpD8pPUBGAk+AtDistJPCA8QKeALVg25GYkdMDxBr4AlUDboJiQtvwP1COLBgiNykoAmJG9+H+6Zy4AlUicgeCpqP+BDSB8QZeAJVgm460owQHiBewBOoDnSzkRBsh/uoUuAJVAWvv14SR8H9VCHwBKoC32QkJD4eII2AJ1AN6OYicXDxAGkMPIEqELkA3lgkFvzVMCHwBKoA31QkJjYeIEGAJ1A8Iv+ANxSJzWq4zyoBnkDx4JuJpGCYB0gw4AkUDbqJSEr+CPdbBcATKBp8E5GU9PMACQo8gWJBNw9B8Fe47woHnkCx4JuHIGiBfVc48ASKRGQbvHEIit/A/Vcw8ASKBN80KXndsNFwh+G7hm8Yzjf8yHCv4WUFOabF1ifEGXgCxSGyHt4wcXnL8PkG+lyiYA2xOQfuw0KBJ1Ac+GaJxUURtHpQwbriEForMgM8gaIQ2Q/eKOH5agLdblWwzrDE1qxS4AkUhchr8EYJxzUA/V5QsO5QbID7sUDgCRQFvknCgNVwMXz9JehYKPAEikHkk/AGac6NcB3n9ERrEYJD4ToWBjyBYui8e9bKmC/BNVyo6R8V6NKEF+EaFgY8gWLAN4c/aO2G67oDrk+p2mYIPIEiEFkGbwx/xuD6jdY333cR0doVBjyBIhB5GN4YftwN185e41zfgb0crl1BwBMoAnxT+LANrlsdOk/DdSsIeAJFgG8Kd9Ca+em8J1y3WrRWCjyBIkA3hDu3wjXz13qtAv3cQGtWEPAEskfkQnhD1NZAaP3c8f+yOOkBnkD2iGxW0BAuLIFr1lzzbyjQ0YVH4JoVAjyB7ME3gxtoverUfQdcr0KAJ5A9+GZw4UK4XuF0z+vSNGi9CgGeQPagG6HmpkHrWbP2IOAJZI3IUngj2PM6XK/w+qM1tQetVSHAE8ia9rs/6Eaw5xi4XuH1v0WBrrbsCderAOAJZI3IDQoawQ60VnH0XwLX1Z4T4HoVADyBrBH5i4JGsAOtVbwa4LW147twrQoAnkDW5POF3HfhWsWrAVpbW+6Ca1UA8ASyBt8EtvwOrlW8GuRyvazH4VoVADyBrME3gS0Xw7WKV4O/K9DXhufgWhUAPIGswTeBLZ+BaxWvBncp0NcGXi45APAEsgbfBLZ8BK5VvBrcpEBfG16Fa1UA8ASyBt8EtpQ8sNYo0NeGV+BaFQA8gazBN4EtJf9K+CsF+tqwGa5VAcATyBp8E9hyPlyreDV4UoG+NjwD16oA4AlkDb4JbHkIrhVrsBauVQHAE8iafG6eyg+O4vk5XKsCgCeQNSL/VNAIdqC1ilcDvLZ2XADXqgDgCWRNPp8BasG1iqP/bnBd7VkB16sA4Alkjci5ChrBlmPheoXX/zYFutqyCK5XAcATyBqRAxU0gi3PwvUKrz9aU3vQWhUCPIHsQTdCzU2D1rNm7UHAE8gedCO4cRZcr3C6P61AT3vQehUCPIHsQTdCrY2D1tGNLXC9CgGeQPaIbFPQEC4shWvWXPM7FOjowvVwzQoBnkD2iPxUQUO4gdasueZ4Dd34IFyzQoAnkD0ihypoCFfyfS1L5G8K9HMDrVlBwBMoAnRD1NREaN1q0loh8ASKAN0QtTQSWi8/3oDrVhDwBIpA5B8KGsOH6+Da2Wv8kAK9fDgDrl1BwBMoApFPK2gMX1bD9Rut74UKdPIDrV1hwBMoBnRjlNpUIifD9SlV2wyBJ1AM6MZozm5wDRdqeqsCXZrwU7iGhQFPoBjalyHGN0hTNsB1nNNzuwI9moHWsEDgCRQFukFKaTT0+kvRsUDgCRQFukHCchRAv/9TsO5QPAn3Y4HAEygKka8qaJSQ7EisH3q94UipW0XAEygOdKPk3HTtL2aj15yrdpUAT6A4RLbCmyUMXwLp946CtTdlJdyHhQJPoEjwDdMc6pendoUDT6BIRF6HN00zFoP1+60CDXy5Fe6/goEnUCQiRytoHF+2wvXraIjWwQ+0boUDT6BY0I2Te8OJfA6uhTuvwXUrHHgCxSLyMQUN5MqdcN16NUTr4QZarwqAJ1A06AYqoeHQmtjzJ7hWFQBPoHjwjWTLp+Ba9dfvFQXajAatUyXAEygekU3wZsq94dDajOYyuEaVAE+gCvANNRy0PqP1uwmuUc76FQQ8gSoQeQbeVIPZDNfHTkO0ToM4DK5NRcATqAZ8Y/UHrYu9fh+Fa7WQt+C6VAY8garAN9h8roFrkrN+aD0qBJ5AVbTf+kY3We4Nh9ZsjvTXCyMcWMnBN9pOjoRr4affPxVotxWuQ6XAE6gSfMO14BrkrB96/RUDT6BK2vcCZMM10e8HQP3eB19/xcATqBaRbaCG+zt87WH0Q2h3AXzdlQNPoGp4dtVEu+WJtVsHXzPhwIKTtukugq83V+3QayUzwBMgrXSNh15nrtqh10h2AU+AzBK/8ZbB1xhHt3UcVvUAT4B0Ea/x0t5fsBTd0OsiC4AnQLoQWcTG89LtHGpWB/AESB/CNt8f4OvJTTP0WshA4AmQAbD5XPVaQr3KB54AGULzBjwDvoa0er3dQKtn4fmTkcATICMQeYxnC056UauCgSdALBB5yKMJd4fnjdHq14463QTPmVgDT4BYIrLUoQm3wPPFamWr0yHwXIkT8ASII/z1xkajz47Q6EV4jsQLeALEA5FbhjTjL+D5aWCwPlfCcyPewBMgDRC5g2dXQ/Xp1uZleD6kMfAESEN6LwZ4AjwfTYi8NKvLefBcSBDgCZBAlP59QT9NDoDnQIICT4AQQmyBJ0AIIbbAEyCEEFvgCRBCiC3wBAghxBZ4AoQQYgs8AUIIsQWeAG7hsthwnOFiw28M/zSMig2GXxsuMRyLXgMhtQFPIP4CZalhteFVi4HUNP5l+BZ6zYSUCjyB8AuSRYZ7Egwn27ivPTTRuhBSAvAEwixCPmnYAR9No+MNw0fRehGSK/AE/BOfef0p53hReOZFiBPwBNwTlnXwURM+VqN1JSQH4AnYJSn7Sh6/8jUOtNaEaAaewPDk5Bj0AAHFG2jtCdEIPIH+Sck+8JGhJNC1IEQT8AQWJsToExeg61IqxnDXGlag89DG7EVsf4bOY0Fe6ATmEpn59DijT6BrUyq9l8LH56MFo8eD824VoOYO4goSkD3RA0F58EafoT0nrT/3uaHOfei8tDD47nEKcsPuXH4MHwfKA22QkjCGWzT8do74HNEYHbaPuO3lHtD8cDtmWAQ/FR/Kb9L6gcU9aN9F5wnWaD8LjdrcAMsx/Q7lO/AxkEmgDVwKxnSvWzZim73R+QJ1stUIdkaaeGczX0dhWATavKXg2oS1/mpo1v1tH60MY0nzTLcjhkM8gzZwCXg2YJtvoHPPSKs2lybLM81OGC6BNm/uGMMd2LABq6qBWe/6pnoZHkiSa/wdMBzj+2gD54wx3LkBmq/N4+i1JNQshF5tNkbPNd6GZRm89TMMtHlzxpjuroDNV0UtQuo1y3TUfONsVD6BbvxM40C0gXPFmO79EZqvhV5XZM2OiKGZ4fVoOYffoBwJb/tMA23gXDGmOyBS47U5BL2+iLrF0iza0IqwQYZPoM2bK8ZwyyI3XpG1Meu6OrZuhuDvdgfeGMMzHkEbOEeM4RYnaLo2xV0RNpFube4Nmne4DTF8A23eXEnYdEXVyKxnc0rtDMFemw20EUaDOBtt4BxJ3HBtnkevOWPt2uwfJPfmG2A0CbR5c8SYbiui6dDrDqQdYlgF06/hk+W76IbPPJagDZwbxnTfzb3pgNqtRGoXQr+GT2Y0iLfQBs4NY7gl6IYzfBytQwP90Nq1+UujNfg/kdEk0ObNEQXNFuQsAaTdHWjduvD+bJvnk2QbuuEzj7vRBs4NY7odChptJ7ei9fDQD61ZkKHv8QQZg7d75oE2b24Y0+2ObrBQDQfS7020Xn1Y57UW9ycwGsZJaAPnhoLm6ke078sF1m4PBVoFG/qOD5Zfwts980AbODfE7lrsKBah9bHQD61R0KHl8EBZhG723ANt3hxBN1SMs4SE2p2F1seCC53WZP9ARsP4L9rAuWFM946ChhrFaWidhuiH1ib40Ld8kHwJ3u6ZB9q8uWFMtye6kWI0XEL91qJ1ccD6XXPLBzEaxo/RBs4NBU3kQpLrmResX8t6XaMfIMfA2z3zQJs3N4zp9kE3UKyGS6Sfps+s2bLZam2jH8BoGEehDZwbCprHh21o3Wa1+4ACLbxoPLBMsx0Cb/fMA23gHEE3TgP2oXaNeLrpwGI0CLR5c8SY7iUFjeMNWLtL0OuPrd+If6wq3jRsNNxkuMBwpuHLhgsNvzZsnsU2NqCbP0fQDROA86ldI673Glim4f4LHyFx4x3Dp72M0ZLdDN8etnV04+eIEfZaBQ3TGJB2T6HXnUK/If9QbHwuuFlasnrePi5FN3+OoBslIH+jdv4M77W+P5RL4GMlfER/QdTs42SZ+WPc/ZSIZPRB0aZNF0G7b6PXG5inBvdY3x8WFRejm5GMxpjueQWNEoJ/AjV8QcH6gzBwjf1/WERMo5uQ2INukEDcpUDHvRXoEIKxvutb+AO5Ez5qmsfpaOMQe4zplitokEagNeyjKVyThrzRd10Lf5B9fBhtFuKGZP7rIFq/Ibq+gdYmtK59fpBvoA1C/EA3RkMWo/UbousiBfo04QML1tT7F/kOeuhwWNWHgsbwAq1b6foa7l+wlt6/yA704PGMCbQpiB/GdFcraAwf9kJr56gzWi8vFqyj9y9ZxptoMxB/jOm2oJvCg74vCGvG5PxNBbpxYKGNQJqBbogQTZQLkufBoedGH11/kM+gh49H8B3BzFHQEK4ch9asMr2v7sl/7g/yNHz8uMVL6OKTZhjTHaqgIZxAaxZA87vRGjrybk/+c3/IK9CFJ80xprtZQUO4cDhas0C6o3V0oif3uT/kFeiik+aIzluoWzVOzpi1PIzWsraBtQe66KQ56EZw5Bq0XrVq35N3539kKXwEOQS62CQM6EbwbZoSQOvpyEG78u78j5yOHkIO8Sd0sUkYFDSCLe+gtYqg/Q8U6GrLV3bl3fkf+Rl8DNnHMnSxSRgUNIItN6C1qlz/u3bl3Pkf2QAfQ5aBLjIJg2T0kQa0VhFrANfWkud35dz5n5kbMmQR6CKTMBjTjStoBA6sPNi+K+fO/2QTf0UXmYTBmG61gkaofWA9gtbWtQaz/5NNXIIuMgmDMd2d6CbgwMrnxqu7cu78TzaxAl1kEgZjuj+im8CSjWitItZghQJ9ix5Y+6KLTMJgTPdXdBNYsg6tVcQaLFOgb9EDS+3laBubpyUPGLZlwK8CNcsUugks+T3aG9E8l9Eddub6pMWBpQGztr/A1bWLIB/cNQtej24CS4r9oLLwDCt6fBBd5GjmackzcHXt4neBmiWXL+A+i/ZGNM9J62gF+hY9sD6NLnI087RkK1xduwj1K+F96CawZHuI9WrErO08BfoWPbCuQxc5mnnQytrH1UHWK63r0E3g2iylYdb2AFrb0gfWZnSRo5kHrax9fCNQs5yPbgIOLLy2lrw91ycz/yPT8DawDHSRo5kHrqx1HB+oWT6uoBE4sPJgw1yfzPyPPApvA8tAFzmKcVpyIFpXh9gvULPsqaARbDkD7ZHKB9bP5g+sa+FtYB8HowsdYWDl8pGGVqUNU9wL72ZNlyvQ1Zbx+QPreHQjOMQGRIEjD6xsotKBFXTdGkDr6cjec72y6w/5BLrYQY3TkmVoPVHaK2gEF85He6VW7Xv7Zdcfsorl6IIHHFgvwNV0iFqbZn7j5IxZy2NoLWsbWOWYB66kUzwTuHGeRjdDpQMLriUHVoaYdfwBraNjXBC4cT6PbobahpZZw4/QGjrSc4f3rj/IffB2cIvX0MUPMLByi+D3g1TQEK4sRfumMr2/N2hgnQhvB/c4HW2ABsPqdbh6jsEGmu0YBf7x1PoFtHZNtZ73l/wCbQLPYbUIrZsWrdEN4ckbaA/VonVxAytWI0UeWDnGS1G0kNbt6Kbw5KAYenBY9TJqYD0Hbwu/WIk2hMOw2g5Xyy++EKmRsrmI3Khm0gpapwasGTWwxuFt4R+HoI1hMax+DFfJM9hQ/UF7ykLbTWiNQmrb5wf5BtocI4bVDrQ+WrU14mxDN0eJQwutCweWRaBNMmBYvYvWpWHcFrmxPotujtKGFlqPADxhO7DWwNujeTyCNkyXntvgajQMNpg1Kl6IV6BDCPrecKb/guEtEiSeBg+qD8EVCBRsMjeAg+pB9Npjazjgh0XFpwDD6mX4qsPF9Yma7RR0kwTmkoSDKps7OFsy8FLoA34o34S3Sfg4JsGguhS+ysCRdNDjGyUGX42o15EK1hec4T028B+KjKcMJ0cYVHfDVxYpEg+s19HNEpFgd5A227pKwXrUDaz/oJslcmwyfMxzQO1h+AV8BfEj+Wfb0M2SiDcNlxqWWGpyqhT0+tQILvYaWLONWVusl867pN8yfNlwjuGHhvsNb8CzSxyph9Vsc76moGkIiNEnC0P/kVFxXAgaWKW9gEzs+XXTgXU0vG0YkEAMq66hhW4cAsDKG6MfwKgwbgYPrMPQzUOSY/WmhMUD5HR4+zCSBnJY8SyrTqx9YfcgRkXxJHpYzQ6s5egmIsm4JfTAOgLeRowkgR5UPMuqDydP2D+QUUGoulmoMd3B6GYi0XG6MKT1Azm0yg/0gBowtJ5X0FQkEs5+cBxY16GbihEn0INpxNCCNxYJj5cX3J/AKDAeQw+lEQPrEHRzkeD0vUBfjIH1AXh7MYIGeiBZDi10g5GAePvA70lyB7rJGMFiH/Qw4tCqi0Ye8H8io4D4B3oIOQ6sE9DNRhqzATKwOLTyD/QA8hxav1LQdMSTxvVvOLAuRzcdwy/Qg6fh0II3HnEnSO2bb0BeRzcfwznG0EOHQ6s69lUxsGaHFiOfmEAPGw6t6hh5naukA4tDK5t4FD1kAg+sPRU0IxnO+qA1D7sxhuZAD5hIQ+twBU1JBhC83uE3yNAY6MESeWh9Bt2YZCFRah1hYPGT8MoCPVASDa0z0Q1K5ohW5zgblePQTcroBHqQJB5av0U3Kok3rKINrNmhdSi6WWsP9AABDa3z0Q1bMf+NXt/4O2AAYh16cICH1jUKmrc2tiSpbZqdMBLGu+iBoQUFTVwL9ySrabodMRLE39FDQhsKmrl0Tk5az7Q7k1fgLV1uLEcPB60Y421T0NjFAall+h3K4fDWLizQAyEHjPHuQDd4QbwBqyNux4wAsR49CHLCmG4/Bc2eOz+E1hC7c7kR3vL5xsfQAyBXjPF+oqDxc2MTum6dmQFPQPaGt35mga5ZKSgYArnwXXSt5uaFgiQ6ichq9CDIIN6HrlNpGOP9QMFA0Mp2dH0WzgkFSfQmJNPwsaAv7kfXpXSM8d5QMCDUgK7H4PmgIImFScmY4SH4mMBHUdevygHhRyD2QtdgaH3QCQxPrtrvI06jta8dY74tCoZHSvZDa25VF3QC9olWEVNonUkvxnj3KhgmsdiK1te5HugE3BOW38PHSvi4FK0rGY4x3rmGaQVDJgR3oPX0rgM6Af/E5WOGHfBR4x/PGnZH60jckTw/x/WK4QNo7Rprj04gzCLka/DxYxf3GvZH60XCYcx3oeFdBQOpH88YlqI1Cqo3OoHwC5KjDc/AR1Mnpg0XozUh6TAGvE0wvzq+YNhgOBatQVR90QnEX6AsN6xJNKD+ZhhHr5nowRhwH8MlhqcCDqf2O5h3Gk41LEKvMame6ARwC5fFhhMNVxn+gAW01AAAIABJREFUZNg8e0bUfl3s3XmDaJvhVcPjhtsM5wgv50ICYcy4m2Hv9mtMhv0N7y/tV7lgWqETIIQQW+AJEEKILfAECCHEFngChBBiCzwBQgixBZ4AIYTYAk+AEEJsgSdACCG2wBMghBBb4AkQQogt8AQIIcQWeAKEEGILPAFCCLEFngAhhNgCT4AQQmyBJ0AIIbY034DIMsMaw6b2lcgC0t7eBFogQmww/40b1kbogTWe+bjsZxKo25RTrh47GDNMBy6MLRNoYxLSJsJwsuE9wzLL/JwGAVBHNw2UF2hg4dCGJfUhnd8k0N63HjAFDqxxmw1OoIszhEm0iUn5SOfXPbTX+zExIu9g24qk65TrUB21wWkFRbFaCCExyKAHVoXKHaCtc58P25imXwFHsQltbFIe4vqCMIgh+S8raGDNDOZQG9OA1YuRhNggnTeX0J62ZeAB23E7Ewn1dToh2vW8AItUA9rkpBzQXg7lfem8s6iuh3zXV0SxOLBISMx/q9Be9qDva1nmv5Uae8hxbRO7ntdnQxMBxJv5wNusWCuHJL1ylvZjQ7xmNoU2O8mfAD5sn9VMzvZS299jA/azrMv/U033G2g9Ewn0nfRdV6hiBV+keL6VjDY7yR/PHhgPuH+nF8sDD6yB20Hp2/PchhubTrA4rxfnCPFB3H/DWBsxl1ADy+ngn0Bjl3VN9Dy3ycYSmshlgeNo05N8CTUkEPkEXNdExPVMNlnT/I25fPVgMqGJJhzy4meyiDeOjT3wQ5ugfIa9XqxiEDfNY/7GptELCrFQtOlJvmjzmUtPypArO4jjO58a9JU+J0Wqi5VLbqQctPlM3H7rGfrbheOwmIiwlomm+qouVi65kTIQhZ9Zcswp5MAKvr4Q+/feIMBM6nKT4RcvbP+s/Q5n9Nc5hhh9Z26DLq64899mPjOHyNNyLatm85z/qe2dGo8H2o/L2cx0wjqGGlhOl8eJsBaXgdX33VfvDQJM63JF07EQwgUw0HysL8Dmoc9Eg7z6MZnIoH2bTPw/SDyVyGPRPs7QwG8j33By1DLYwdbVnwO347mY5O/EidvboUPPFnxEE88P87kWxEMXp++KeeB9sUTL7U/Ne06oi+Q5e1TcBpbXpYs9cnIZWCNrBfRpkP36CjOZolgNjDzUTK6iieNnRxwYS6QHJFfXWsXIO2JTqf0VesQanbwccL8u2k4N3E6MgRBJ6GAD1aVYEv+6YM6/IibIaRBjEUy6Zvax07HyjtRUWQ4sj3U2/rVQAn6konujLgMr+QvJgnm3ZCxWE/k01GzuSXIKlKtV47sa2gOrX2sdtzmGHjwNeilazWPvr3ujLr+/Jz+6SPqBFfq2ZcOwPmNNmJOXth65NnkTw4WRZ7Iu20MPnYa9NJVyrSH91b1R1QMrpKESNYgTlutP1dxBDGy5vWSvxaXyVw44auf9G5W4nz0PPbB0b5gDK1DhPIo0slAeeU85ajvpsO3xCE3RjdXHPyTw1TRDbks7rjXRsp+sihUqR48GmvbMd8phH1Oh1p9A4xivCXnlLm4Hh7EU/soBcXzJI7KfrPssq2KFyjF2E0XK2fZzYI3ewbUdABHM2qQpbJsvyMddkD0QsJdcP1fo/GuhuF+Ec2zkNnMqVsDmDypiKGOM2M5kqtqE2k9KT1nuJ9h37VA9EBLHPnBec4ztZ1WsUDmmXmvKnFPlG7hejb85EUhj61+TUD0QEol8o1WXbYvtyww+GwcKXPTAkgAXYEuY73iodafUeMQ2ahtYY45DZWTNu7Y97rjtMavtuhYcWaxQOTpsJ8h3Jh0aYdgF2FLm2yhXV51TeiNQnWA9EBrHoWK97mjb9dlBDuIG2k6QryCJ/WeNJhvmnHJgBbsyQEpvjNiG+o/2hCbaYOHAcsox1IurQUwp9h/4bHrLcQ6sZgPL5UOspQysccfhMm6xzbHQ29y1bdeChzKYh7CI7xKmHljTAXJOhsW6k/kpxL6kwoHl4y2L7QX9QG/Ptrt2ovr3d4embxNkYCFMEcpUKYi95pT6zm5j3GH9HFiJttez7a6dqP79XdwGVtDrYaU0RSgTpCD2mlPqG9pjOSEBv+8nkT+Q2r2jKYedIAYW7AJ+gfJvtM8mgyUWsdecUl8PnYsZWB7+GvZa61RIDy3YfteOtF/Ab9Ihv+CXSE5liECGSkLsNafU10PnZJcJD1mTUP6KvZ2B2+/a0bjDjhADK9hrbCkbKdQ+XY2QAk06p85ZGlzrPtbammgpoW4S4eahCec8u3Y05rAjxE0osmykUPvUWhctOqf2Rmh/aMjJcdgsOGmRBLcRU1+sGLk5bCu3z2Elr0sInTXtS2MPpMrJZT/99tX0+VY5ai9WjNwctjUeKHcOLA4sFd4fsZ/JJvtyea54vqykvlgxcostap/92Z4qN/0uYfK6hNBZ077E4QoG2nQMkZPj0Bnret5YijybJDuesGATDnmFvPttkBdWxf4Ng4GaamuikObXtC9RePeoFIPAZ1/dvebg8aADayqlOJFEnNBkgFDNlFu+GefsdKOPBN53ugclan+OPTrpnV+TYonHTUA9BAxuoNSGDLEvsTyCack35HZS5uzqD4l8f0LHXJJq2b2/VDk2Fkg8PkvhINxkjIKlXJ+Eu0TyhOV2JlMZNtV2Uubs2QNRPpfokccUYL+rHLzZuN4hRNpJ+xvaoW5r7fRt79iGTFX8lE0ZYD/FXV4mQA9MS8PXdsWx+ecR6mM4Uw1yGMXaRrkFFgyNlVl8tp2g8JMh847d+FLgFUe7tuVzX0k4IXRs0iMpckyarJaCNdiH1dFBPAwfKe8JB03GUPlqG1i59kDNA2sKLb4H1qeaCnL1KqQouVW9Q75JTBxpYHm/LAEi6EcsxPGOOpZMRRlYWps6lOkdtjupzWxonWcZL31gKdI6mYbz1u56Xas0dS6kYE4fr3ARWJvZxP0a3LB8kxo5jtaTaK0tiXJ9OqTPfQdW8CkbAefPgrkKHDN/TyNNo/RGD5HU+xLHD1ICaPSu24i1h/y1eDr6wIqUeCi8L6Xiam5xvwuILWMN1jCVWG9nw7nqrHFgzW5b64F7ItawiuD7IB8y194k/ZhEmTvkOgKaKoXmXmZLqUWKfUm8A5cr0c6qYvkrWD4NFjKZqDjTEv4dEG+Rpdk7ddGuUhmhHo2bIqWZkzdOxwdOX/htCOQa8qF6OFg+gRfXLmL72+5rZ4s5qqA7HzM5+7wkN7cIZW7pHHHXDFjnplkdxkFG21mLqSF1eG/239ag8iyNPrrb9sCuOkjk7yfmDDwByKITH40JIWGAJwBZNAcWIVkCTwCyaA4sQrIEngBk0RxYhGQJPAHIojmwCMkSeAKQRXNgEZIl8AQgi+bAIiRL4AlAFs2BRUiWwBOALJoDi5AsgScAWTQHFiFZAk8AsmgOLEKyBJ4AZNEcWIRkCTwByKI5sAjJEngCkEVzYBGSJfAEIIvmwCIkS+AJQBbNgUVIlsATgCyaA4uQLIEnQAgpAJE9DUcbzjHcaLi31b5RjMiWmTGjg7cN/zL8znBlq32VXZFD4doRQooEngAhRDkiHzF8xfCggpOklLxkeNxwiWG5YRG8FoSQbIAnQAhRgMgKwy0KTmpy4z7DqfD6EULUAU+AEJIIkd0NRxluN7yj4OSkZB5udV71Ww6vOyEEAjwBQkgERA4xXGf4u4KTDdKh/Xm0tYaPw/1BCIkOPAFCSABEvmX4r4KTCOLO/S1+vouQ4oAnQAhxRORIwx8Mryo4OSDhedNwCtxnhJBGwBMghIyg89mpOxUc+AmOcbgPCSFOwBMghPRB5GQFB3Wil2PgHiWEDAWeACGk1T6hal+kk5+hIj58Ee5fQsgC4AkQUi0ipyk4OJOyuBfua0LIDPAECKkKkbMVHIRJHWw0LIV7npBKgSdASPGInKngYEvq5tfwPiCkMuAJEFIkInsbfqPgwErIfE6D9wchFQBPgJCiEFmt4ABKiB0tBT1DSKHAEyCkCPgNQJI3d8N7iJDCgCdASLbwWlWkTD4B7y1CCgCeACHZIXK7goMgIbH5MLzXCMkYeAKEZIPIZgUHPUJS8yi89wjJEHgChKhG5P2GdxUc5AhBsxHej4RkBDwBQlTSuczCHxUc1AjRxoXw/iQkA+AJEKIO/AGMkByYhPcqIYqBJ0CIGkQ2KDhoEZIbV8J7lxCFwBMgBI7IIwoOUoTkzmJ4LxOiCHgChMAQ+YiCgxIhpcEbTBPSmukGfBKEJAd/ECKkZP4E73FCwMATICQpIicpOPgQUgvHwnueEBDwBAhJBv5gQ0iNPAPvfUIAwBMgJDrt36LxBxlCaud4+CwgJCHwBAiJish/FBxYCCEd1sNnAiGJgCdASBREvqzgYEIIWchGwyHwGUFIZOAJEBIckV8oOIgQQoZzPnxWEBIReAKEBEVks4IDByHEDl4FnhQLPAFCgiCym4KDBSHEnbfg84OQCMATIKQxIh9ScJAghDTjM/BZQkhA4AkQ0giRzyk4MBBCwrAHfKYQEgh4AoR4I/ItBQcEQkhY9ofPFkICAE+AEC9EfqTgQEAIicMR8BlDSEPgCRDijMg1Cg4AhJC4fAQ+awhpADwBQpzgyRUhNTEGnzmEeAJPgBBrRH6oYOATQtKyHD57CPEAngAhVoh8U8GgJ4Rg2As+gwhxBJ4AISMROUnBgCdhaF9p/23Dn1vtW6WIrDTsE8gn+xtOMVxleNzwjoL1kjBsg88hQhyBJ0DISPDDnbiz3XC34aOGxXAPtWZ8tLfhUsOLCvQh7myEe4gQB+AJEDIUkS0KBjsZzcOGM+F+caX96pnIz1rt27XgNSSj+TXcM4RYAk+AkIGI3KNgoJP+tF8F+hLcI6HpvMr1gOEfCjQm/TkX7hNCLIAnQEhfRI5WMMhJL+2TqoPg3kiJyAUtvrqlkQ/AvUHICOAJENIX/AAnHf5gOAbuBw2IfK3Ft6y18F+4HwgZATwBQhYgcqeCAV47F8N9oBmRGxTUqHa+AfcBIUOAJ0BID+1XS/CDu2ZOgXsgJ0SOU1CzmtkP7gFCBgBPgJAe2i/944d2jayE1z5nOtffQtewRn4Prz0hA4AnQMguRFYpGNi18RC87iUh8h8FNa2Ng+F1J6QP8AQI2UX7as34YV0Ld8HrXSrtC6vi61sT98FrTkgf4AkQMoPIaQoGdS1cB693DYg8r6DWtXAIvN6EzAOeACEziLyhYEiXzlZ4nWujfXV7fN1r4C54rQmZBzwBQowNP6NgQJfOVnidawZf/xpYBq8zIV3AEyDE2PC3CoZzyTwIr3HtiOxheFuBF0rmanidCekCngAhCgZzyWyG15fIrM/b9znkW+HxeA1eY0K6gCdAKkdkXMFgLpXX4fUlvbQvjIn3RckcDq8xIbPAEyCV07nXXYtEAF1b0h/erSAm34XXl5BZ4AmQyuG1r2LBGzRrRuQSBR4pkUfgtSVkFngCpGJEjlQwkEvkd/DaktGIvKXAK6WxDV5XQmaBJ0AqRuRCBQO5NHbA60rsEPmsAr+UCC86SlQAT4BUDC/PEIOr4HUl9oi8osAzpfFleF0Jac24EZ8EqRTeSiQG+8LrSuwRuUyBZ0rjx/C6EtKacSM+CVIpIu8oGMYl8Ry8psQNXrYhBrz5M1EBPAFSKSK7KxjEpXEjvK7EHZGXFXinJJ6C15SQ1owb8UmQCuFv7jE4E15X4g6vBReaTfCaEtKacSM+CVIhIgcpGMSlcRy8rsQdkVsUeKckXobXlJDWjBvxSZAKETlUwSAujaPgdSXuiNygwDsl8Sq8poS0ZtyIT4JUSPtaNfhBXBor4HUl7ojcpsA7JfESvKaEtGbciE+CVIjIMgWDuDTOgteVuCOyVoF3SuJf8JoS0ppxIz4JUiEiSxQM4tK4GV5X4g6/RRiav8FrSkhrxo34JEiliGxXMIxL4nl4TYkbInsr8E1pTMLrSkhrxo34JEil8DYhMdgDXldij8gqBZ4pjSvhdSWkNeNGfBKkUkTWKRjGpXETvK7EHpGNCjxTGqfB60pIa8aN+CRIpbR/08QP49J4F15XYofI2Qr8UiL7w2tLSGvGjfgkSKWIrFQwjEvkFnhtyWhE3lDgldJ4C15XQmaBJ0AqRmQ3BQO5VD4Jry8ZDK99FYsH4bUlZBZ4AqRyRJ5TMJRLZAe8tqQ/IuMK/FEqX4HXl5BZ4AmQyhG5XsFQLpUN8PqSheB9UTKL4fUlZBZ4AqRyRI5QMJRL5ofwGhOZ9foiBX4omT/Da0xIF/AECGm17x2GH84lsx5eY8JXruJzHrzGhHQBT4CQFi+2mIIH4HWuGZGtCjxQMtvhNSZkHvAECJmhff0m/JAuH3Sda0PkAHjN64BXbyfqgCdAyAwiP1UwpGvhYni9a0BktYJa18IH4fUmZB7wBAiZQWRfBUO6Jm6D17xk8PWtiXvg9SakD/AECNmFyM8VDOvaWA2ve0mIvKigprWxBF53QvoAT4CQHtoXyMQP7Bo5Gl77nBE5U0ENa+RyeO0JGQA8AUJ6EDlXwdCumTG4B3JC5F4FNasV3q2AqAaeACELEHlSwfCunePgPtAM70CggePhPiBkCPAECFlA+zMV+OFNOmyE+0ELIme1eD0rLTwD9wMhI4AnQEhfOgezFlHFI3BfpEZkD8O/FGhPukF4gRBH4AkQMpD2qyfoQU6G8Vm4R2Ih8qwCfUl/zoL7gxAL4AkQMhSRdxQMdNKf98H9ERORhxRoTHq5Ge4LQiyBJ0DIUEQ+pmCok17ehfsiFSJXK9CbdHgc7gdCHIAnQMhIRL6kYLiTDv+C+yE1vMaVBnhJBpId8AQIsULkBgVDvnbug/sAhcgRCvSvF3T9CfEAngAh1oishQ/6evkRvP5oOt8oRNehRlbCa0+IB/AECHGiff0b/MCvjS/A664JkS0KalILy+D1JsQTeAKEOCPyKwWDvxYOgddbIyJTCmpTOqfB60xIA+AJEOKFyKMKDgBlg66xdkR+Aa9RuRwLry8hDYEnQIg3IrcrOBCUyGvw2uaCyIUK6lUaJ8LrSkgA4AkQ0giR8xUcEEriz/Ca5obICQrqVgLPGw6F15OQQMATIKQx/ExWKG6B1zJXRN6voH45s9lwILyOhAQEngAhQWh/ZgN/kMiZ8+A1LAGR7QpqmRsvw+tGSATgCRASDJE9DdMKDhi5sQJeu5IQ2aSgprlwNbxehEQCngAhwRH5jYIDRy7sDa9XiYg8qKC22uE1rkjRwBMgJAoi1yo4gGimnhs2oxC5SkGddYKuDSEJgCdASFQ6H55tkR6ehdelFkTGFdRbE7fCa0JIIuAJEBIdkfUKDixauBdej9oQOVxB3TVwDLwWhCQEngAhSWh/kBt/gEEzAa9DrYjsrqD+KN6C608IAHgChCRF5G8KDjgIPg/XntR2o+g/Gz4J15wQEPAECElO+wbGIhsVHIBScRBcczJHHW9Z87NWpHrgCRACQ+RrCg5EcUFrTPpT8n000doSogR4AoTAEfkZ/KAUnlfhupLhiFygwCch+SJcU0IUAU+AEDV0PjPSKoBH4VoSO0SOV+CXpvwcriMhCoEnQIg68r7VyU/g+hE3RPZT4BsfzoBrR4hi4AkQohaR/yg4iLlwLlwz4k8+N4p+Ea4VIRkAT4AQ9eRx4DsWrhNpjsi/FXhpEJfB9SEkI+AJEJIN7Q+O4w9y/VgK14aEQ+T3CjzVzZ/hmhCSIfAECMkOPR+GfweuBYmDyBUK/PUDuA6EZAw8AUKyReQa4MHvn/D1k7hgbhT9Tqt970T02gkpAHgChGRP56v2jyU8CP4GvmaSBpHDEnnqL/C1ElIY8AQIKQqReyIfCPm2TW2ILIrop7Pg6yOkUOAJEFIs4a+ndQp8TQSHyBuBfLQBvhZCKgCeACHFI7KXYXPDg+Jy+DoIHpEnPP3Tvqbb/vD8CakIeAKEVIXISsMOp4MjOmeii/ataey886LhEHi+hFQKPAFCqkXkayNekXgZniPRici3BnjmacMyeH6EEJ5gEaKC9pXYRX7VdaBcB8+J6GbuHob3GXaD50MI6QGeACGEEEJIacATIIQQQggpDXgChBBCCCGlAU+AEEIIIaQ04AkQQgghhJQGPAFCCCGEkNKAJ0AIIYQQUhrwBEg+SEt2N+xh2LOL9t8XoXMjhBBCNAFPgMQqrCwyHGE4y3CN4Q+GjYYtBk3xhuFJw68M3zOcZOA90wghhGQNPAHiUzTZy3Ch4feG1xWeNMWM/xpuM3zWwKtXE0IIUQk8ATKoMHKI4QbpvMLDcIsrDIeja0gIIaRe4AnUjjkRONPwmOFt+GlJ2fGm4SfCEy9CCCEJgCdQC+bA/j7D5fDTDEZ3tN9aXWc4Ce0PQgghZQFPoFTMQfsi+OkDwzfuMxyB9hAhhJB8gSdQAuZgfJjhd/DTAkaseNHwJbTPCCGE5AM8gRwxB9sVhr/DD/sMVDxnWI32ISGEEL3AE8gFc0C9VjqXRGAw5se9hnG0RwnxxQy4ZYYD0HkQ3RiPLDI8YdgPnUsOwBPQinSuNcVguMQJaN8SYosZcivbR4AutqJzInox/thrnl928l10blqBJ6AJc4A8AH6IZuQa/I2OqMcMuS8NOEh2sxidJ9GF8cQxFr5p8wd0rpqAJ4BGOrdmYTB8Yzvaw4QMwwy5cwxvWx4gdzKGzpvowHjha47e2cn16NzRwBPALHrmQ+oMRtN4Ae1lQgZhBt02zwPjTvjN2coxHljT0EM7+Ql6LRD90AmkW6gca9gAPyQzSokH0Z4mZD5m0P0x0AFxJ9ei10RgXloX2Es7OQe9tmQaohOIv0C5H34oZpQWV6J9TchOzJBbEelAuJM/otdIknvq5cieanOFYQl6rVF1RCcQZ1EzN0pmMGLEONrfhLQxg+72BAfBnfwHvV6SzFepPNXNF9HrjqIlOoGwi5EJ+OGXUXLwRtEEihlyu4EOgG12oNdPonprOdBbO7kZrUNQTdEJhFkEgxE9dkf7nNSLLLxmFZIPoPUgwf11igJfdfMEWpMguqIT8E9cdocfchk1xBtor5N6MYPuSgUHu358Gq0NCeaxyxT4aRCvovVppC06AfeE5XD4IZdRS6xH+53Uhxly+xs+quDgNopL0FqRxl77jQIf2fAuWisvfdEJuCXLYCSL29B+J/Uxe3KFPpi5cBdaM+LttWcV+MeVabRuThqjE7BLksFIGhegPU/qIsMTq26eQutHnP32jgLfNCGLb7XCExienGyDH2oZtcUn0b4n9WCG3PsUHKxCMI3Wklj5bakCr4TkMbSmQ/VGJ9A/KbkMfphl1Bi8YTNJhhl0OxQcoEKzJ1pXMtBvxyrwRyxU3ooHnkBvMnIB/BDLqDF4w2aSDDPozlNwQIrJUWiNyQLPfV2BL1JwBlrrHt3RCXSSkMXwQyyj1vg32v+kHhQcgFLxFbTWZJfnfqLADyl5C635Lu3xCchD8EMso9b4Hdr/pA7MoPutggNPaq5H6147pgaPKfABiu/D9cftWI6FH14ZNccV6OYj5WMG3fEKDjRI/g9dg1ox2r+qoP5ooLd3Au1UnoUfXhk1x+no4UfKxwy61xQcYDTwIroWtaGg5toYg9Qh7c7kU/BDK6P2OAw9/EjZmEG3TMEBRR3outSA0fkgdJ0Vsyl5PdLtSM6FH1oZtcci9AAkZWMG3SoFBxLN7I+uUakYbT+voL45sCRZTdLsRLbDD62MmoM3bCbRMYPuQQUHjxw4EV2r0jCaTiioa05ck6Qu8XfAYEDjb+jhR8rHDLrXFRw0cuJSdM1KwWh5r4J65sjt0WsTb8NyCPzQyqg9fo4efqRszKBbrOBAkSu/QtcvdyTPGzZrIuq3DCNtlN8SZMDjfPTwI2VjBt2RCg4QubMBXcdcMdq9q6B+RRCtRuE3KH+DH1oZtcdx6OFHysYMuu+iDwoFoebK2zlg9NpbQc1KJPiXoAJvTP4EP7Qyao990AOQlI0ZdA8pOBiUCG8UPQKj0QoFdSqZQ4PWK9yG5K/wQyuj5tiGHn6kfMygu0fBQaBkPoKusVak/JuEa+FTwWoWZiPyBPzwyqg5NqKHHykfM+huVzD8a+Cr6Fprw2hyi4K61MQhQerWfAPyKPzwyqg5HkAPP1I+ZtBdrWDo18QN6JprwWjxZwX1qJHGJ1kNnyz3ww+vjJpjNXr4kfIxg+6bCoZ9jTyMrj0a4f0s0TT64HuDJ8pN8MMro+Y4DT38SPmYQXeCgiFfMy+hPQD0Hlp70sH7JMvzSXI+/PDKCBUvznKz4QLDCsNeQQZES5YbzjB8XzqX79gWKOeg3/QgpB/GwPsqGO6kXQ2gDwC+OwStN+lhvXct3Z8gH4OfEjB8YqthjeHT6AHS5aX3G8Yd18EbNpMkKBjspJcD0J5I4LkvKNCZLMTrriCOD5bF8NMEhm3cJoFeiUo+ZFpyZp/1vI7Oi9SDMeE6BUOdLOQktDciem6zAn3JYL7sXFO3B8tm+GkDY1C0a1PkNWTMuk5B50DqwRjuIgXDnCykfUPtA9H+SOC/0xVoTfqzzKmW9g+UW+CnEIzuuNHwpGEpeiAQUgpm0B2gYIiTObYYjkD7AujHww1vKKgD6fCqU/3sHiSfgJ9OMHbGFnTTE1IqZti9qGCI185/DKeivaAJo8duhqsU1IZI62brutk9SN6Gn1bUHRsMn0A3OSElYwbdjxQM75p5A+2BXFBQq9oZs6rT6AfwrUFwHI5uZkJKxwy6fRQM7VrZga5/jhjd9ja8oKB+NbLeqkbD/3HmOkaM9PGc4ePoBiakFsywe1jB0K6NR9F1LwGj41EKalkj546szfB/nLk4JCNt7I5uWEJqwgy6FQqGdW18GF330jCa/kBBXWti5Oehh/wDP9ieOHgHeUIAmGH3tIJhXQtnoOtdOkbjfyuocy2cNbQWg/9B7oOfclQS6IYkpFbMoDtYwZCuAnSta8Lo/WNpP5WfAAAcT0lEQVR0vSvhuaF16P9DORh90lFJ8MOdhAAxw+5WBUO6dF5A17lGjO7HK6h9DawcWIP+P5SfwU89yo8JdAMSUjsKhnPprEfXuGaM/osVeKB0Hhyof/8fyjb46UfZsRrdeITUjhl0X1EwnEtmA7rGZMbnhxg2KvBDyfS9hU6fH8jn4KcfZcdX0A1HCJk58DyhYDCXyh/Q9SUL/I72RMlc1lfzhT+QB+CnIOXGLegmI4S0+NZJXN5B15f09fxKBd4olSf6ar7wB/Iu/DSkzPgvusEIIR3MoDtLwVAulf3Q9SUDfc9vF0air969f5Gj4Kch5QYvIEqIEsywuxc9kAuF1/NTjqnROgU+KZFTFmjd+xf5Hvw0pMw4Dd1UhJA5zLB7XcFALo2+b5MQXZg67a/AKyWy4Mtr8/4ia+GnIuXFenRDEULmMINuqYJhXCIHoWtLrHvgNgV+KY0F99ac9xd5BX46Ul4cj24mQsgcwgswxmAKXVfi1AOHKvBMabyxQOfevzACxwLBCSFYzKC7QMEwLo1z0HUlzn3wogLflMaiHo3n/iAfgJ+OlBc/RzcRIaQXM+xuUjCIS+N96LoS5z64RYFvSqPngqNdf5Bj4Kcj5cUX0U1ECOnFDLv7FAzikuAr9Rli6naSAu+Uxkd6NJ77g5wIPx0pLw5DNxEhpBcz7B5VMIhLYj26psSrDw5R4J3S+GSPxnN/kNPgpyPlxRJ0ExFCemmfECgYxCWxFl1T4tUH+yjwTmmc1KPx3B9kHH46Ul7sgW4i4o6p21/hzikr/oSuaU99eYIVmgfRNSVefcATrPCc2KPx3B/kVPgYLi/2RjcRccfUbT3cOWWFqlc4TIEfVzCIS+Iv6JoSrz74kALvlEbPZZm6/iAnwMdweXEkuomIO6ZuL8OdU1b8Fl3TnvpK6yEFg7gkXkXXlHj1wWcVeKc0xno0nvuDHAkfw+XF19FNRNyBu6a8uBld0576SutOBYO4NJai60qc++BaBb4pjff3aDz3B9kHPobLiz+gm4i4YWr2UbhryovvoevaU2Np/UjBIC4NXpImM0zNNirwTVEs0Lj3L7IDPorLih3oJiJumJrdBHdNeXEWuq49NZbWaehBXCDr0HUlTj1woALPlMbLC3Tu/Yu8CB/F5cX56GYi9ph6vQN3THlxMLquPTWW1nIFw7hE+DZhJpha3a7AL6Wx4Ms88/4i98JHcXnxJrqZiB2mVtfC3VJgoOvat9bS2qZgIJfG/ei6Eivv76XAKyXy/QVa9/5FzkMP40Lju+imIsMxNVoEd0mZsQld27715qUaYnEiurZkpPf/osAnJXLUAq17/8IbPkcMvnyuGFOfKbhDyoxr0LXtW29pXa5gIJcKL7CsFFOb7yjwR4ls66v3wh/If+Ejucx4Ft1cpD+mNl+Eu6PcOBZd3741l9YKBUO5VDai60v6ev6TCrxRKr/vq/nCH8jV8JFcbjyMbjLSi6nJF+CuKDfeQdd3aO2l9Y6CwVwqv0HXl/R4/WDDvxX4olS+0Ff3hT+Qo+Bjuey4GN1sZA64G8qOSXR9h9aeFxyNzfXoGpNdXkd7oWS2D9S9/w/lTfhoLjt+jG44MuNzRtw4CV3jofWX1qEKhnPp3IOuc80Y/fdW4IHSuX2g/v1/KFfBR3P58Ti6+WpF+GWOFPE6us5WXpDW3xQM6NLJwgulYXTfQ0Hta+DDA2vQ/4eyFD6e6whe6T0xRvP74FWvI65A19rKD9I6S8GArgJ0rWvC6D2JrnclvDi0DoP/Qa6Dj+h64kvohqwBo/Nv4ZWuIwZ+JkEjxhhvKxjUtfBZdL1Lx2i8XUGda+H0obUY/A+yBD6m64qhZ8LEH6PtCfDq1hV3oGvu5A9pfUPBoK6J9gktr5UVGKPpkQpqWxMjL6I84h/lCviori8Gvp9L3DF6boBXtL5YjK67s0+k9bKCgV0bW9B1LwGj4+GGZxXUszY+MbI2ox/AAMQLhoPQjZszRr/H4VWsM1aja+/lF2l9XMHArpX254WOQHsgN6Rz0/J/KqhfjSy4sXPfGo1+gPwAPrLrjg+gGzknjF6/hles3sj6FQljnnsVDO6aOR3tgRwwOh1reE5BvWrG6i1uu4LybRYNcTi6sbUinRs174BXiPFxtBcae0la6MFN2pUAekArRpdV6LqQGc6zrpndg+RI+Ohm7AxeP2vOl8fCq8HYGVl9sH2gp6S1UsEAJ3NcjvYE2I/HGx5WUAfSwenLaA4P5D0KFcZP0QMg+cBpyUq46oz5kfVbgws8Jq31CgY5WchdaG8k8t/pCrQm/dnd7Xjl9GB5Fj7KGYPiecnw21uWvrsLri5jWByI9kiEg9wbCoY5GcwWw5fRPgnot9sVaEqGc7b7scvpwbKbYRt8nDNsov0tuo+gB4e7IeUAw9fh6jFs42toz0Q64B2lYKATe6YNE4bD0N6x8NZh0rmswjMKdCN2/MXveOb8BPkofKQzfGKL4TeGZegB0+WlwwzXGl6Fq8PwiV+gPRT5QDiuYLCTZqyTzofD9wf459OGS4QnUrnjfS9NzyfJ+fDRzggV7W/ftb8lepNh3HBwoJOn9jf7jjCcY7hDOtf2ehu+WkaoeBJ9ApToIPljBQOexKV9AvSAYY3hUsPZ0jm5/ox0vvTQ5kTDFw3nGi4z/MzwiPACn6XT6H7BDZ4ot8JHPIPBQMT/0Cc+iU+y/k/BoCeEpGcp5ARr9iTr/+CjnsFgpIxGv9Hlihl2GxUMe0JIOj7YeG4034A8DR/5DAYjVSxCn+wAT7K2KBj6hJD4LA8yM8JsRDbDxz6DwYgde6JPctCYYfeiguFPCIlHsC9EBNnI7EnWy/Dxz2AwYkWR11jzPMl6QsFBgBASnr2DzoqwG5v5thiDwSgr1FzaQwtm2P1CwcGAEBKIKHMi/AblbvjhgMFghIiX0ScymjHD7jz0QYEQ0pxoMyLORuUb8EMDg8FoEq8Y3o8+idGOGXafQB8cCCHeRL2eX8QNy3L4IYLBYPhE0Vdoj3CSdaqCAwUhxI1bo8+G+DtgMBgZxenoE5ZcMcNuq4KDBiFkNONJZkKanczcB4/BYOiO6i/D0HjWSesiBQcPQshg9kk2D9LtSL4MP3wwGIx+sQF9YlISZtgdpeAgQgjpZXPyWZB2Z3I4/FDCYDC640L0CUmpmIH3toKDCiFEWjdDZgBmp7woKYMBjq2GJeiTkNIxw+5uBQcXQqoF2v+4Hcun4IcYBqPOWI8+8agJM+z2MbyOPtAQUhknw3sfn4A8DD/cMBj1BG95g5p10vqpgoMOIaVzD7rX585vVCQhu8MPOwxG2TGO7nPSwQy85xQchAgpkb3Q/d3T6+gEepORs+CHIQajrPgluq9JfxQcjAgphT+h+7lvj6MT6J+U3As/LDEYecdGdB+T0Zhh9wEFBydCcuUZdA8P7W90AsOTk1fhhykGI7/4NLp3iRtm2K1QcLAiJBvQPWvV1+gERicoi+GHKwYjj7gK3a+kGcL7GhIyFHSPOvUzOgH7ROVI+OGLwdAZx6P7k4TDDLsPGw5CH8gIUcZJ6N507mV0An5Jy/PwQxqDgQ81X0cmcTDDblzBgY0QFE9IohszR+lfdALNkp+5GjWDUVvchu49khYz7C5TcLAjJBXbDB9E913jvkUnEGYR8g78kMdgxI0XDSvRvUawmGG3SMHBj5BYFHXjeXgCYRcjN8MPgwxG2HgX3VdEJ2bgPa3ggEhICC5D91OUHkUnEGdRcrphG/zQyGD4x1HoPiJ5YAbe+QoOkIS4st2wP7p/ovYmOoH4C5Qn4YdKBsMudhiWonuG5IkZdrsZXlBw4CRkGF9A90qynkQnkG6hcij88Mlg9I8PofuDlIUZeGcaXlVwMCWkTfv+m3uj+yJ5H6ITwCxaJuCHVEbtcQW6D0gdmIH3eQUHWFIfLxqWo/0P7T10AmjMge5z8EMto5b4IdrvpG7MwPuOYYuCgy8pk/Zb1FWfVPX0GzoBTZgD4Efhh2BGafGwYU+0twmZjxl4h0vnVQb0QZnkzV+lwrf/rHoMnYBWzEFxH8Pj8MMzI7dof3v1E2j/EuKCGXhLDesUHKxJHtyK9mwOwBPIAXPA3NNwP/zQzdAYLxvWoD1KSEikc+X4fyg4kBMd/ATtyRyBJ5Aj5oB6suF2+KGdgYrNhk+ifUhICqRz+YcvGJ5VcKAnabjHsB/ae7kDT6AEzMF2sWEd/LDPiBUvGc5G+4wQLZihd5TwLcWS+ImB1+ALDDyBUjEH5C8b/g0/NWC4xruGuw2Hoj1ESC5I5zNcP5bO1bnRJwtkOBsMp6M9UwPwBGpBOp/juszwKvwUgrEz2jcJ/73hOLQ/CCkNM/T2NFyr4ISiZtonU3z1HQQ8gdoxB/czDX82vAU/3Sg7Zt7mMxR97ytCtGOG3jLDDwzPC682H4rXDWsMR6DrS7q8jk6A9CuKLDKMGx6QzltWDPu4wfAVdA0JIW6YwbfI8DnDXbMnDOiTFm20bzdzk+Ezht3R9SIWnkYnQFwLNnPy9SnDj6VzArZVOt9qKz1elM5ben8xXCH8Fh8h1dF+hcZw+uyJxpSCk56QJ09/kM7lMQ5C60wC+RWdAIlVWNlXOlemXyWdS0pMzZ6I7YCfKvVG+8TpIcPlhm8YDjfshdaPEJI30nlFbLnhBMPXDKsNdxj+JJ1rfLWvYv+a4R3DDsM2w/SQk6BXpPPK2pZ5z9lqeMnwd8Mj0nkF7krD1w3/394Z3ratLFF43sN9/1MCS3AJLMElsISUoBJSAktwCSwhHd0XRrQjO6YskXNmhqsvwAcECCKeOTu7HO4ul0+Lhv9m+wEJOZgtAI7Br6LnP3aePfvHzsdS/G/5OwMHAADAB9IFAAAAALRGugAAAACA1kgXAAAAANAa6QIAAAAAWiNdAAAAAEBrpAsAAAAAaI10AQAAAACtkS4AAAAAoDXSBQAAAAC0RroAAAAAgNZIFwAAAADQGukCAAAAAFojXQAAAABAa6QLAAAAAGiNdAEAAAAArZEu4EuBZt0vnn7R/+L7BS+f8O9GPv7Oj4vrPC/X77K9AAB4VH79+baMxTPDxRj945MxfNp4L/h55V7QL9f+lu0FHIOci/4plvYURdWYO/Rpji27UQEAqrMUTM/LuNnKveBlubd1Qt9U2n9m50RSHuryQdx5Bjs/EWQnfTajUXgBwANi5wfqscA4nH0PeHLy81mo83t2vgTnpjIvf3gK/Wbn6dTsRD4Ckzl1NgCASth5Bid7jK1Ov9PjSajtIZZATVuo/vv7Gg4ixwLJemSm7EQDANiD8XC9lU0zRnae0OCetC9nle3a/77GDnFTgeRsiYdc/waA48J9wI27Z43svAVHpWfIzi1x3iofCMa362wQ1hdIxpZpOrEB4PgYy4AK7t42Yto9zk0uFZq4hnl3LTpVSX5kJyEAwGcYs1ZK7iqy7HyMkUrLlJ1rovxVtt/zu2vdIUq6IQz+4pSdiAAAlxhvhcvZ0CYnoZ4hO+ec8zdkafDtejeKUm6og3WePZMLAGArxsxVFHevYIj1NLFUaPrtTX/5VLVjzdc7LYakN66dT++dl0fH6M6WHTsAgGlnSdaYx9vBEo+0sT+nxkffA7s7dfZCLVN2/jm1pXL2dfj0mjeIUi8NzkEfcqZm6XzqE4jZjwUAaZh2n88r8zjaZcd6ox9PAX5smcVSLn8N2b7vbLOT0Jtp9bo3CFNVfauijohpC630WTwAeEzEY9tLdnw7fJG+9LVRk0zPUe9Dpn9AWPXlK2GqSr3JM59MN438UJ8vAIAaiG9Ohy2uLvxRzhptObZBueI0Zfu9sY2US4Onq9f+QtgoEtVnmy5qSNlglB0bADwepl1aOeSMyCceqfzZesq76r49M2T7XSh/v5woykicJmevLjxTTafz7UIACEV4c2pmb6npZrEqfkZn5hCFsemXBrsvNVwRp1oebHq5y3RTtE37BgC1EN4DZpp5YDTdJ2s2L6EKNe3SFdwuk9CD000arohTbeBrpmNd8e5hkxoA2kB4D/g3OzZnn1SF6K4xX1xglH7z37QF5s35e02gZKkr2/igxpVsqnPQ5aln6/T1PMOn3Bg65+18Y+iy88Apl/olHvVxINf8PC3tVmppwDPGHbk8inyffzf1Jma6/StNPSxa3QKrU44N2b5fiVu9RNrfrOWKyHIJcxSs6D6saC0Wc07YrcxFXakC4YNX8816KuDTPcx604oAxzi+HJfsfLPKzuXQMwOF8Ta13cGKFliLtpMwH8ds71dinoQx37V38HAJcwRMN7W+a2By1vJpgWXH+GblZMkzXEsfa+27bvMNOayIddS92q+sdtErLbaEsZdeXmoN044zpdrSiiwNvulZEckG95qNXKbA+uS3lct+Srrg3DiqT/ciH3gdtX7/8LtdAf/uQfJGnlBv8/twK2Hib/BlxxeUszN3j2lrIkvOwBwFKzoDqOhUJn5iCGIKyIkWfLoX6ZEsjjqfL35zLODbVlwLl6PohJvaUvlgN2bHt8So7LubYlwTyhuE+xq69QLrZfm9ppa4hPmQvXcnG0m/99ZXwCcP3B5iVRqzx+dHRZx32S9kSLembNa1IrbkJu2jYO0XWM0iyIUpO6YidAJvvbT1Bfzx5FTM33dkj8+PihUtQirn6sKwWdeKWAqsog1eUdMNXL7qPxef3Rc6nxbmmdR5anuK1OqYAxH7rV69HV59u0HXtwuPBws6BuIofexGpqV9v/R9+fc+yueFvqq/2WPzI2MFl9GKxzTt0rYiWDUIlH1NXtDo5QYnYRJeMi8bSgtp07+Bt3u62zRPi5MFbso3/4HLdTN2UD5Lc9qEr9FX9TcqfyG2XRdClwpN/9b6rpoltAGyE6uFJK6oaWFK8nmq5rPI67SHE/MtZt3iEOfzTOSZU0M1/Spfs/IYpLmW0r7i/j/s1hcpOjuxWmj4ipos+cOtppkF2HxzMv+nqvSZX8dYTgU1fWRI8th772bJPZvZuQy/23YS9p8xKAblFgyXN6DXhNOx9jd+OQ8rJ6KD394Dxp4PrXousZc42sQc3ywu3se6ZJ89bxq7+qYV/eQXuOSZ+nMy6kNwe7H+zkXniniJ6OykCk7gch6KNPXZXi+xuXe4Ij532d4uMXnOrrjsZ2oxl73zeKcWvkfbMKb9jI60nZW6zXOWPVJ8dkIFJ285D6vpOYDndxcCVugGWdhfl1k557Yes/1dYnJdJtyphQKrcUz7spDqCwPllwbftK4EIBGfnUzBiVvOw6N0oB3xeXe8uwsB8z2kt9S3Ox3jGovpmSlzhEyh8YICq3FM/1mo3llvfyi9K0FIxGcnU3DiKjycimkqsT/oIr7BOb67CxzzvSm1WmC5xOXZ1tneVozLdEtIZYpZ+N3O0vP6nLUeasZtLYjyRlfGHuck91IDpcD37AKrWZzau5QexzwuEZfxybSHQdzfXQoXO+CesbVAeHtkXyI8SoHVZXv9Ib4uO2eVA0BLOLV3KT2OeVwiLqPAehhMv/S2q83tYEuZb7pXguFTOfuSQVVgnXbqctWT7XPFGMWDQDNUa+vsvK0Yl+nGsVJbC+CtvUdhn997ZMgk1DbKPF0JhgJrXzKonvx2DUzeerJ9rhijcBBoimptnZ23FeMyCqyHQ9zvh42ahupj0ar2lYBUBUKfnUBBSVrSvyMl5lFjVA4EjbH7YavVXK4Ul6jtx2yPBW2mKkZDc9PE3/YrlIOvaA9EXQmo5AzMUbCiM4AVOkuA96kxigeDlugrtXV23laNyzRLM6Xejq3Ybpm5KWrzV+7a8G7aNxzlebgWVMlN2kfBir4kUE2PyPvUGJ2vX+qcsWq0msuV4jLOwkppt0yvTP8Zne5GHZ1Yh/wbr80nS0MdbXdxKtBUak+dYGBIP6Yh29PKtOpzpbiMNwlT2i07N02772m6UcMk1DCE+HgluJLLXNUx3Rr27uXV1tvSGjwHK9vTyrTqc6W4BH3KbTyrhOlmfdJWfUx7qOfVvU+m3Qs2hXl4JUD2YW1LyrKFaettaf5PXacNGlz7TbanlWnV52pxCcaNmaa2i5juHKnMAqsTxTRz9dgG0xZ3XZiHVwJs4q2IVhLSSV8znX8lvgrfIhycNZSaJaxEtf7Valyme2jssr12bLNR5FHqQ6xpT08fVq45CK95CvXvC3NVVWSTm3dNt2bs9akBd23Znovju7u4Mf8HkyHb16qQxzFxmW65Zsz22smfXuRPif4vjO3T/BReb9dhp5u8+8LYoeXEcU5C5eukLrMYIm0llglNMMgV8bnMLGG1nK7Q1tV9rqjpAyXGjx2+lHjjThxjL4zv9OFap5a8zOxYM5MFvCopTj7ZUuqC2w1WpTG7DZbYJue4xh1avIvt9GVC7zyvls/Z/laPS5DTH+myfS/oyZQdY1Cs35ZrKIvVlFWzW4wdxEn0yrwc+d2KF1x23mel7liXuN1clW3XYOff7LsJiu4Cee/qcbV8zva3elymP5PokrL3ATvfD5UbsN/5kB2vKi8/MC6/P6qukebZjcZOgZ1rjVnDvNnytHTAOdGfLtmQMJf/v19+9/tynQoxu1bdAXrDZ1pE7TQV1dWlDBL+e3DGavmc4evR4rLYB8s1XhYdf90DNsRzOf4/W7HxPzsPA8aBS5R+92meZXR6uA1BB4nSLp2OtfOAqHyK3N0hrYGNr3aesp8E+svtKYzws4W4hDkN7wnp4xvafyzgzT2kvlB3j7FdAbMeCfcp8uR4Rjs/Hfb2xQ3W/jxVDnaesZwCdbp1SIt74v9pf57qX737Mn/s76d31ev47/KgYj5nDsJHisvEHwOG30zZOXil/dWb+l1J96tlcw+MZP9Bgbiq476XzOL2axwBV389tWUPxEeKy3SHUEOxXFxp/yHboxu5elp8iFcbDZ4KmNcik7hjuOpV/GYiso36RpE1437chKe+7IH4aHGZdgn8UUl9WejO9p8K+HWNMduj3z7tMLgrYGJLdAGdwlXzxe9GLC0pkXdGq7FBOAtJbntqzB6IjxrXg+e1J6XeGLyh3bsCnqXl/c0+OZl9yjb0oJyCO4Usia14h7tCF9wGU4GYm/DWU2vG4NtSXMberK0c9qsmVve+P2R78+aRqKOxJPI580xP2qGR3vGsXKOz+kVE+unodpx9DPcS9iSuzuUW+mmS/vnFiaPPaiuZZ/1KnvO1oa2r3eunbE/e+RPQAPPG+OHBOtycdCdLPH9jpS1c47zhepUG2tKDmp03DlcbrG4h7VDIyFwmrt0xPdtjLieOVmCztbBd+wIeX1JqjM8X8P51/PlmXPkm87Iw31TmASP9EyZ3eu3qx0YNz6Y9S+Vlyacu22+H9pofTnqLO0LhM34u7VXO0+xcJi5Jno+JuX7vOPN6NMqsvdSNPbj9qhTOp2wv/vImWwAENrZzQmfHAwAAUJV0ARDY2BRYAAAAIaQLgMDGpsACAAAIIV0ABDY2BRYAAEAI6QIgsLEpsAAAAEJIFwCBjU2BBQAAEEK6AAhsbAosAACAENIFQGBjU2ABAACEkC4AAhubAgsAACCEdAEQ2NgUWAAAACGkC4DAxqbAAgAACCFdAAQ2NgUWAABACOkCILCxKbAAAABCSBcAgY1NgQUAABBCugAIbGwKLAAAgBDSBUBgY1NgAQAAhJAuAAIbmwILAAAghP8DnarGAbaKVl4AAAAASUVORK5CYII=;" vertex="1" parent="1">
          <mxGeometry x="579.05" y="110" width="48.71" height="60" as="geometry" />
        </mxCell>
        <mxCell id="zP974PlBZuE0hn4As67i-49" value="" style="shape=image;aspect=fixed;image=data:image/png,iVBORw0KGgoAAAANSUhEUgAAARgAAAEYCAAAAACi5bZQAAA5iElEQVR4nOx9CXzUxfX4m81md5GQBAEJEpAg4K2oeIAKiIDgBbaCKFCxitJqK9b7r/5qPSpWUVttPfHEGsEDFEUBAfFCRQGtyqXhCJdgSSCQ3WR35//5zvlm5rvJJtmNbeV98snuznfO95158655E7yWAgWq/iApf75bAhq2Hek9gU9QWtmR1Mu3qhPKVlbC0hYN8H4QytJWdmD1VZTIBICyMEv6sScquiQ/6SVWHY/SPuT59sOtrvP6ATAAZZsvPn3SSkRRr+myMjebTHMhyP57GOFACSUUSBKg22CU7TkgSUKNtDmivaEo2z8ACFhpK1g2wopSAjRAYU45G5yRbYnXLhAYSolK+4g3YbS6juNXFaVEIWao+A0UiEiTRb3UOWWAW2XjnFMHYojABccN8XDkIYHkhHQuQtiYAKfl8CcQMitktRhphHppRlHeeyMbxwuFEBs3wg74tOoVNbIAahU/8IrK3zlmNiPNhSAbCQWgVI5KzJgca8TeQ3N01GmHZ8PIogLh1BwdlTilRHRc4EUXZU9oasS44JPmW9TroZXmQpAPRXSBv1yWAMGIkZGhC6cFWRkKRjbKpxxOI7ywKMqwEGQNyWzijRJG2+zqWEsRPQuCIi3iMxafNKPDdjZKVJofYogmMCI/H7GBGE6QidFOnK06CBM0fQkvHMHTmXj0HHeRBoFPyggjaaAnFgFenT06XZ0anSyJICJmmXzNAjEiURXFLdSFGCoJi1xHYt4ErdfuNWe8uzjP2UKNl6Au6hReM7Hfndf5MAGbnujqeA0ANk4VYgShRa0KZGm8oMlGSdBpQaf5IYYIskep3p28dWMtJbBnUZBqJFg9NGYrx7xZVExTAwlem5Sq9ymJk0IMr99ADICNGLsvYsYAuEtJLOrUiKGC/BJOk/ieBC7x9VZJvbsSWyJmGmG1OUW9cYeMofH3HLYaZT2hDrVsCvEFN82FoGK7KCeIaibm5OJ3wgZnbi18X4Vcc6mzeRcCsT15750aG5qXkgNqQ0MvnBobmqI+rKiaHzmivyG2Y/BGNGIcsiO3ay+bREIu3xAY6al7V8LEV32lQXui69WuZiE1iQIVMwHtD5SINaKLUrErGduIfDtqZaKGrb2QfUYE2nHeMJ/0uLTfUmohkzyiWQdiKEKHIMEkaXV7p3x5eh9hnDmhECAhNbNiRDBzKG2nJOpqaXOxwxsECSs0x2QfvDQx4JjoUzKs966EmOA1rYhg00lM9jIQUjuVTEuEiWSVaEKk1eTr0SbqQAyAbIK9bipf6zaEmBdbc6RtRTPmB96HvLKecsTwbR7/2lakeflKW/Kv62V1lMB6/i2ki9Jvc0V/ynqq176CLTkCa1pISYWS1WLuvjVOvfYVspffH60Wvkxb3UIhAVaLr2+N4y/XG+XqOhBDBM9LOcehmIAfPj5VLuANL/ThlW/cXCJQDRs2FbN8+716ouQRYfa+lM227q+cKCfwhikdebdWbDlAbKZQvrIlK9ry5RM56SJAZ0UE7Z1+opgwlLyey+nep1u6ULE1bPhMzOr7hnSh/JXCDDmWaScK9plQmfbR5hLJ25R/KtLuO70L53UIfPRpSsQEFPliHCpI9pxAtz9Uh0Mcnj8mwJ8f8Ar7HQ7lhp5rLypYXh0K5YbDoXCoen7A6wQhgSXVIVH2uaIA8UQtUjg9nMvSwuFnI0Iye29rOMxKhqKvCbpP5nnVsXxbpjP2CYBMk7XlPlMrisamhbyioVA4+oIcyxtR1rVwOKTSEtO9ol4T4afl8opND4e8voRD1efH6kAMwSRG/Gd7ae9rk7w/iz5vKTLkfrjI63ZuiE5enCtyF129h/c7eXUxT6Gw78QkH8miuSFRb87ri8KhUG5uKHfRW1LMipy5iA03lLgyjwjRIXBFko/lvdNDsmNPL8oNhb23seg5LjcAwOOLclnR5AQ1ltiEZNhDS6hapz0+WfbkOZ32nld/KDcxISVaAHL6UETGBYPH224JT+d0LNj99V/ePlBlb/3mynjbwq0zb9ncQRQgweq/rW9bBOveujGuqFLOrqktOhbWfjnp2X2BCMYxMmMh7Vi4dcafSluBmJiB0Kvl+7Un69/63Xql/ghsLC1sk0eX//leQmRfki9/kNOxcMuMWx5KiKntzYXt7YsiW2dc+oUeTNn0Nm3z6PI7f7tGJSU+nN6mY+GWz+67rVanTd/evrDl1pnjv6gDMeRarpaiJKnUVUx1xb5WboyGWnYkSJVFExX/jkXatZTZ2L/4jztJuKAFLyc0XdU7akmLQlWSJcd2xoMtQ0zlJdqhtDpKAuEgS+IVUpqojZNALogcvIpkwtvFZEIzABEaPDXKJBMikUpPf4ckVvUZej+NUGrWxxQaunZIiseECsQAzmzUatZloKkZICDwwz+oEBd10+Iro4JCccKpgSRJ8p/VWwIAViIBNCZezKuLyoUlCxFqlBUNmCWzDwG+F1E9XGC7iBoNGiEx+kgYiVZZVSmCChL8i6L6lZYBpOjOKiaqL4RIUUV3DMAUAbIKATlUqt4TleKNmgeUKP0A0bIVBdxJc4oT8Vhon4zMKieX6FU7grtWDav3oLUIpLnQopaSmqDE+S9njUQcJXruA6CVBuY8J3JyEZ0VP6ZivhHFIFhAiVpxvKxPnuxBAM9SMFY3kSKh0tGoxebTQYUh9NoJksF0jaDxi+uxkW3UR4gUV5oLAsaLNCYqlrmp1hwRQ4lEpBBKNCnG1cjhUkm9KRLCRTN6RjIEogkqXoaafK4eNmtASroFc3KCQe8f3VHRNWTvusamnAR7M0bcjLmjWju3NuSBySop7oVt5qy5pFEl4F09m3xMTp8egXgiEY/H48n4mmDXweHcSItwJBRqEY4sHXv2fvhdAqFaGQFK0cwNG/KPJK38fD6oX0yy41pBoTAB9O5VLZKYCClW/1OVc8W63zrOBOQ/3DtaHaupiUaj0ZqaREDTFgrQ+1/xKqq0nHpKU9C7LVikSCwQY4/C4yEgmFpBLyiSyAgVOj5KMENoLECLn8nWfBmw5FTAcmPAfJz/yAbRPNE8nDlcv45xLggRGGqwHoCIitzwGLtHEUunsG6hX7OAggQ1afypoPMLBXiPAQhY44yMqFTbK3XJqOJ5qbFB8d/EeKNUb7ZoqhlsLZFLyUCriX9itE+ztWXfHJZNi74E7ByDyvl7VBOa+rAofm+NUpe5V8+M+SDNEZwA2zu95o+NRomxo2ccBttcQsBup3iP6J1mRJFeglCL3aGI05BV2wyRMSKxbxPBRsvHFG3XugbMWWeXxysiShjkYC8lqAgSYqj0iORSAaRPAgFrsSvpUo6MKMKjGRwuj2lx1dAaEsT9aYaYGnISkOyJShWevI/rDthzc2VrU+qhkhYrWqjUWaCnAVFLSewy1NyKAKTWAhCdNl4/xfNPgG7MYKqzACsJEwi1XBawt5lXilWHKCIHuqvmYqcKPUrAowQJEEq2ImoeUD8WWzAIujptsxCFssvxPiEIiMKMTXznfR1Uuy0SIpVSgSruFhS7buGWUAK+UiESCdAsoGBlR5yO2NbVsuRdyQaUzkNKEA8URWFQ9uoXhwumllKCWCqGDELVUBRiqWa9bJaUv35CEQNp867UEprkNKP43Un2W7WXDd43MeaicW31T+oJkYqg7XzmF/8+QvSUK4r4CxJ/lFJ7/xRjcymD/kLRFs7ZfmIpViTWiO6KmiioFs3HZGVRxR4f8uwuNDjSB5T7R6D1AQEs9HENuVa3Sv21IwCCqUQ30/jqg5Typ6xYS4kUKca1AArZFiJNCPZxlNcMKKFYNBLOK+I795GixlTXU56CM92JsQtR4wtx2B9UD1tQxrrNmhBpQcBgUqmliKImZ2ZOckQITSw4KZIj0ewN0tCojQdxfNRYbIZGtXnmi1ZUUawSYO1TjTG0AWP2HYgp/NrIwORDgSJVBn9PsSxmc3GmyJUlDs+GgO4OkSI16A2UauFFTSZjjVEkWyocUkPgNGcdshW4dJQvHKKFSYobbq7JwiCgeBE5I7RAIEdk8KcELRVbWvRkL7HVElVQ+DUCMYVPyrYgYnEm0nQlmT7RllhpDjeaRdBWAin3ykkiOVRTPMB8qrFakJxnriAqGG2q1C5U8sFqUzMQrHhurcKhfms1u0BKugUDQaXzLQnb1llrh9UJWItrmVCpvcnbJl0fi6ww2upqmIHb1BQ3q863ZHAoFIlEIuz/tue/Olx7IxsaB6HZ1Wp6oZrlyXIjJVSxanLrxWyu/1snigFWimHxSbXLuuIOsrRdh8eP7FAd1TrfoEHmO9226IkDiUSE3ipYH5OCChEsXZs8BsKB/maxO4TPBUHwNWui8KzYJaRNpzatyzg83y8WxZyGTc8GFieVcgplo6bIYnE7gORmYwvTX7U2lCrdAnWRKZSc1GWQskxfLhlIiSH3Bmw95bAtfCtFUpK55RLAm7HoNdIw6UeEIjUU2nyU7C5qpVZt2uFNMVC4bFY4mcHs5BEaZsA2fB66gwhdLDXVINSQcCnCgNqYiVIYoP1LueK7+kq5W6GJSTUKldOz4nf8Vm2G4Hgk6FPw0cdA8R78ApE0QMzeybmPdlT13GTn+afGCXLo5uysOQvcYSudD/FX82QC2qPesv/OUtoSMQePWFacUS0EvXgcVPKp5GqIUSUWrgkyU8uaTFueq/bJDGw0ODK8lGTTczrLLUB2TI/MlFWUtC1/E4NuEpSNuhjQwiHiFsXkIWjlEs1VayxnHuaYyxeZT0Sfoy8WmP5UhKiOU8SFav0Uwg3FbxbJRUo4RlYCqggRIcbmpzY3aqir1KrLzlKaHMU0lHqyjbmUHmxDTHbelIuIIrfi7RIsNvjsTcqHzRaYke8HxcKWbc4jqdZhZuH7B7CqgLBDFugVlL36xWGUSp0vGAwModY2RahcJxooYVy8LINMsppNxhyzlMoUiysVYlw1LAsnsREuO1PmrzsubksxD6b8Y4I5ZNuPPcIUqSOp69ji+L1Q26kVyzRJS9RCIlhSpyEnGUKpozUVPVDyVjJbQsHxSlZKJNYwP19LBjRG5DtyCikSjGTt4evj/WO4/4p/V4xrGY5AfPfO6Kb135d9/32VK3c6DHO2QJ9kMjgEQuUZUrFnidNJJCk8gpTAKMuK09pY00fB9P8hyltTmVZ4cVEifEUB61JBAXRn6d8s+XjeFrmCkHtSc0BQtch7yqQ4bNERsi7RGlDl+YE2firULsoahG1BJlkCrZzhXxS16V1gde7QQ38F6xbPfa0aS6vI4JRNCAivY9B8OOIc0PELIncM4T8pvoEW+ogPwyvtjIQANqdJj3ChGBdsU3e/Dh5w/pPf9AVUbzOZT3L6yP7boi7FPC+VZ/gpmNINAcSagOsAouqjxrlQKk9rYU7yy6/y9/c7pJg35rg266pk+81kPiE4TIpH8H3sZphesiw+Ryn0vpHUBjS0/zhnMPzqoBT6/2qobz+j0+9dobbJZkFMH6r4b9K2OAeo4zsqt1JtIET7ON9kk3UoLn0RM2DUnvLvV3230ykCtHj8mJa+qJl2y2Zovl2JnDZEqTZJ2dwlR7T0YVg4StB0sm2mfu/eTDMO35T8UYTP2bZx6ZKlm8Dy8M0fMPwMX9TMuX1Z9nS+4bNHdqXVtbFYNFpdWzMbIyYSiVRfn99SHOpCCmyBDWLru/2YDDzZRKZAnCeLs2KhSy41juN/982X764xGUd6+PW+qIk/dkN1lmbMgEcj0WisulbofGcHTDmk4MHVQoEn9xi1qaiNWAqG1E+KMpSRvIJ+90gnaE7T77rCDFNw4Nk3z5+mAzoxwfXrsbf79T54xZsZxIUBUwoMyZ3kdO3GJAJPJvD+tfwiIK222C3bOlVDwXZTtTYiopVXRfceAktAaZH7PXScT7eKxxy3b3yrZo8ofPJVuLPPFtXlqJVbMoQKAy45J5GoTdQmpEiwOqekO0eM/F/0ZqEcLZoBCEnE1rpSmZva6j0PdYffvx8cm1gqknN++3+tfTsW7NJ/9JDwmhrNgq9+7c3ibm7Ggy9vOz/eRCz4wAPtk3EPM0kpKznOiUftQD+Qeo4YCYq1I/5+lPKwOAyc0gEAhrflmVo9cnkdnTvs9mVPjQtrxubb83+91SfbFW8UpTvc9OFIe84HHCWq3r4lH4b0i6a2T/txYDdWAGV9hqNu9f7v+d129iv8/Il1dy8y5O7PriugqguvHP2UT66BHx/QqMHXBfwYI5LwAkg3w2BLnvSvJNrTTJyHkLgxuVviuigqxeXljM4+spYntimpv4f7XbvkCGHJIEB2Tzy8ws3TZUbTsOAD6wghSovr/eNWAmTmW1REtfaSSvlaG2YNL2HJpjsSgEg4/Rjv/8evYA15vVDw1t+OlVYZCutO8om/0PNpv+BdTYEPASsmqdT56i5HS4WIq6zGUoJUsp45PkN/p+cS+9rxJu/XhhtreGq6CsrIqLefO1gR8PVnTHazjCs7tgGjTgMmRy39rOUyXzmhk0IGF7Qp6LWnzu8hYmNs/lpp630J3eUtpF1X7pHN1aTdzzPm3RWW9Ub/OGy7k6Fo1oENH30d8P3oSu1hDJbBLbbsxosK87SeXs4Ya8e29P041TCp0LE9vKTbN6tplTr2hgORCctu2E/WOPfk6VE7Q9G84vRrSwPm97hpWQ02kPRRWxDkFHYhSmJxVJamgOTv1moICGdcGwaITfxcSwp5HzSor1tvekXVOui5QvvxklMcbGUQgn2kbkANFWuDZKAfGYEJ6+Iw02fTVUKhx83el5e+wBrShkH7pyIvSAvu3JFz7Me9rrqnEZWmCwHAbuvyiCIDvXakb5QhCElNra8RjFIY5n3uelkkNM4ydP+1qiPv3+I8vTazi8kERmOU8laKh9S0pOHTZvbJGUmOsJrYK9F9uPfrH1u12ARQvWlHA8iMR2lundlLbgb3jrBXTtvpmd60EZBrhbJFH7DGLutINVUfSbHULw8fBQDfXoxUWfxJYJ998tq07dyxdbc03/ez11SLqgdNtenMskHufpUh0HalVAOW+jmscvJBkmWHO/nPXu2/WoUD9hgEHGjhYT0POSQN7Hw0bqOooOCZM61nL4/IEl4UYsQfoVTTYnPeUDsEjqmXsvD6VHcAePNOU2Nl73OUQsdTB/UK19PHdaOWi9w5pcOsZ8NnZgsx6HvOIb1D1lkR8FfuooWHteM6xFI3JvyN/5cfNnDl3nQqvmpwft2drDi0QpQuWGOtpsW9s4EVDzEDhoZzHZ2v8Gmh2Fzgt87kMlL4kmmXjwaAVReBthb4FZQ/W583/LA6ezlnwmaR9/RXLIJ78ocZwkT47JFdk1Gk2tQbTLjnraWVVSCdsrEMTRxfD+w7JfJqR8/QOd7nFKsCAEepw5N3PD502Ds76+j04G9EZDbyzkhrb5rUeFQYMOCrB47GcVstH7yCRzZYPIcaPjH8qUwbJBDFGLK9elgrT05/X9YhXYHCbfbfv+P+rXOAaMdDUdUXl/a+5OvU3Y48cK3I/+aha4wnJ9tUp3HQ+YV8Kj3dGNhq1ciIDwqSypxsmum15zfVamEq7MrSV5k9GAIAP96lynpoO3RAr5JWotptW1dvLP92VVzyN0xmr3zn7dP/n48uU8Cdwbt5E+sGfWxo8G7LCPm9OVIjIkMJ3Dj65kGl+VpqNC3pJjLEA2YYNO37MMLbkqZV6cAPxWcMxfc6tGt3OADs/tcn334h+RBm3H97/qkXDkrV9duq/sZzrrtgNqYzPU9/p4lI8WAwlc5fYg6rpSTXSHG15ass5goKDyLWFAoSYVAQCuO8z0+0/1ifly7r5Pal5Qm/f+STW/Kx9qLm7bEvpez7fQcIEe29R430UY1Hh4b2tjNcABNRD6IEc/2SFBDpZEUAH9Iz/VHlJDo2DwA2r5ZCV874+1NzKhd/eG/fMFKTkj9cn1JmfrKQnzaj95Tj5OGZ0I07oorjAL28DXVtfUbEO6kop/g5IInpNNA3gFDY75HLUsdZBmh53rNfTuknxXoKiWdPSrUB91vVj0tiW87DyCt8uq7604Tl9qjdEAadCApOIdUQ7k5lHkzTCj4AYDzXbDG1jnmiZ32dCp/23OwRYZBzbsO5w5f4Zyws7cwb/cQQtYf0q6+F+uEJ2/nGDpMy7+scqkL6KUqi9HLIZ0aAUgyrj4P2BYDvy/nv8Y90SKdfh93/9h+KVXUfDn/UP1vbd1ryHJMnYqPbmDRHXweUvmtE0gTIKeke1JbIDU/MPFQRV7+YJBSbYzFOEAw9BgBe/4JlGHRtuj3bt/fY1p/Wil0wMX/VYN/1se+RL/IvnyTRbUBdJjfZZ4a+/u+uLRPxRCKpLZEKTyKEgdp+iLJZS9MSMRyg1TfCPc/ENnWQl7SSs7XXN6Bv4fGv5VM5S1+7wz/TmUPEm5iM7E2FvRqHDQyxx4c8vQv9Zo5D4jyn0PmaojKkPCRpyclKpJraEQCG/ej9PLchiAGAfz0xMyoFtetv8M/St4K/yWvu04kT/9ooZNQFdjxfW/MCKTVRqTK3ne6xp2M8Wby1o1mqF9ZcsUzW12vyEX45tvTloeGD72t776yzm4QEPwhY0g+A4cwvVgqOOuDSXwwUDvU+vmLWqAsbjBfoNvN38vTLkqEf++Uoeo5Tn/gETX/7Z2DDtsDiY3B8WsWSUoKsRYAP7plBAznNYSTmayZjN+Y9Rm6Z2lI0vfs8X8yceDP/XP6gSsrLsF3SCEIq7dCA+BJKscHEUhqYM0YlM8P9So8cH9eqUV0avOgk0f7uX/pi5paj+OddmgHOAPW1IGAc5NRGapDzhTs8UHNjTrFRs1SP9MIWbzp1bWSfOs+4QIjcu6/zex6cyD8rnlRJqaXyxkLAmBc4cgtLEL8pivdNqTZfu/QJaAEAVFZ5lTTei+Xe00RfvvTdtUcdxD9fUFv24Y1uKhXYIQxC+uiJODmDNuqkVtUaek9sM8ifAQArxns/n2u83T06dr6ofOBTPhR8nlBO9FwgHpb7SO8NhZw+3XP0sRw7hMHXh1kRY5EtVugvjSje1nNC23nf1rMkRxjYPnnRTtqqcP+SkqO6120aiLx46ev829yxr7lbzsBfvsI+lz14G08oijTVjh2+bESHaDQaq9UhDBCwEAZUnl0jwtcfG6wB6SQ1oMNonqAEld786r6P3fgNSyjArp3rP6YUOvc+7YQ6kBN8tIrfgUkW/vn/3MeT3uSI+OtEPmWC7dc1AAl+MLVvLEZ1fAatjxH/BypMibOMVClCZXgBSZWlNACyPPtjiKnyHjpqkpWf809Ww/rSS4csq6OjkSmdxbe/+Iy52yP8s0I6nfn7gqYPpwyUznUCEwHTbZXCWZXSQkCFflcJTBR5Y1FTnaknELsnqQr8VtIuIbFLjXP5eef8ZVvKrha8c4To4x99no47iX8+I343nJU0YQxFbx/EjDGWxaByasRyoLZdAMzlpOcbX3dsebAzNA4X0waU0k/U8M1j/W4rT9XX9i/uz3s2/Xmfp3fyj/cW80/7DFhDYbDWR4qlZHMjxXvM7dcMKSZDNwNxJQc+4LzUjZeca7FCBEjsuYG3f5cif8cpEZ7vho3uw/5CO/Uw/2iqTNBeO2yIpWT79GyJOFENVcwY8/Q8mjC22LTHS/mX0/ot1x3dPsfITQFiT5/2m83+ve19B2+g4vc+D8V+9BI3M9XxPtKCjdpsyBMCtnZ8TmflE0ORjyaxhAHzyLo97RJeylJHwRwc8+y8ZR/P/sd1Z4jrvMR8fGvwq/7dvex0lonMHul6yffnTF38yTSHXjfM8TYZQvQ5PMd8MrtARSnA17HgA/OEYHoNfujxMtes9+1Cq879L5688LULQHsjkZ1Xp7AN3Smqn7XAffZL/pHa3tIQKEVB2NhnwLRRw7ydKo4sAcTEUEUWuLeIMp6g2vRMzGH/v62jI4fc9u7v2nPvPrZXXfG6b7YeowX9v899NobTlbVrGo8ODR/Ns7aZgBFJoWzSQwfruBZqzMgvUUf1ts4Ry2qqvX/7sLR36+xK8e/m/WNgRPSDxq4YscEv1909+Ocid7F1E+Q3heK8YZAYc+sGg1SSku4BqQwn2348KIS8XywxiLrORMhTSgpPv7gSACbPZF5lL9brL7Xt/pdUde2mHOOTI9pnFWv8wOXOxiP0dkVlEYBzm368wAphACM7Wf5S1piphR1fXa/Od9rNAPDYVLYGh7qelg58c903soZ9ph7vk2HRGbz2J8baT+IlnAeacPeM0nczfYYpAHPjlvZARSM11JdUrS2s23N36t3A2C3mGfKO7+ow4dBXL5Xt777Ij1z0PYt/3u0MPXg+/3y03cXvZPxsVwB2fIY4EwLqUL4YPNW3LmNrtcxhCFrev0rvXzuOtMQbafQgfPMH+aJ05dV+Ga7gb+K7j5wnAmWQhRNv3nb9ET9kaHhy6NhURPlyyGuUfYL1oQP3P3r/xD0i9LUf0ulD8ZQi0fTnF1a6j3szTSAl05wnPZsqIdUBHh+zIGFYXN2JoecG5vMwn0iVe9X2hEcPxe5VdWtaDs/HvVIsAkks+I379oPcOEWnOUe6Ch9oyFAbBh5iNkvmHbtOGZGNFT+neB7r9IkIKUgpJLz51yEseJzlt6WFmeKXOor2FjziPh3FlceV7jHAcQc3eMDpArsifFO8vLx848ZNNa0CUqKmBOt+FYqwid+cVIoVPLozQOCjbQJ1ZTMP2T+NbhScLpwT6cf9nPyB6gWs6bIrnXJrfc0ImQAyYKgdwsD1yxURkrSDLnawB+T76v392ttW75uhPHpDN5yVTkfWjPyBH1g/8D2HYak4pJJV//Bl9pOFp2YKETyEQbSmJsru5ZqNNXjhnrc+/qlcKObmA4aKUx+qFMZ8JLITdjD0AKLWV82fZqXTr26v53PHnDVznWeFgr+5xVHs1nMqtwFQ8MEDPcOgF4kSIvnIOt2+xjwNqVVVNs3F9BqQVoIxXSXYTnf35B/T6Fnx9YJRetx9NpS3U+H4WkUyZjd5ojM1wrjb564HFielzZGaqgXkM4O0vU7IePqdJy0dFlQeaQA1L551zYL6ifC403j2D19zHo0Kc1bLFZgy4EzF4JJBxg7rc7/Sr9ZRMyqiqVZCV5UoflljxYP4NwDQ4ghjOdYuvGbQzaUflu2qs3P3FHCmYJKzYgr/witzQ170r2/EacJYHRaWv3GH0B21o4RrFpJCypZhmKgKFKh130pZjuHTYwGgz1LLwFL11luU0lBhp/27newbjAqgw63XsKxlF71gd2v85LVeYxuX2EbqkxuIgFRwlNxzEI2x1G86Jq+huJEHiw1bAZGmJowFZiTpJcqq6N88f83WJTPvG/aL5/wX1shunK7Nn+88Ops36jwo6tJoXDggg35yRRVgAgEAW1oqx2ZL62lfMUFMu4mqnYX06N6KqDhoKD8XMlbcfZnvogr+iucjrox1JC/+ifMgQyzeOnRjmpwx2EAEsKiD9nMAiseUVFc7EsTwSawiaZzZ0Y4Xzp9aQSwmHluhnwx4xE/yGxZmyKZuIJQ+vPwKp0iGzqV/aMtAyHGIPYmWFiACoixIVB26IRRdamlaVfisosBOVw/WjwxZgr8HsuvBCXvc7u33VA5D3Q/OkjmwI1vIK50zkPV6EacH90UJcucwEUNECAPTIkJNYQlcRYNRgff/XW8tndgGTEONrE9aIheN8LFCnnoqL+CupT6cV/jcTs/QUipjIQz4ZDAZPBHCoCDPMBghIyOaEgYXDDapoVUPeULYMF0HMewHUt+1+vc+JPhCsS/7rSWvbsdnPFMc3vweNy2vAdtgJiF0emfuCEPxJVvGzRtYxasFJEsz+vjBAJsvjKEjf6biVDwY8Wenf/FDK1mNb9v78ocDWPovHK1Ma58AMxkA0zmx5o3t3OBPCL68UnC8ipOTx0/koiR4Y/OeeTJvh7GsAiKlKQFEeE94/6e5m0yQXzECzszgF2wQ11jbvsk48AX79Mn7cWkPIFgvB0odgbAhwQ3esND7N2Z/dCOBB/v3OvWkg3Io1ber/Mb18DiKt+Vof9uG2TJ0XACifmGsMgA2Yja9J74QOxCOvMmN4N0FVG6Dyytb6q3Li7FNN3T5W29NefCRlxfc20+T9p1/dzok9AiL7fQg87sj5ba48GB2VpJ7Xmnl58LCaARxoDJMMSVYiaf4HESv2NenvX+ndwTlKdHpxQlcAdV66D8mhWRWMnOt3f6x3Iq52pGXDmDzklgFyv/UlNHXAQ5i4NPv9E01KHwi0dYCMIkPmNZa9mSpN2VyLpG3+kKvKShu19kPBaUVM+7Q0pad2GSMr7YfHMhZcWvlTMxWDBkXMfBejKgT1BIJRBtVUChkiQdnwhB2jguG5HH1MT3osba4hVMGqytU3chcXbnjsWNfaMNfg7lylr3SmEGnAz6IqXk3jqNJgu8NSoCPylFMk7jvyPtMGDpfTKRxVhNjqdSnf+MwLO04Z+QgJsLLVBmJmTqO7kLQ0PnOeMFLW//SGVIuIPpQH4/ujWPoKedOXZ06mV1VOt5DwNy1XsL+g61We/b+WNh9Y18dbT3rwBUZjoGpkDeNZYLoBRkMiBc+Z0RXiqOz6rkQ7jlpFTvouWvWLnRPJFGma1O/INkR44S6cnV80dtYw9czFNp4AThDqS+cDbsNn0wOYrjvK8FL6coM4mXAV5OPDmmXHb6UNMkomMpsOLvf2IX5NwLoQLGpedBKcOugYA07Pn7sKA95PZxuHK4ulNxhP8on/j0Xh9DRUpo6Je1h1wudpxaA4Thp05gIP8RYNasKLLcp7BlkBKwi+PCBTvvwJk+W/G0/oBBy+lGkiu+2H4mV6a/KoshO/cH4NAedDtxsR3VyvDa5sAZV76HwBfzDuE9WZudWf8TJEemQBYvmeQvgLz38ZsAebnchfu6WvBVfxBheTtdlcqfu65zUN+RidGRk81Ksl1FzAmt7wdCz6AeSWj/PIiX+PgCu5oWlMCLruM0L9Zbjby9K/G3ffduVeNDJYY6bAkUUqHFprrGUDKx98ZZczsS6QhcMpkUzMojBY/Rj3UPe5/G/gVVOPz5XrLPjsLCbP3FmUpzTelpZsX2tBykdpxsN6E5UvxAG6tvmWWJnQMFeCIoVbhvhAF+xxj5eZgayi85yNZVvqF4cZD8SDIwzk3bjd5BxWI70jI6iigFyT98zc4vJoigjnEmWIVUC3MY8m288wDbSfsoVcYSQVs6OJSL7OKZ9RlGof8DppsMT8oIsmmLGzMNbYHzORtwPpLcFUwRApIdQvUWRqus9Ghq+Z6GpXtnz//hjSmGAs2S+47U55wbLdRMNHXUaUDpXMGrKSmA6uqy/xMiemF+p1h7RJhVTVQn6rjp1jEc+WM0m4D7XX25g5m+b+JshACc5XdzEP/az038UDWXnQsTEpRvMfSmAKEZs2dUnWyG0EvM24yWiCQgOkC3YXopNCvLNPsfMzfv/c9pKXek/X1BiVqiv3cNKTmNaOktpq6hblT3gkgYPvw7YedyNy2KG3aM+6NqHINdV62B+Emy3VudvNDshsee6LqPZWLcsnvGZ1h9fdKvd3PwL2JOjHO/pY77WzXpw2LyiLEQuUFD/cZbvd5+8jysoChCKG2Sz04G/hP5yauQybzXd/4cz2h6Qt2fjxgSVQiiF/AlOc+/zOpyD1PGVYND302bkwYP9J2RJsSlczeqG3evb7kMNfFAVbwcQr6d+geAVhTbnC3qs9wZOj368ae3GSnE/NivR8Z19ndZu+Ter47eHWOnfSs94VrL9nfd7HODB2zMVHtCBNBADtd/HWucikUAyfHqauI7QeMv6HDzMBHr32WQxZY+49tUV93P8T7IPIH0gVVLe02PnDPGmevlFGRQjLfBRVLmQXLEogfhbyQYZkavsyy7wvZmPc7blyMkHy5xslYXtWcFWEvH2tc6OUeR7/sFIepd53MdhbObvJ1CQFmIAti+MKnMSMvEaS8iM5kWll4j35aaXmUzY6sFeOGfNRe4x2gV89vVxHiwHhegT5zI5Ij5xYcPG2iBIZyl5ULWWxZ8HaoQKMYQBAFePJZi96ve/6ePJ9a2GtfosIR5ToFunx63gqi8JN9+brGAN6558slZwMJH/e4opkKvO8ztDmjHAIQwSqz+ty1OuxxG5xikc5+iJu6cndQDXor/ysW6cWlqDcpz5FywUrT67gucuHjdKL6btpaVfgLgLK3z7FVxzsuLsjBzgQmCGMMB+vpHItmeerQM1uT0OCdhIAJq0rmbF+MLPcm88V4zz/hmU8ps4KdBT7kc708RpyhoePmnAmZ0B4hvfnzGvVjV64Z84ddny4N+rMouW8GUjimLR6tqa6hjT+VpXlYUWjUrUUbrw+AL/CE1AzbNf1IhzJXBz0MVDeDXf/n0eOgJ1xBE9juvB+Kl/DY0DRSg+4cwv523XbgX5w8YKJ81Zv8m40mFaP6YGF7EdYm8HsaoFAAb2eb+O0hULTi3gliJ15yi/jJQBxdo+/YtfU0YorLwhxmPMHvLwazfJc86EfvUVpflnnXNYPkxPEHV1qfdv8WJsojlgrlSizTg302iBUwbVgGGqR+eueScuqLN87aINrkQtyazeowyzlOQICcCd/xAr9dxPb+ouNi22gVW+MPLQI4Y+L1xEsP+a3AQPvONTgZf4fXX3sVEwhgKYVmeDxkRCoe0pfE0VRA4tofZ6EtG/3QXmhKEpvlYF9ls0fX5MZNbBxv1IO4VOfYfLgIEVMye5jnhNh7LCmliMWZQEjXFkpXrPd0a/+K5XvnqXfB2JCYN9PrRVwYgwU/77kpEj+UbUt+/OT5bO2pjk60xu/NZxZyC047Dz1FnJ+GO3Zse7oX0UiKHZdmZMRRq3ZkHnw8LGjkyNcOumM5brktXm0vP1Hv3de4u/2RzHWz6i3jndeh93xJEqb3TaXd9RHxfaDMDqNrWxGDt3IiyResaIl+bcveIH68uLD8xX80EZrA11DSY1KIYRBfhx0hO/OlmKAwce+GvY/dXXX5dv+HE3Cr/dsqRT506HHI2DfLz3wLvRBlxf1TCYc6HlEYQvAmezaGpa9STXrz+6s35z0t5K9V6lKJlcbED1Ofbt908+9yZ9GUHLE9nxmm2rt0V3VgLNL8jv5SjwouOn0WzpNQGg9AJi3sIWtHRVc+varQ1Y+kOPPDUNpLcZ0dfii60ISd9Jfu86//XqonNOt3x027VL1VbFZ/P/yTUvNCuKTYCP3u2Lr09liEF7a9l0n8NCqWDj5o7FhQHNqihnK3G/qlB3K5ZHGD+oWFbbpzzZ8fgT+qZEhoKtc9+YW50thEhIjLloXDt8/Top6ZaTk5vjyUq5iVUf1cX2+kFeSceAIwm4Lq4Ob6ydXHscf8JBRb73OHvrZ+nSL7/8UvEDqq6sgB3CoKnVde0YxK689h8TirDckARDdex9BA7setAB+7Zrt6+kePHKHzat3rrpy1VxjGeqrldpOhbqhQzQshbdik3uzu8GHfXbuXCI6nu0aTHPt95gIMG9m7wZICNEvlXH/YPmxTGIm7Hu33HYYzloy81cPrNXkXNuLEuQrqKqTqjZvi5KQ/IuTmSmlGCYyy2bFHYGRrZjqeQiiHVpPrRkCDEAdOeW9XtyWqAE8zH2rQFk3BQmFiFN4jDKxDjmweTNJE00F1oyhhhvMFVbNtUmco3zynKaYJMudQ7emnmIY7hntSSSiWTzoSVDNAZBoHC/1rlaP2eprdB3FgEAjAR05ZdJqpLxZLMiBQy1Qzhc8+bDdd3+lDZ07BhGPAsbmcfvJUEf09GbtcipiDTfdZKICCdrazPRq3ohfO0ZoWhNTbQ6ZguR+RefVafON13YuLFF68L8gHYKFlFeGTcsb2giCi8UOZdTRXaZWEppPJFoKNPZOOBha0EtIits7R2D6tT5pgvV1ZtIXssWefsA8sDSgVypQZ0JpWbkNE5ykslEbTMhBXjY2ihFe6etqBp4QXridb1Ad+0CCLTMi4RaiDbsqFcKiIoAINQTNFkbj2cjvlJquOS0WsMvFUvX/D1emiHEMEh62IFQi0g4JxTKkVxKUrlkUbSC2MxKxBO18USTbzJpOIzVqnDeTSRdcybjqMw3WlPDvBxzgsHcYE5OIBAIcK8rRllpIgmJRCKZTCQT8ebeejQcyRzgUfu2Pgayd+9tIpEBwp4taBFVJ4+Uy7z5mrb8NB37qaEcRTph/x1vh7R0vv97wIeNHFnsaCDRu36Sfv3kMDmGxVy8lDh6Kkf7B+H9n4fvR7MNQuvDFR9DAWIrXnrjP5g+Zhfm9xg9XJnUfrrd8T8f0nQ1+/nBXsSkgL2ISQF7EZMC9iImBexFTArYi5gU4BfCoDkgUlRY5cSCcaCoqKrKlGq7FEa3O5HNMgLhc0aW8LC1jqtZqOcJf5zgBi1sGlw10fh5dIU33qvO6wYA8cUvz2I35ZxQKh9H1y58Rp606XL5mGJ2t9QkeQis35jhbQFgbemfMh8cZcCjLaLRqL4OEvv5hltEQsmTvs9sg7eZ10a1rgAYNlUdLYlOfAwA+uObTaK33eN9BJ9QIUSio2Z6H5HpKmLy2v5NvZnMhs6fBGLRaKy6NhaLRqtra2YHTO9/GcIgm9DvZX3kJvLo+fbjyCR2BeLNOrRKpJSdQX5RR5Lu8kymO3Wz9AqUxtJUIQwyCtG1CgBgord81/7m6FEsqtKNOA+nJ7f09HJ53ya1PuRZDzMeknoO93KdS05d5s2xTIWrldAX0P1tHm6CWOPrQeNvvUwNW7AnaNEQb4H9CWDZe2/0AujZZS3KUzR6UhDgtUOihxcCwIM3QcW4Dbfw4LTs1qDh78DCoUuLAK7K8JGc9oafGQC1QmM3A/SPSHXYFnap1mn44ZbJD3orpT8ULly4cCG7O+ivIm7kQACY946X5+UMBjiWwG+/RJhxlOHLM9yiA8yBOY/9/8TDjHWj2SsekTvq7Q9U+PiouMMjuBZ4eFPYLs/tZxCWH2nNjSByS2CQ1dNRHizc3hYir932SRRgu0+sNsakYFPFmd5MAYDjVMqJ6BrETMETD8nbTISNSywl5Y1Smb3jlwKis7yVsHB2intLWFBRxNR1eRQAjE4VekTqsQz36uWdhKBrBYih2mRhazPcIIPipeLLkvEAcNdwDyf9N7xd+qbPghgNOqDkJWdBF2+HmmVQ2msAYIYTWLCJEPv1oy10iCUKEEQUJms636D0dGaUZU3/GV08MnPeeVtKn1EkLW+Y96/4LG8DWixOUx8+nH3ccg+qK3LDjQDRmzLex/k9Rg9jgTay5HruwG0UgeBwI1dtFgnVN3i/+1MD5koS8wD/ve0iVN90LyWjUR38IfO39PvAdslOC9oR/etjB5856nDG5lY5cUhLx8sVVroMinsNibR9Jq6E23vPA4D7sk4ImwG8GVPm+6TXa97L31GIZkztjqWP2HdT9PMqkHPoj16u6c3yNrMNqREDsMAb5hCOmFR5AMoopYKf6ydRmX1odkXVyQsWLFggwumwSJn1xs9foW7FOcrjXipGZSmCrwnNPisrvJd/Ft92tqbuwR1XAojDdoWS0R09FQDevqBZ8JJ9sJdS0Fs/O7h7Ett1fum7lC73HrHdyFs+1d7+fnotpfT9pl5TnC4ES7rlyJtFk6vqDGHQeFAMHsDQLed+fDAULl7xQXlhf2+BVPhfzPrSpEKAZ85aHGG8zKy1AP1msLklRZZ5blTtJoIZwiBYMlhq8MItIj88k+K6lqZBUB9li0DFuXOLIdJTJk3wXxkV1z4JAOedx36svVpI5eh2nEwvqPBlIzpUx1TY2kTAOKnf+c6JGW7PB1aMQIN6MNWtzFPQ3bsXZD5KogNX3dpFnwYhQOxdaaITfy7zsPjUZzhqKhZOuC5lrqvPncFIbnzWyRmNqukPna9mChkVS4k6567/eUX2e+EJzW3zoHxtPb68eQfn1e5eka1w6QY8NqKmNlodjdb6mU8YqtxozVmBtemIx1XOfRZZg8E8rpQO7mAuJUrqD2HwvwntgYhL1wRuTMSQn60760aqg2Fy84l8Ivcm96KAnwV87USAll+k1vdn6uc73U6wt+u5/wuqjkZA6VzroLuJmLI7nYvrfyaQGHtrOcGH3UlJ9wCTlYKBYGJ1g0MY/C+BGcLgp+7Nfyzs9ahKAXsRkwL2IiYF7EVMCtiLmBSwFzEpIDhgaDhX6GMyFcLgvxTC15yVq91ZsQ9e/sVvj3euHPm5QPh3cy/OQ75CQSOyUac7B2ckhMF/IUztG4sBuuzcpjEDsxD59L8BLhloRTdyiO+lzd+p/wQYK65SUEFQA8ZhYyDufUc/DzhI3HhD8El9486xZnEl+M+DAulkhpcSVtDQn6/OV4YwEEsJR1vz1tLPVLU5RxtOxFIyY+7+fEMYRCk1ghiYtuufcwiDnYQQoq/PCmi0UIAFvTJ9juu/Bub3+MgINE+Qf8zPXueL/WN+6t78x8JetUMK2IuYFLAXMSlgL2JSwF7EpIC9iEkBexGTAupETNe/r96zeaFxOChn9IzVe8oe64zTwqMX7tjxrZnW9e+rq3dYRU/5++rqssdOMavzK7psRzpFxyzcUV1Wb1HWk7KXrEEs3GwXbQgM2LyDwXStIQ9P50mbr9dpA8pE2gBUdFPKojitYLpPUdlqQZ1Fw3UUXauPLIev37zj32kUdaCug26rCoTQfedDMmn8nfLbHQ/rbJQHfK08ImYU9QAXlaFYddHP2EujxCrKM244KWa1iouOv0OG7jNbZX3RaZfdSZ0OX3aH0CVU9kptLkq9lMIvtaiJ1Xh/NSMktsPjajzw0s6XYdhHt6iprfH+alqcDTpNwEhV9OKaWIwVjqmiY4pYnlq7KMtX0/4cXZQ3GqsZKYvmX1zLG4jpomNa8MpqdXXhcTHZE9Vq/jjWC6/DD6eOJZ8aMccfE43Gogw6XCPT9mO/veQiGQRiWFTBSHDSilTRdrK6mC4ac4sO19WNQEVF4Q6y6JXtZG3R891WVXW8KO8JKiqr6506kkXq80rdkUf2WX9203qIC4e6RpUOQ7nbd9X5zhRFe6Ci3UXRkmr+SQmo6A8lUSqtGLI6v6Jn6jRUVCltu/oMwqeoSnMhNWJyoqrXkGulAZprlKcRQ3Os84VkdpVESY6bza8o1FE0VFdR3RfcYb+iqZdSasTEo+4FWHFUpzwH4Ofq75PWwKL4dqwES+N9kUWrfXaNRrSa+jBDasQkatRX9QZQGkidVo1P2RqrXB1FCXWLWmlxn6J+VxX49ES3Sqhfh1Mr5tJCjG9aGohxioqb5htTtAmt+hdlfWkMYuJNXw9pFbWmR5pFY9S9/q+eogmfbI1ZSg1AjNPHhuHUQE2aRat9esxJEUlVtNanhabOGILTRNPZJb4YEqmLGmhoRKupb1Vp7IwhtL7XblPQhiNGDrq2oUV103HES2RuV7I3DE7LhMSj9wcKRnAn4PSNpxH1ShUZJOzucJlNhIfSBtFakLdRqTqTtfo224Rd1GiV2H3hrfK0pO6wBJL6zoyG7UpJHyLvdx65xu11okbfiBPH2QDQLb6+1cVjbqu1PsHG6tiVvPrjuAXRl8bMmDVJ8715sDquL/yRR+tny6b17IDZ7mRbk1A9BFTUecdvUz0UXVTNIV3U6ZzsCZ6naxK69jI3G6QOtfH/AwAA///vYHm/tc3V2wAAAABJRU5ErkJggg==;" vertex="1" parent="1">
          <mxGeometry x="20" y="280" width="50" height="50" as="geometry" />
        </mxCell>
        <mxCell id="zP974PlBZuE0hn4As67i-51" value="Tin nhắn SMS" style="text;html=1;align=center;verticalAlign=middle;resizable=0;points=[];autosize=1;strokeColor=none;fillColor=none;" vertex="1" parent="1">
          <mxGeometry x="140" y="208" width="100" height="30" as="geometry" />
        </mxCell>
        <mxCell id="zP974PlBZuE0hn4As67i-52" value="" style="verticalLabelPosition=bottom;html=1;verticalAlign=top;align=center;strokeColor=none;fillColor=#00BEF2;shape=mxgraph.azure.mobile_services;pointerEvents=1;" vertex="1" parent="1">
          <mxGeometry x="440" y="390" width="30" height="50" as="geometry" />
        </mxCell>
        <mxCell id="zP974PlBZuE0hn4As67i-55" value="&lt;b&gt;&lt;font style=&quot;font-size: 13px;&quot;&gt;Mạng LAN&lt;/font&gt;&lt;/b&gt;" style="text;html=1;align=center;verticalAlign=middle;resizable=0;points=[];autosize=1;strokeColor=none;fillColor=none;" vertex="1" parent="1">
          <mxGeometry x="715" y="320" width="90" height="30" as="geometry" />
        </mxCell>
        <mxCell id="zP974PlBZuE0hn4As67i-56" value="&lt;font style=&quot;font-size: 13px;&quot;&gt;&lt;b&gt;Máy chủ xử lý&lt;/b&gt;&lt;/font&gt;" style="text;html=1;align=center;verticalAlign=middle;resizable=0;points=[];autosize=1;strokeColor=none;fillColor=none;" vertex="1" parent="1">
          <mxGeometry x="422.5" y="140" width="110" height="30" as="geometry" />
        </mxCell>
        <mxCell id="zP974PlBZuE0hn4As67i-57" value="&lt;b&gt;&lt;font&gt;&amp;nbsp;Cảm biến MPU, GPS, 4G-GSM&lt;/font&gt;&lt;/b&gt;" style="text;html=1;align=center;verticalAlign=middle;resizable=0;points=[];autosize=1;strokeColor=none;fillColor=none;" vertex="1" parent="1">
          <mxGeometry x="10" y="350" width="200" height="30" as="geometry" />
        </mxCell>
        <mxCell id="zP974PlBZuE0hn4As67i-58" value="" style="sketch=0;outlineConnect=0;fontColor=#232F3E;gradientColor=none;fillColor=#232F3D;strokeColor=none;dashed=0;verticalLabelPosition=bottom;verticalAlign=top;align=center;html=1;fontSize=12;fontStyle=0;aspect=fixed;pointerEvents=1;shape=mxgraph.aws4.camera2;" vertex="1" parent="1">
          <mxGeometry x="740" y="74" width="70.45" height="56" as="geometry" />
        </mxCell>
        <mxCell id="zP974PlBZuE0hn4As67i-59" style="edgeStyle=orthogonalEdgeStyle;rounded=0;orthogonalLoop=1;jettySize=auto;html=1;entryX=0;entryY=0.5;entryDx=0;entryDy=0;entryPerimeter=0;" edge="1" parent="1" source="zP974PlBZuE0hn4As67i-41" target="zP974PlBZuE0hn4As67i-52">
          <mxGeometry relative="1" as="geometry" />
        </mxCell>
        <mxCell id="zP974PlBZuE0hn4As67i-60" value="&lt;b&gt;Các Thiết bị nhận tin báo&lt;/b&gt;" style="text;html=1;align=center;verticalAlign=middle;resizable=0;points=[];autosize=1;strokeColor=none;fillColor=none;" vertex="1" parent="1">
          <mxGeometry x="490" y="370" width="170" height="30" as="geometry" />
        </mxCell>
        <mxCell id="zP974PlBZuE0hn4As67i-62" value="Tin nhắn SMS" style="text;html=1;align=center;verticalAlign=middle;resizable=0;points=[];autosize=1;strokeColor=none;fillColor=none;" vertex="1" parent="1">
          <mxGeometry x="280" y="360" width="100" height="30" as="geometry" />
        </mxCell>
      </root>
    </mxGraphModel>
  </diagram>
</mxfile>
